SplineFontDB: 3.0
FontName: Allan-Bold
FullName: Allan Bold
FamilyName: Allan
Weight: Bold
Copyright: Copyright (c) 2010-2012, Anton Koovit (anton@korkork.com), with Reserved Font Name 'Allan'
Version: 1.004
ItalicAngle: 0
UnderlinePosition: 0
UnderlineWidth: 0
Ascent: 1583
Descent: 465
sfntRevision: 0x000100c4
LayerCount: 2
Layer: 0 1 "Back"  1 0
Layer: 1 1 "Fore"  0 0
XUID: [1021 273 1960245922 1442165]
FSType: 0
OS2Version: 1
OS2_WeightWidthSlopeOnly: 0
OS2_UseTypoMetrics: 1
CreationTime: 1292094997
ModificationTime: 1292410516
PfmFamily: 17
TTFWeight: 700
TTFWidth: 5
LineGap: 0
VLineGap: 0
Panose: 2 0 8 3 0 0 0 0 0 0
OS2TypoAscent: 1583
OS2TypoAOffset: 0
OS2TypoDescent: -465
OS2TypoDOffset: 0
OS2TypoLinegap: 512
OS2WinAscent: 1836
OS2WinAOffset: 0
OS2WinDescent: 724
OS2WinDOffset: 0
HheadAscent: 1836
HheadAOffset: 0
HheadDescent: -724
HheadDOffset: 0
OS2SubXSize: 1331
OS2SubYSize: 1433
OS2SubXOff: 70
OS2SubYOff: 286
OS2SupXSize: 1331
OS2SupYSize: 1433
OS2SupXOff: -242
OS2SupYOff: 983
OS2StrikeYSize: 102
OS2StrikeYPos: 530
OS2Vendor: 'KORK'
OS2CodePages: 00000001.00000000
OS2UnicodeRanges: 80000067.0000004b.00000000.00000000
Lookup: 258 0 0 "'kern' Horizontal Kerning in Latin lookup 0"  {"'kern' Horizontal Kerning in Latin lookup 0 subtable"  } ['kern' ('latn' <'dflt' > ) ]
Lookup: 258 0 0 "'kern' Horizontal Kerning lookup 1"  {"'kern' Horizontal Kerning lookup 1 per glyph data 0"  "'kern' Horizontal Kerning lookup 1 kerning class 1"  } ['kern' ('DFLT' <'dflt' > ) ]
MarkAttachClasses: 1
DEI: 91125
KernClass2: 73 62 "'kern' Horizontal Kerning lookup 1 kerning class 1" 
 50 A Agrave Aacute Acircumflex Atilde Adieresis Aring
 40 E AE Egrave Eacute Ecircumflex Edieresis
 1 B
 17 C Ccedilla Ccaron
 5 D Eth
 1 F
 1 G
 1 H
 37 I Igrave Iacute Icircumflex Idieresis
 1 J
 1 K
 1 L
 1 M
 8 N Ntilde
 53 O Q Ograve Oacute Ocircumflex Otilde Odieresis Oslash
 1 P
 1 R
 8 S Scaron
 1 T
 5 Thorn
 37 U Ugrave Uacute Ucircumflex Udieresis
 1 V
 1 W
 1 X
 18 Y Yacute Ydieresis

StartChar: .notdef
Encoding: 65536 -1 0
Width: 1460
Flags: W
LayerCount: 2
Fore
SplineSet
614 1350 m 1,0,-1
 280 100 l 1,1,-1
 954 100 l 1,2,-1
 1288 1350 l 1,3,-1
 614 1350 l 1,0,-1
1422 1398 m 2,4,5
 1422 1398 1422 1398 1062 54 c 0,6,7
 1057 37 1057 37 1051 26 c 0,8,9
 1036 0 1036 0 990 0 c 2,10,-1
 194 0 l 1,11,12
 136 1 136 1 154 68 c 2,13,-1
 508 1396 l 2,14,15
 510 1404 510 1404 513 1412 c 0,16,17
 528 1448 528 1448 574 1448 c 2,18,-1
 1384 1448 l 2,19,20
 1436 1448 1436 1448 1422 1398 c 2,4,5
EndSplineSet
EndChar

StartChar: exclam
Encoding: 33 33 4
Width: 528
GlyphClass: 2
Flags: W
LayerCount: 2
Fore
SplineSet
304 118 m 0,0,1
 304 75 304 75 279 38 c 0,2,3
 237 -22 237 -22 156 -22 c 2,4,-1
 128 -22 l 2,5,6
 87 -22 87 -22 47 11 c 1,7,8
 -6 57 -6 57 -6 118 c 0,9,10
 -6 162 -6 162 21 198 c 0,11,12
 65 256 65 256 146 256 c 2,13,-1
 172 256 l 2,14,15
 216 256 216 256 252 225 c 0,16,17
 304 182 304 182 304 118 c 0,0,1
118 432 m 2,18,19
 118 432 118 432 338 1422 c 0,20,21
 348 1465 348 1465 398 1466 c 1,22,-1
 628 1466 l 1,23,24
 681 1465 681 1465 672 1420 c 1,25,-1
 332 430 l 1,26,27
 318 386 318 386 272 386 c 2,28,-1
 162 386 l 1,29,30
 109 387 109 387 118 432 c 2,18,19
EndSplineSet
EndChar

StartChar: quotedbl
Encoding: 34 34 5
Width: 920
GlyphClass: 2
Flags: W
LayerCount: 2
Fore
SplineSet
832 1574 m 0,0,1
 832 1502 832 1502 813 1427 c 0,2,3
 779 1293 779 1293 670 1132 c 0,4,5
 665 1124 665 1124 656 1113 c 0,6,7
 603 1046 603 1046 560 1046 c 0,8,9
 512 1047 512 1047 510 1088 c 1,10,11
 510 1139 510 1139 534 1205 c 0,12,13
 564 1287 564 1287 570 1326 c 0,14,15
 590 1466 590 1466 590 1578 c 1,16,17
 592 1615 592 1615 640 1618 c 1,18,-1
 784 1618 l 1,19,20
 791 1619 791 1619 799 1619 c 0,21,22
 832 1616 832 1616 832 1574 c 0,0,1
532 1574 m 0,23,24
 532 1502 532 1502 513 1427 c 0,25,26
 479 1293 479 1293 370 1132 c 0,27,28
 365 1124 365 1124 356 1113 c 0,29,30
 303 1046 303 1046 260 1046 c 0,31,32
 212 1047 212 1047 210 1088 c 1,33,34
 210 1139 210 1139 234 1205 c 0,35,36
 264 1287 264 1287 270 1326 c 0,37,38
 290 1466 290 1466 290 1578 c 1,39,40
 292 1615 292 1615 340 1618 c 1,41,-1
 484 1618 l 1,42,43
 491 1619 491 1619 499 1619 c 0,44,45
 532 1616 532 1616 532 1574 c 0,23,24
EndSplineSet
EndChar

StartChar: numbersign
Encoding: 35 35 6
Width: 1614
GlyphClass: 2
Flags: W
LayerCount: 2
Fore
SplineSet
822 1122 m 1,0,-1
 1091 1122 l 1,1,-1
 1181 1474 l 2,2,3
 1193 1517 1193 1517 1241 1518 c 1,4,-1
 1407 1518 l 1,5,6
 1460 1517 1460 1517 1451 1472 c 1,7,-1
 1362 1122 l 1,8,-1
 1549 1122 l 1,9,10
 1608 1121 1608 1121 1595 1058 c 2,11,-1
 1569 940 l 2,12,13
 1566 928 1566 928 1558 916 c 0,14,15
 1535 884 1535 884 1501 884 c 2,16,-1
 1301 884 l 1,17,-1
 1238 638 l 1,18,-1
 1427 638 l 1,19,20
 1486 637 1486 637 1473 574 c 2,21,-1
 1447 456 l 2,22,23
 1444 444 1444 444 1436 432 c 0,24,25
 1413 400 1413 400 1379 400 c 2,26,-1
 1178 400 l 1,27,-1
 1087 44 l 2,28,29
 1075 1 1075 1 1027 0 c 1,30,-1
 873 0 l 2,31,32
 860 0 860 0 849 3 c 0,33,34
 810 16 810 16 821 64 c 1,35,-1
 907 400 l 1,36,-1
 638 400 l 1,37,-1
 547 44 l 2,38,39
 535 1 535 1 487 0 c 1,40,-1
 333 0 l 2,41,42
 320 0 320 0 309 3 c 0,43,44
 270 16 270 16 281 64 c 1,45,-1
 367 400 l 1,46,-1
 135 400 l 2,47,48
 127 400 127 400 120 401 c 0,49,50
 80 408 80 408 97 472 c 2,51,-1
 129 598 l 2,52,53
 132 613 132 613 136 623 c 0,54,55
 142 638 142 638 161 638 c 2,56,-1
 428 638 l 1,57,-1
 490 884 l 1,58,-1
 257 884 l 2,59,60
 249 884 249 884 242 885 c 0,61,62
 202 892 202 892 219 956 c 2,63,-1
 251 1082 l 2,64,65
 254 1097 254 1097 258 1107 c 0,66,67
 264 1122 264 1122 283 1122 c 2,68,-1
 551 1122 l 1,69,-1
 641 1474 l 2,70,71
 653 1517 653 1517 701 1518 c 1,72,-1
 867 1518 l 1,73,74
 920 1517 920 1517 911 1472 c 1,75,-1
 822 1122 l 1,0,-1
698 638 m 1,76,-1
 968 638 l 1,77,-1
 1030 884 l 1,78,-1
 761 884 l 1,79,-1
 698 638 l 1,76,-1
EndSplineSet
EndChar

StartChar: dollar
Encoding: 36 36 7
Width: 946
GlyphClass: 2
Flags: W
LayerCount: 2
Fore
SplineSet
124 -80 m 2,0,1
 112 -80 112 -80 102 -77 c 0,2,3
 63 -65 63 -65 74 -18 c 1,4,-1
 101 79 l 1,5,6
 -23 146 -23 146 -24 392 c 1,7,8
 -23 439 -23 439 18 474 c 1,9,-1
 164 556 l 2,10,11
 187 568 187 568 206 563 c 0,12,13
 232 556 232 556 232 528 c 0,14,15
 224 258 224 258 264 256 c 1,16,17
 297 261 297 261 337 311 c 1,18,19
 392 384 392 384 392 458 c 0,20,21
 392 464 392 464 392 473 c 0,22,23
 393 553 393 553 388 574 c 0,24,25
 373 631 373 631 292 642 c 0,26,27
 261 647 261 647 234 657 c 0,28,29
 120 699 120 699 120 808 c 0,30,31
 120 966 120 966 208 1124 c 0,32,33
 295 1279 295 1279 421 1346 c 1,34,-1
 458 1484 l 2,35,36
 470 1525 470 1525 516 1526 c 1,37,-1
 660 1526 l 1,38,39
 711 1525 711 1525 702 1482 c 1,40,-1
 672 1367 l 1,41,42
 844 1304 844 1304 806 1018 c 0,43,44
 805 1013 805 1013 804 1008 c 0,45,46
 798 987 798 987 762 958 c 1,47,-1
 596 904 l 1,48,49
 587 903 587 903 580 903 c 0,50,51
 548 904 548 904 552 946 c 1,52,53
 552 957 552 957 554 982 c 0,54,55
 556 1014 556 1014 556 1030 c 0,56,57
 559 1149 559 1149 508 1156 c 1,58,59
 490 1146 490 1146 464 1103 c 1,60,61
 412 1013 412 1013 412 932 c 0,62,63
 413 842 413 842 506 826 c 0,64,65
 563 816 563 816 596 796 c 0,66,67
 684 744 684 744 684 576 c 0,68,69
 684 418 684 418 579 269 c 0,70,71
 481 131 481 131 346 77 c 1,72,-1
 316 -38 l 1,73,74
 303 -79 303 -79 258 -80 c 1,75,-1
 124 -80 l 2,0,1
EndSplineSet
EndChar

StartChar: percent
Encoding: 37 37 8
Width: 1670
GlyphClass: 2
Flags: W
LayerCount: 2
Fore
SplineSet
348 986 m 0,0,1
 416 987 416 987 465 1097 c 0,2,3
 507 1192 507 1192 514 1296 c 1,4,5
 512 1366 512 1366 460 1372 c 1,6,7
 397 1367 397 1367 343 1242 c 1,8,9
 304 1142 304 1142 304 1064 c 0,10,11
 304 1037 304 1037 307 1022 c 0,12,13
 313 986 313 986 348 986 c 0,0,1
102 1082 m 0,14,15
 102 1102 102 1102 104 1124 c 0,16,17
 118 1273 118 1273 207 1388 c 0,18,19
 317 1530 317 1530 484 1530 c 0,20,21
 500 1530 500 1530 517 1528 c 0,22,23
 623 1517 623 1517 664 1448 c 0,24,25
 666 1445 666 1445 668 1441 c 0,26,27
 702 1381 702 1381 702 1278 c 0,28,29
 702 1254 702 1254 698 1225 c 0,30,31
 679 1089 679 1089 598 976 c 0,32,33
 492 828 492 828 344 828 c 0,34,35
 238 828 238 828 178 884 c 0,36,37
 103 955 103 955 102 1082 c 0,14,15
1104 140 m 0,38,39
 1172 141 1172 141 1221 251 c 0,40,41
 1263 346 1263 346 1270 450 c 1,42,43
 1268 520 1268 520 1216 526 c 1,44,45
 1153 521 1153 521 1099 396 c 1,46,47
 1060 296 1060 296 1060 218 c 0,48,49
 1060 191 1060 191 1063 176 c 0,50,51
 1069 140 1069 140 1104 140 c 0,38,39
858 236 m 0,52,53
 858 256 858 256 860 278 c 0,54,55
 874 427 874 427 963 542 c 0,56,57
 1073 684 1073 684 1240 684 c 0,58,59
 1256 684 1256 684 1273 682 c 0,60,61
 1379 671 1379 671 1420 602 c 0,62,63
 1422 599 1422 599 1424 595 c 0,64,65
 1458 535 1458 535 1458 432 c 0,66,67
 1458 408 1458 408 1454 379 c 0,68,69
 1434 243 1434 243 1354 130 c 0,70,71
 1248 -18 1248 -18 1100 -18 c 0,72,73
 994 -18 994 -18 934 38 c 0,74,75
 859 109 859 109 858 236 c 0,52,53
136 -54 m 2,76,77
 136 -54 136 -54 -56 -52 c 0,78,79
 -77 -51 -77 -51 -87 -30 c 1,80,81
 -99 -1 -99 -1 -78 20 c 2,82,-1
 1378 1482 l 2,83,84
 1423 1527 1423 1527 1474 1528 c 1,85,-1
 1668 1528 l 1,86,87
 1689 1527 1689 1527 1698 1506 c 0,88,89
 1709 1477 1709 1477 1688 1456 c 2,90,-1
 220 -18 l 2,91,92
 209 -29 209 -29 199 -37 c 0,93,94
 176 -54 176 -54 136 -54 c 2,76,77
EndSplineSet
EndChar

StartChar: ampersand
Encoding: 38 38 9
Width: 1238
GlyphClass: 2
Flags: W
LayerCount: 2
Fore
SplineSet
814 864 m 2,0,1
 814 864 814 864 1182 864 c 1,2,3
 1213 861 1213 861 1200 820 c 2,4,-1
 1172 728 l 2,5,6
 1169 718 1169 718 1168 714 c 0,7,8
 1154 672 1154 672 1130 672 c 2,9,-1
 1033 672 l 1,10,11
 1026 649 1026 649 1018 623 c 0,12,13
 968 473 968 473 898 360 c 0,14,15
 875 322 875 322 844 278 c 1,16,17
 970 95 970 95 1070 -24 c 0,18,19
 1076 -32 1076 -32 1079 -43 c 0,20,21
 1086 -76 1086 -76 1044 -88 c 0,22,23
 1035 -91 1035 -91 1023 -94 c 0,24,25
 863 -134 863 -134 766 -88 c 1,26,27
 707 -25 707 -25 640 65 c 1,28,29
 512 -24 512 -24 367 -24 c 0,30,31
 335 -24 335 -24 302 -20 c 0,32,33
 192 -4 192 -4 122 56 c 0,34,35
 31 135 31 135 31 265 c 0,36,37
 31 295 31 295 36 328 c 0,38,39
 47 411 47 411 88 480 c 0,40,41
 149 582 149 582 297 670 c 1,42,43
 288 694 288 694 281 714 c 0,44,45
 235 846 235 846 250 952 c 0,46,47
 255 987 255 987 267 1024 c 0,48,49
 314 1165 314 1165 434 1257 c 0,50,51
 556 1350 556 1350 699 1350 c 0,52,53
 730 1350 730 1350 762 1346 c 0,54,55
 763 1346 763 1346 764 1346 c 0,56,57
 791 1342 791 1342 791 1313 c 0,58,59
 791 1307 791 1307 790 1300 c 1,60,-1
 764 1220 l 2,61,62
 753 1189 753 1189 716 1180 c 1,63,64
 666 1179 666 1179 610 1133 c 0,65,66
 524 1062 524 1062 524 958 c 0,67,68
 524 865 524 865 590 700 c 0,69,70
 617 632 617 632 718 470 c 1,71,72
 774 568 774 568 803 672 c 1,73,-1
 776 672 l 2,74,75
 745 672 745 672 742 687 c 0,76,77
 742 690 742 690 752 728 c 2,78,-1
 784 840 l 2,79,80
 785 844 785 844 787 849 c 0,81,82
 794 864 794 864 814 864 c 2,0,1
390 465 m 1,83,84
 307 393 307 393 306 302 c 0,85,86
 306 284 306 284 310 266 c 0,87,88
 328 190 328 190 404 190 c 0,89,90
 454 190 454 190 521 239 c 1,91,92
 460 336 460 336 390 465 c 1,83,84
EndSplineSet
EndChar

StartChar: quotesingle
Encoding: 39 39 10
Width: 386
GlyphClass: 2
Flags: W
LayerCount: 2
Fore
SplineSet
532 1574 m 0,0,1
 532 1502 532 1502 513 1427 c 0,2,3
 479 1293 479 1293 370 1132 c 0,4,5
 365 1124 365 1124 356 1113 c 0,6,7
 303 1046 303 1046 260 1046 c 0,8,9
 212 1047 212 1047 210 1088 c 1,10,11
 210 1139 210 1139 234 1205 c 0,12,13
 264 1287 264 1287 270 1326 c 0,14,15
 290 1466 290 1466 290 1578 c 1,16,17
 292 1615 292 1615 340 1618 c 1,18,-1
 484 1618 l 1,19,20
 491 1619 491 1619 499 1619 c 0,21,22
 532 1616 532 1616 532 1574 c 0,0,1
EndSplineSet
EndChar

StartChar: parenleft
Encoding: 40 40 11
Width: 826
GlyphClass: 2
Flags: W
LayerCount: 2
Fore
SplineSet
162 360 m 0,0,1
 162 696 162 696 327 1036 c 0,2,3
 487 1365 487 1365 758 1622 c 0,4,5
 800 1661 800 1661 852 1658 c 1,6,-1
 992 1642 l 1,7,8
 1009 1639 1009 1639 1015 1619 c 1,9,10
 1021 1593 1021 1593 1004 1578 c 0,11,12
 784 1376 784 1376 632 1119 c 0,13,14
 410 743 410 743 410 380 c 0,15,16
 410 276 410 276 423 174 c 0,17,18
 456 -95 456 -95 550 -232 c 0,19,20
 553 -237 553 -237 555 -243 c 0,21,22
 562 -270 562 -270 524 -292 c 1,23,-1
 356 -334 l 1,24,25
 321 -353 321 -353 300 -314 c 0,26,27
 277 -272 277 -272 257 -226 c 0,28,29
 162 1 162 1 162 360 c 0,0,1
EndSplineSet
EndChar

StartChar: parenright
Encoding: 41 41 12
Width: 898
GlyphClass: 2
Flags: W
LayerCount: 2
Fore
SplineSet
708 952 m 0,0,1
 708 615 708 615 544 275 c 0,2,3
 385 -54 385 -54 116 -310 c 0,4,5
 74 -349 74 -349 22 -346 c 1,6,-1
 -118 -332 l 1,7,8
 -135 -329 -135 -329 -141 -309 c 1,9,10
 -147 -283 -147 -283 -130 -268 c 0,11,12
 93 -65 93 -65 246 199 c 0,13,14
 460 571 460 571 460 932 c 0,15,16
 460 1036 460 1036 447 1138 c 0,17,18
 414 1407 414 1407 320 1544 c 0,19,20
 317 1549 317 1549 315 1555 c 0,21,22
 308 1582 308 1582 346 1604 c 1,23,-1
 514 1646 l 1,24,25
 549 1665 549 1665 570 1626 c 0,26,27
 593 1584 593 1584 613 1538 c 0,28,29
 708 1311 708 1311 708 952 c 0,0,1
EndSplineSet
EndChar

StartChar: asterisk
Encoding: 42 42 13
Width: 870
GlyphClass: 2
Flags: W
LayerCount: 2
Fore
SplineSet
354 1064 m 1,0,-1
 140 1080 l 2,1,2
 128 1081 128 1081 118 1089 c 0,3,4
 94 1110 94 1110 106 1150 c 2,5,-1
 138 1264 l 2,6,7
 141 1275 141 1275 149 1286 c 0,8,9
 171 1315 171 1315 198 1302 c 2,10,-1
 418 1204 l 1,11,-1
 428 1434 l 2,12,13
 429 1439 429 1439 431 1444 c 0,14,15
 446 1484 446 1484 502 1484 c 2,16,-1
 608 1484 l 2,17,18
 623 1484 623 1484 637 1477 c 0,19,20
 676 1458 676 1458 658 1418 c 2,21,-1
 562 1202 l 1,22,-1
 812 1296 l 2,23,24
 832 1304 832 1304 850 1296 c 0,25,26
 880 1282 880 1282 880 1240 c 2,27,-1
 880 1156 l 1,28,29
 879 1101 879 1101 830 1092 c 1,30,-1
 564 1060 l 1,31,-1
 710 852 l 2,32,33
 715 845 715 845 718 835 c 0,34,35
 726 801 726 801 692 780 c 2,36,-1
 590 718 l 2,37,38
 585 715 585 715 578 712 c 0,39,40
 532 694 532 694 518 742 c 2,41,-1
 450 976 l 1,42,-1
 284 752 l 2,43,44
 272 736 272 736 256 728 c 0,45,46
 226 715 226 715 204 742 c 1,47,-1
 134 820 l 1,48,49
 98 864 98 864 140 898 c 1,50,-1
 354 1064 l 1,0,-1
EndSplineSet
EndChar

StartChar: plus
Encoding: 43 43 14
Width: 944
GlyphClass: 2
Flags: W
LayerCount: 2
Fore
SplineSet
857 524 m 2,0,1
 857 524 857 524 604 524 c 1,2,-1
 541 282 l 2,3,4
 529 239 529 239 481 238 c 1,5,-1
 331 238 l 1,6,7
 278 239 278 239 287 284 c 1,8,-1
 350 524 l 1,9,-1
 127 524 l 2,10,11
 119 524 119 524 112 525 c 0,12,13
 72 532 72 532 89 596 c 1,14,-1
 115 704 l 2,15,16
 118 717 118 717 123 728 c 0,17,18
 138 762 138 762 181 762 c 2,19,-1
 412 762 l 1,20,-1
 467 974 l 2,21,22
 479 1017 479 1017 527 1018 c 1,23,-1
 677 1018 l 1,24,25
 730 1017 730 1017 721 972 c 1,26,-1
 666 762 l 1,27,-1
 905 762 l 1,28,29
 964 761 964 761 951 698 c 2,30,-1
 925 580 l 2,31,32
 922 568 922 568 914 556 c 0,33,34
 892 524 892 524 857 524 c 2,0,1
EndSplineSet
EndChar

StartChar: comma
Encoding: 44 44 15
Width: 454
GlyphClass: 2
Flags: W
LayerCount: 2
Fore
SplineSet
282 214 m 1,0,1
 282 113 282 113 235 -7 c 0,2,3
 178 -150 178 -150 84 -268 c 1,4,-1
 66 -290 l 2,5,6
 48 -312 48 -312 20.5 -333 c 128,-1,7
 -7 -354 -7 -354 -26 -354 c 0,8,9
 -66 -352 -66 -352 -70 -312 c 1,10,11
 -70 -260 -70 -260 -50 -179 c 0,12,13
 -20 -57 -20 -57 -16 -32 c 128,-1,14
 -12 -7 -12 -7 -10 27 c 0,15,16
 0 154 0 154 4 180 c 1,17,18
 5 216 5 216 54 218 c 1,19,-1
 234 256 l 1,20,21
 280 255 280 255 282 214 c 1,0,1
EndSplineSet
EndChar

StartChar: hyphen
Encoding: 45 45 16
Width: 936
GlyphClass: 2
Flags: W
LayerCount: 2
Fore
SplineSet
189 762 m 2,0,1
 189 762 189 762 811 762 c 1,2,3
 870 761 870 761 857 698 c 2,4,-1
 831 580 l 2,5,6
 828 568 828 568 820 556 c 0,7,8
 797 524 797 524 763 524 c 2,9,-1
 163 524 l 2,10,11
 155 524 155 524 148 525 c 0,12,13
 108 532 108 532 125 596 c 2,14,-1
 157 722 l 2,15,16
 160 737 160 737 164 747 c 0,17,18
 170 762 170 762 189 762 c 2,0,1
EndSplineSet
EndChar

StartChar: period
Encoding: 46 46 17
Width: 466
GlyphClass: 2
Flags: W
LayerCount: 2
Fore
SplineSet
60 96 m 0,0,1
 60 136 60 136 83 170 c 0,2,3
 123 228 123 228 200 228 c 2,4,-1
 226 228 l 2,5,6
 265 228 265 228 302 198 c 0,7,8
 354 155 354 155 354 96 c 0,9,10
 354 54 354 54 329 21 c 0,11,12
 287 -36 287 -36 210 -36 c 2,13,-1
 186 -36 l 2,14,15
 146 -36 146 -36 111 -9 c 0,16,17
 60 32 60 32 60 96 c 0,0,1
EndSplineSet
EndChar

StartChar: slash
Encoding: 47 47 18
Width: 940
GlyphClass: 2
Flags: W
LayerCount: 2
Fore
SplineSet
1044 1520 m 2,0,1
 1062 1520 1062 1520 1076 1509 c 0,2,3
 1100 1488 1100 1488 1084 1458 c 2,4,-1
 334 44 l 2,5,6
 312 1 312 1 274 0 c 1,7,-1
 104 0 l 2,8,9
 86 0 86 0 72 11 c 0,10,11
 48 32 48 32 64 62 c 2,12,-1
 814 1476 l 2,13,14
 836 1519 836 1519 874 1520 c 1,15,-1
 1044 1520 l 2,0,1
EndSplineSet
EndChar

StartChar: zero
Encoding: 48 48 19
Width: 878
GlyphClass: 2
Flags: W
LayerCount: 2
Fore
SplineSet
330 712 m 0,0,1
 282 537 282 537 282 401 c 0,2,3
 282 238 282 238 347 238 c 0,4,5
 373 238 373 238 406 265 c 0,6,7
 494 338 494 338 576 646 c 1,8,9
 602 751 602 751 619 877 c 0,10,11
 625 923 625 923 625 975 c 0,12,13
 625 1076 625 1076 595 1100 c 0,14,15
 577 1115 577 1115 558 1115 c 0,16,17
 440 1115 440 1115 330 712 c 0,0,1
60 797 m 0,18,19
 140 1093 140 1093 297 1254 c 1,20,21
 427 1389 427 1389 576 1389 c 0,22,23
 678 1389 678 1389 758 1336 c 1,24,25
 899 1240 899 1240 898 988 c 0,26,27
 898 818 898 818 834 576 c 0,28,29
 773 347 773 347 678 199 c 0,30,31
 538 -17 538 -17 351 -17 c 0,32,33
 309 -17 309 -17 264 -6 c 0,34,35
 101 35 101 35 39 217 c 0,36,37
 7 314 7 314 7 437 c 0,38,39
 7 599 7 599 60 797 c 0,18,19
EndSplineSet
EndChar

StartChar: one
Encoding: 49 49 20
Width: 628
GlyphClass: 2
Flags: W
LayerCount: 2
Fore
SplineSet
642 1355 m 1,0,-1
 647 1360 l 1,1,2
 660 1361 660 1361 672 1352 c 0,3,4
 696 1333 696 1333 687 1298 c 2,5,-1
 363 44 l 2,6,7
 351 1 351 1 303 0 c 1,8,-1
 133 0 l 2,9,10
 121 0 121 0 110 6 c 0,11,12
 83 23 83 23 93 62 c 2,13,-1
 328 970 l 1,14,-1
 297 934 l 2,15,16
 259 890 259 890 215 890 c 2,17,-1
 89 890 l 2,18,19
 62 890 62 890 48 916 c 0,20,21
 27 958 27 958 81 1008 c 2,22,-1
 403 1307 l 2,23,24
 460 1360 460 1360 497 1360 c 2,25,-1
 645 1360 l 1,26,-1
 642 1355 l 1,0,-1
EndSplineSet
EndChar

StartChar: two
Encoding: 50 50 21
Width: 842
GlyphClass: 2
Flags: W
LayerCount: 2
Fore
SplineSet
63 0 m 2,0,1
 12 0 12 0 -12 47 c 0,2,3
 -49 117 -49 117 26 201 c 2,4,-1
 553 796 l 2,5,6
 581 828 581 828 605 875 c 0,7,8
 665 995 665 995 665 1086 c 0,9,10
 665 1179 665 1179 585 1180 c 0,11,12
 544 1180 544 1180 505 1132 c 0,13,14
 453 1066 453 1066 451 966 c 0,15,16
 450 924 450 924 397 916 c 2,17,-1
 217 888 l 2,18,19
 210 887 210 887 202 887 c 0,20,21
 171 890 171 890 171 940 c 0,22,23
 171 968 171 968 175 998 c 0,24,25
 196 1155 196 1155 316 1262 c 0,26,27
 445 1378 445 1378 623 1378 c 0,28,29
 758 1378 758 1378 842 1300 c 0,30,31
 931 1217 931 1217 931 1074 c 0,32,33
 931 862 931 862 763 684 c 2,34,-1
 341 237 l 1,35,-1
 709 252 l 2,36,37
 768 254 768 254 755 188 c 1,38,-1
 723 56 l 2,39,40
 720 44 720 44 712 32 c 0,41,42
 689 0 689 0 655 0 c 2,43,-1
 63 0 l 2,0,1
EndSplineSet
EndChar

StartChar: three
Encoding: 51 51 22
Width: 864
GlyphClass: 2
Flags: W
LayerCount: 2
Fore
SplineSet
678 706 m 1,0,1
 680 705 680 705 682 703 c 0,2,3
 762 648 762 648 762 460 c 0,4,5
 762 417 762 417 754 373 c 0,6,7
 723 212 723 212 601 98 c 0,8,9
 468 -25 468 -25 296 -28 c 1,10,11
 196 -28 196 -28 128 16 c 0,12,13
 4 98 4 98 4 310 c 1,14,15
 9 354 9 354 44 380 c 1,16,-1
 224 464 l 2,17,18
 244 473 244 473 260 470 c 0,19,20
 296 462 296 462 286 438 c 0,21,22
 285 435 285 435 282 388 c 1,23,24
 278 343 278 343 278 309 c 0,25,26
 278 168 278 168 340 168 c 0,27,28
 377 168 377 168 407 209 c 0,29,30
 431 242 431 242 452 312 c 0,31,32
 476 390 476 390 476 447 c 0,33,34
 476 568 476 568 358 568 c 1,35,36
 305 570 305 570 304 618 c 1,37,-1
 318 734 l 2,38,39
 324 782 324 782 378 784 c 1,40,41
 434 783 434 783 483 813 c 0,42,43
 544 849 544 849 579 942 c 0,44,45
 590 970 590 970 590 1032 c 0,46,47
 590 1070 590 1070 580 1106 c 0,48,49
 558 1182 558 1182 520 1182 c 0,50,51
 484 1182 484 1182 460 1139 c 0,52,53
 416 1061 416 1061 416 966 c 0,54,55
 416 949 416 949 403 936 c 1,56,57
 384 919 384 919 362 916 c 2,58,-1
 174 888 l 2,59,60
 167 887 167 887 159 887 c 0,61,62
 128 890 128 890 128 940 c 0,63,64
 128 957 128 957 129 976 c 0,65,66
 142 1142 142 1142 255 1255 c 0,67,68
 378 1378 378 1378 560 1378 c 0,69,70
 668 1378 668 1378 740 1333 c 0,71,72
 866 1253 866 1253 866 1056 c 0,73,74
 866 991 866 991 843 925 c 0,75,76
 795 791 795 791 678 706 c 1,0,1
EndSplineSet
EndChar

StartChar: four
Encoding: 52 52 23
Width: 942
GlyphClass: 2
Flags: W
LayerCount: 2
Fore
SplineSet
845 294 m 2,0,1
 845 294 845 294 754 294 c 1,2,-1
 691 44 l 2,3,4
 680 2 680 2 631 0 c 1,5,-1
 461 0 l 2,6,7
 449 0 449 0 438 6 c 0,8,9
 412 23 412 23 421 62 c 2,10,-1
 479 294 l 1,11,-1
 91 294 l 2,12,13
 5 294 5 294 -14 357 c 1,14,15
 -31 419 -31 419 23 498 c 2,16,-1
 587 1334 l 2,17,18
 596 1348 596 1348 608 1353 c 0,19,20
 623 1360 623 1360 647 1360 c 2,21,-1
 843 1360 l 2,22,23
 867 1360 867 1360 879 1346 c 1,24,25
 897 1322 897 1322 867 1286 c 1,26,-1
 322 512 l 1,27,-1
 534 513 l 1,28,-1
 591 738 l 2,29,30
 602 780 602 780 651 782 c 1,31,-1
 821 782 l 2,32,33
 833 782 833 782 844 776 c 0,34,35
 870 759 870 759 861 720 c 2,36,-1
 809 514 l 1,37,-1
 907 514 l 1,38,39
 966 516 966 516 953 454 c 1,40,-1
 913 352 l 2,41,42
 912 347 912 347 910 342 c 0,43,44
 891 294 891 294 845 294 c 2,0,1
EndSplineSet
EndChar

StartChar: five
Encoding: 53 53 24
Width: 858
GlyphClass: 2
Flags: W
LayerCount: 2
Fore
SplineSet
420 899 m 1,0,1
 478 916 478 916 538 916 c 0,2,3
 630 916 630 916 688 875 c 0,4,5
 779 809 779 809 779 649 c 0,6,7
 779 583 779 583 764 502 c 1,8,9
 709 233 709 233 569 99 c 1,10,11
 441 -22 441 -22 268 -23 c 0,12,13
 160 -23 160 -23 92 17 c 0,14,15
 0 72 0 72 0 196 c 0,16,17
 0 302 0 302 80 394 c 0,18,19
 81 395 81 395 83 397 c 0,20,21
 100 416 100 416 134 412 c 1,22,-1
 254 388 l 2,23,24
 261 387 261 387 267 386 c 0,25,26
 304 377 304 377 288 338 c 1,27,28
 267 278 267 278 266 229 c 1,29,30
 266 163 266 163 299 163 c 0,31,32
 334 163 334 163 391 240 c 0,33,34
 468 344 468 344 498 448 c 0,35,36
 532 562 532 562 532 643 c 1,37,38
 531 722 531 722 494 722 c 0,39,40
 462 722 462 722 416 685 c 0,41,42
 351 634 351 634 308 560 c 1,43,44
 294 538 294 538 266 544 c 1,45,-1
 124 600 l 2,46,47
 107 607 107 607 99 621 c 1,48,49
 94 632 94 632 102 665 c 2,50,-1
 266 1318 l 2,51,52
 276 1358 276 1358 326 1360 c 1,53,-1
 924 1360 l 2,54,55
 931 1360 931 1360 939 1359 c 0,56,57
 979 1352 979 1352 962 1288 c 2,58,-1
 930 1160 l 2,59,60
 925 1140 925 1140 921 1133 c 0,61,62
 914 1120 914 1120 890 1120 c 2,63,-1
 477 1129 l 1,64,-1
 420 899 l 1,0,1
EndSplineSet
EndChar

StartChar: six
Encoding: 54 54 25
Width: 924
GlyphClass: 2
Flags: W
LayerCount: 2
Fore
SplineSet
499 934 m 1,0,1
 576 934 576 934 630 930 c 0,2,3
 662 927 662 927 691 919 c 0,4,5
 878 868 878 868 878 640 c 0,6,7
 878 578 878 578 863 505 c 0,8,9
 822 304 822 304 706 157 c 0,10,11
 557 -32 557 -32 352 -32 c 0,12,13
 293 -32 293 -32 242 -13 c 0,14,15
 110 36 110 36 62 190 c 0,16,17
 38 267 38 267 38 360 c 0,18,19
 38 539 38 539 128 774 c 0,20,21
 165 870 165 870 219 958 c 0,22,23
 347 1166 347 1166 540 1287 c 0,24,25
 676 1372 676 1372 770 1374 c 1,26,-1
 976 1352 l 1,27,28
 982 1350 982 1350 988 1346 c 0,29,30
 1010 1328 1010 1328 1009 1290 c 0,31,32
 1007 1244 1007 1244 966 1238 c 0,33,34
 941 1234 941 1234 915 1228 c 0,35,36
 657 1168 657 1168 499 934 c 1,0,1
397 737 m 1,37,38
 388 716 388 716 365 643 c 0,39,40
 300 438 300 438 299 309 c 0,41,42
 299 261 299 261 308 224 c 0,43,44
 324 156 324 156 364 156 c 1,45,46
 450 164 450 164 518 342 c 0,47,48
 549 424 549 424 566 508 c 0,49,50
 577 560 577 560 577 628 c 0,51,52
 577 695 577 695 568 718 c 0,53,54
 552 760 552 760 494 760 c 0,55,56
 445 760 445 760 397 737 c 1,37,38
EndSplineSet
EndChar

StartChar: seven
Encoding: 55 55 26
Width: 906
GlyphClass: 2
Flags: W
LayerCount: 2
Fore
SplineSet
984 1251 m 1,0,-1
 985 1250 l 1,1,-1
 383 42 l 2,2,3
 360 -2 360 -2 307 2 c 1,4,-1
 145 8 l 2,5,6
 121 9 121 9 107 20 c 0,7,8
 80 42 80 42 101 82 c 1,9,-1
 681 1119 l 1,10,-1
 181 1114 l 2,11,12
 173 1114 173 1114 166 1115 c 0,13,14
 126 1122 126 1122 143 1186 c 2,15,-1
 179 1320 l 2,16,17
 183 1338 183 1338 188 1347 c 0,18,19
 195 1360 195 1360 219 1360 c 2,20,-1
 851 1360 l 1,21,-1
 933 1360 l 1,22,23
 959 1359 959 1359 979 1339 c 0,24,25
 1013 1303 1013 1303 985 1252 c 1,26,-1
 984 1251 l 1,0,-1
EndSplineSet
EndChar

StartChar: eight
Encoding: 56 56 27
Width: 908
GlyphClass: 2
Flags: W
LayerCount: 2
Fore
SplineSet
516 836 m 1,0,1
 555 848 555 848 594 881 c 0,2,3
 657 936 657 936 664 998 c 0,4,5
 668 1034 668 1034 667 1047 c 0,6,7
 658 1152 658 1152 566 1153 c 0,8,9
 530 1153 530 1153 500 1127 c 0,10,11
 442 1078 442 1078 442 980 c 1,12,13
 446 893 446 893 516 836 c 1,0,1
476 569 m 1,14,15
 431 539 431 539 391 496 c 0,16,17
 306 404 306 404 306 328 c 0,18,19
 306 192 306 192 390 192 c 0,20,21
 444 192 444 192 489 258 c 1,22,23
 538 335 538 335 538 440 c 0,24,25
 538 528 538 528 476 569 c 1,14,15
265 669 m 1,26,27
 243 690 243 690 224 718 c 0,28,29
 160 813 160 813 160 928 c 0,30,31
 160 963 160 963 167 1001 c 0,32,33
 194 1150 194 1150 304 1260 c 0,34,35
 435 1390 435 1390 612 1390 c 0,36,37
 734 1390 734 1390 819 1325 c 0,38,39
 934 1238 934 1238 934 1078 c 0,40,41
 934 943 934 943 837 825 c 0,42,43
 805 787 805 787 727 716 c 1,44,45
 730 714 730 714 734 711 c 0,46,47
 834 629 834 629 834 446 c 0,48,49
 834 404 834 404 823 358 c 0,50,51
 789 214 789 214 673 106 c 0,52,53
 532 -26 532 -26 348 -26 c 0,54,55
 235 -26 235 -26 157 25 c 0,56,57
 36 105 36 105 36 280 c 0,58,59
 36 380 36 380 80 466 c 0,60,61
 131 566 131 566 265 669 c 1,26,27
EndSplineSet
EndChar

StartChar: nine
Encoding: 57 57 28
Width: 938
GlyphClass: 2
Flags: W
LayerCount: 2
Fore
SplineSet
529 475 m 1,0,1
 465 460 465 460 388 460 c 0,2,3
 268 461 268 461 196 564 c 0,4,5
 132 657 132 657 132 782 c 0,6,7
 132 837 132 837 143 896 c 0,8,9
 177 1085 177 1085 293 1220 c 0,10,11
 432 1382 432 1382 624 1382 c 0,12,13
 657 1382 657 1382 689 1375 c 0,14,15
 828 1345 828 1345 885 1199 c 0,16,17
 919 1112 919 1112 919 996 c 0,18,19
 919 801 919 801 822 526 c 0,20,21
 742 297 742 297 624 156 c 0,22,23
 467 -31 467 -31 267 -32 c 1,24,25
 221 -31 221 -31 192 -26 c 0,26,27
 12 7 12 7 12 258 c 0,28,29
 12 309 12 309 52 328 c 2,30,-1
 232 412 l 2,31,32
 252 421 252 421 268 418 c 0,33,34
 295 413 295 413 294 386 c 0,35,36
 291 309 291 309 288 270 c 0,37,38
 281 176 281 176 317 176 c 0,39,40
 346 176 346 176 407 245 c 0,41,42
 482 331 482 331 529 475 c 1,0,1
584 660 m 1,43,44
 639 874 639 874 652 1006 c 0,45,46
 656 1047 656 1047 656 1078 c 0,47,48
 656 1188 656 1188 608 1188 c 0,49,50
 542 1187 542 1187 473 1056 c 1,51,52
 408 929 408 929 408 796 c 0,53,54
 408 711 408 711 438 672 c 1,55,56
 466 638 466 638 512 638 c 0,57,58
 550 638 550 638 584 660 c 1,43,44
EndSplineSet
EndChar

StartChar: colon
Encoding: 58 58 29
Width: 732
GlyphClass: 2
Flags: W
LayerCount: 2
Fore
SplineSet
260 956 m 0,0,1
 260 996 260 996 283 1030 c 0,2,3
 323 1088 323 1088 400 1088 c 2,4,-1
 426 1088 l 2,5,6
 465 1088 465 1088 502 1058 c 0,7,8
 554 1015 554 1015 554 956 c 0,9,10
 554 915 554 915 529 881 c 0,11,12
 487 824 487 824 410 824 c 2,13,-1
 386 824 l 2,14,15
 346 824 346 824 311 851 c 0,16,17
 260 892 260 892 260 956 c 0,0,1
60 96 m 0,18,19
 60 136 60 136 83 170 c 0,20,21
 123 228 123 228 200 228 c 2,22,-1
 226 228 l 2,23,24
 265 228 265 228 302 198 c 0,25,26
 354 155 354 155 354 96 c 0,27,28
 354 54 354 54 329 21 c 0,29,30
 287 -36 287 -36 210 -36 c 2,31,-1
 186 -36 l 2,32,33
 146 -36 146 -36 111 -9 c 0,34,35
 60 32 60 32 60 96 c 0,18,19
EndSplineSet
EndChar

StartChar: semicolon
Encoding: 59 59 30
Width: 540
GlyphClass: 2
Flags: W
LayerCount: 2
Fore
SplineSet
260 956 m 0,0,1
 260 996 260 996 283 1030 c 0,2,3
 323 1088 323 1088 400 1088 c 2,4,-1
 426 1088 l 2,5,6
 465 1088 465 1088 502 1058 c 0,7,8
 554 1015 554 1015 554 956 c 0,9,10
 554 915 554 915 529 881 c 0,11,12
 487 824 487 824 410 824 c 2,13,-1
 386 824 l 2,14,15
 346 824 346 824 311 851 c 0,16,17
 260 892 260 892 260 956 c 0,0,1
282 214 m 1,18,19
 282 113 282 113 235 -7 c 0,20,21
 178 -150 178 -150 84 -268 c 1,22,-1
 66 -290 l 2,23,24
 48 -312 48 -312 20.5 -333 c 128,-1,25
 -7 -354 -7 -354 -26 -354 c 0,26,27
 -66 -352 -66 -352 -70 -312 c 1,28,29
 -70 -260 -70 -260 -50 -179 c 0,30,31
 -20 -57 -20 -57 -16 -32 c 128,-1,32
 -12 -7 -12 -7 -10 27 c 0,33,34
 0 154 0 154 4 180 c 1,35,36
 5 216 5 216 54 218 c 1,37,-1
 234 256 l 1,38,39
 280 255 280 255 282 214 c 1,18,19
EndSplineSet
EndChar

StartChar: less
Encoding: 60 60 31
Width: 1004
GlyphClass: 2
Flags: W
LayerCount: 2
Fore
SplineSet
332 608 m 1,0,-1
 803 434 l 2,1,2
 810 432 810 432 817 427 c 0,3,4
 850 406 850 406 841 360 c 1,5,-1
 815 244 l 2,6,7
 812 229 812 229 807 218 c 0,8,9
 794 194 794 194 753 212 c 2,10,-1
 77 496 l 2,11,12
 69 500 69 500 61 505 c 0,13,14
 26 532 26 532 37 574 c 1,15,-1
 57 668 l 2,16,17
 59 677 59 677 63 686 c 0,18,19
 82 727 82 727 125 740 c 1,20,-1
 925 1014 l 2,21,22
 946 1021 946 1021 960 1018 c 0,23,24
 992 1011 992 1011 979 960 c 1,25,-1
 955 848 l 2,26,27
 953 840 953 840 949 831 c 0,28,29
 929 789 929 789 887 776 c 2,30,-1
 332 608 l 1,0,-1
EndSplineSet
EndChar

StartChar: equal
Encoding: 61 61 32
Width: 996
GlyphClass: 2
Flags: W
LayerCount: 2
Fore
SplineSet
821 336 m 2,0,1
 821 336 821 336 91 336 c 0,2,3
 83 336 83 336 76 337 c 0,4,5
 36 344 36 344 53 408 c 1,6,-1
 79 516 l 2,7,8
 82 529 82 529 87 540 c 0,9,10
 102 574 102 574 145 574 c 2,11,-1
 869 574 l 1,12,13
 928 573 928 573 915 510 c 2,14,-1
 889 392 l 2,15,16
 886 380 886 380 878 368 c 0,17,18
 856 336 856 336 821 336 c 2,0,1
921 738 m 2,19,-1
 191 738 l 2,20,21
 183 738 183 738 176 739 c 0,22,23
 136 746 136 746 153 810 c 1,24,-1
 179 918 l 2,25,26
 182 931 182 931 187 942 c 0,27,28
 202 976 202 976 245 976 c 2,29,-1
 969 976 l 1,30,31
 1028 975 1028 975 1015 912 c 2,32,-1
 989 794 l 2,33,34
 986 782 986 782 978 770 c 0,35,36
 956 738 956 738 921 738 c 2,19,-1
EndSplineSet
EndChar

StartChar: greater
Encoding: 62 62 33
Width: 1004
GlyphClass: 2
Flags: W
LayerCount: 2
Fore
SplineSet
688 622 m 1,0,-1
 217 796 l 2,1,2
 210 798 210 798 203 803 c 0,3,4
 170 824 170 824 179 870 c 1,5,-1
 205 984 l 2,6,7
 208 999 208 999 213 1010 c 0,8,9
 226 1034 226 1034 267 1016 c 2,10,-1
 943 732 l 2,11,12
 951 728 951 728 959 723 c 0,13,14
 994 696 994 696 983 654 c 1,15,-1
 963 560 l 2,16,17
 961 551 961 551 957 542 c 0,18,19
 938 501 938 501 895 488 c 1,20,-1
 95 214 l 2,21,22
 74 207 74 207 60 210 c 0,23,24
 28 217 28 217 41 268 c 1,25,-1
 65 382 l 2,26,27
 67 390 67 390 71 399 c 0,28,29
 91 441 91 441 133 454 c 2,30,-1
 688 622 l 1,0,-1
EndSplineSet
EndChar

StartChar: question
Encoding: 63 63 34
Width: 732
GlyphClass: 2
Flags: W
LayerCount: 2
Fore
SplineSet
314 360 m 0,0,1
 314 349 314 349 311 340 c 0,2,3
 302 315 302 315 254 320 c 2,4,-1
 162 330 l 2,5,6
 68 340 68 340 152 572 c 0,7,8
 167 614 167 614 182 639 c 0,9,10
 246 747 246 747 344 774 c 2,11,12
 344 774 344 774 397 789 c 0,13,14
 477 811 477 811 512 916 c 0,15,16
 520 938 520 938 528 983 c 0,17,18
 557 1145 557 1145 556 1216 c 0,19,20
 555 1238 555 1238 538 1244 c 1,21,22
 523 1240 523 1240 500 1222 c 0,23,24
 453 1183 453 1183 402 1132 c 0,25,26
 368 1099 368 1099 332 1122 c 1,27,-1
 232 1178 l 1,28,29
 224 1184 224 1184 219 1192 c 0,30,31
 205 1217 205 1217 220 1242 c 0,32,33
 261 1307 261 1307 354 1385 c 0,34,35
 443 1459 443 1459 492 1470 c 0,36,37
 500 1472 500 1472 507 1472 c 0,38,39
 557 1473 557 1473 657 1418 c 0,40,41
 744 1370 744 1370 762 1322 c 0,42,43
 786 1257 786 1257 786 1168 c 0,44,45
 786 1109 786 1109 775 1039 c 0,46,47
 750 881 750 881 694 756 c 0,48,49
 675 714 675 714 653 687 c 0,50,51
 584 605 584 605 488 572 c 2,52,53
 488 572 488 572 407 544 c 0,54,55
 388 538 388 538 354 522 c 1,56,57
 350 512 350 512 346 500 c 0,58,59
 314 404 314 404 314 360 c 0,0,1
8 96 m 0,60,61
 8 136 8 136 31 170 c 0,62,63
 71 228 71 228 148 228 c 2,64,-1
 174 228 l 2,65,66
 213 228 213 228 250 198 c 0,67,68
 302 155 302 155 302 96 c 0,69,70
 302 54 302 54 277 21 c 0,71,72
 235 -36 235 -36 158 -36 c 2,73,-1
 134 -36 l 2,74,75
 94 -36 94 -36 59 -9 c 0,76,77
 8 32 8 32 8 96 c 0,60,61
EndSplineSet
EndChar

StartChar: at
Encoding: 64 64 35
Width: 1888
GlyphClass: 2
Flags: W
LayerCount: 2
Fore
SplineSet
1117 941 m 1,0,1
 1117 941 1117 941 1120 956 c 0,2,3
 1121 960 1121 960 1123 968 c 0,4,5
 1134 1008 1134 1008 1170 1008 c 2,6,-1
 1284 1008 l 2,7,8
 1355 1008 1355 1008 1338 946 c 2,9,-1
 1174 338 l 2,10,11
 1166 308 1166 308 1168 284 c 0,12,13
 1173 240 1173 240 1214 240 c 0,14,15
 1250 240 1250 240 1288 258 c 0,16,17
 1432 330 1432 330 1492 615 c 0,18,19
 1510 703 1510 703 1511 780 c 1,20,21
 1511 934 1511 934 1436 1043 c 0,22,23
 1314 1220 1314 1220 1028 1220 c 0,24,25
 816 1220 816 1220 649 1077 c 0,26,27
 467 921 467 921 398 656 c 0,28,29
 367 535 367 535 366 409 c 1,30,31
 366 242 366 242 430 110 c 0,32,33
 558 -157 558 -157 904 -168 c 0,34,35
 931 -169 931 -169 952 -175 c 0,36,37
 1028 -196 1028 -196 964 -268 c 1,38,-1
 918 -318 l 2,39,40
 907 -330 907 -330 893 -339 c 0,41,42
 868 -354 868 -354 804 -354 c 0,43,44
 558 -354 558 -354 383 -216 c 0,45,46
 202 -72 202 -72 138 185 c 0,47,48
 109 302 109 302 109 420 c 0,49,50
 109 578 109 578 160 733 c 0,51,52
 267 1058 267 1058 518 1238 c 1,53,54
 746 1400 746 1400 1026 1400 c 0,55,56
 1153 1400 1153 1400 1262 1375 c 0,57,58
 1542 1311 1542 1311 1665 1099 c 0,59,60
 1745 961 1745 961 1744 783 c 0,61,62
 1744 670 1744 670 1712 542 c 0,63,64
 1644 271 1644 271 1466 122 c 0,65,66
 1337 14 1337 14 1206 14 c 0,67,68
 1160 14 1160 14 1125 22 c 0,69,70
 1031 42 1031 42 981 132 c 1,71,72
 970 117 970 117 957 102 c 0,73,74
 880 20 880 20 782 20 c 0,75,76
 754 20 754 20 723 30 c 0,77,78
 637 59 637 59 600 140 c 1,79,80
 559 237 559 237 559 342 c 0,81,82
 559 531 559 531 667 742 c 0,83,84
 743 890 743 890 822 950 c 1,85,86
 894 1000 894 1000 960 1000 c 0,87,88
 1032 1000 1032 1000 1117 941 c 1,0,1
1067 713 m 1,89,90
 1057 720 1057 720 1046 727 c 0,91,92
 1011 747 1011 747 984 747 c 0,93,94
 964 747 964 747 948 736 c 0,95,96
 910 707 910 707 860 607 c 0,97,98
 784 454 784 454 784 342 c 1,99,100
 786 259 786 259 830 254 c 1,101,102
 884 255 884 255 944 352 c 0,103,104
 1014 465 1014 465 1067 713 c 1,89,90
EndSplineSet
EndChar

StartChar: A
Encoding: 65 65 36
Width: 1023
GlyphClass: 2
Flags: W
LayerCount: 2
Fore
SplineSet
451 628 m 1,0,-1
 668 628 l 1,1,-1
 703 1142 l 1,2,-1
 451 628 l 1,0,-1
334 390 m 1,3,-1
 162 38 l 1,4,5
 139 -6 139 -6 86 -2 c 1,6,-1
 -70 4 l 2,7,8
 -71 4 -71 4 -74 4 c 0,9,10
 -138 9 -138 9 -114 78 c 1,11,-1
 554 1364 l 2,12,13
 561 1378 561 1378 571 1392 c 0,14,15
 610 1444 610 1444 664 1444 c 2,16,-1
 894 1446 l 2,17,18
 913 1447 913 1447 929 1440 c 0,19,20
 975 1419 975 1419 972 1350 c 2,21,-1
 898 44 l 1,22,23
 892 2 892 2 838 0 c 1,24,-1
 676 0 l 2,25,26
 669 0 669 0 662 1 c 0,27,28
 624 9 624 9 630 54 c 1,29,-1
 652 390 l 1,30,-1
 334 390 l 1,3,-1
EndSplineSet
PairPos2: "'kern' Horizontal Kerning lookup 1 per glyph data 0" eth dx=0 dy=0 dh=-18 dv=0 dx=0 dy=0 dh=0 dv=0
PairPos2: "'kern' Horizontal Kerning lookup 1 per glyph data 0" S dx=0 dy=0 dh=-60 dv=0 dx=0 dy=0 dh=0 dv=0
PairPos2: "'kern' Horizontal Kerning lookup 1 per glyph data 0" seven dx=0 dy=0 dh=-28 dv=0 dx=0 dy=0 dh=0 dv=0
EndChar

StartChar: B
Encoding: 66 66 37
Width: 1012
GlyphClass: 2
Flags: W
LayerCount: 2
Fore
SplineSet
460 849 m 1,0,-1
 497 846 l 1,1,2
 511 846 511 846 523 847 c 0,3,4
 675 860 675 860 715 1072 c 0,5,6
 721 1106 721 1106 720 1131 c 0,7,8
 716 1214 716 1214 623 1214 c 2,9,-1
 553 1214 l 1,10,-1
 460 849 l 1,0,-1
279 1214 m 1,11,-1
 227 1214 l 2,12,13
 209 1214 209 1214 193 1222 c 0,14,15
 159 1239 159 1239 167 1266 c 2,16,-1
 205 1408 l 2,17,18
 207 1416 207 1416 212 1424 c 0,19,20
 228 1448 228 1448 251 1448 c 2,21,-1
 387 1448 l 1,22,-1
 557 1448 l 1,23,-1
 645 1448 l 2,24,25
 777 1448 777 1448 868 1408 c 0,26,27
 1029 1336 1029 1336 1029 1158 c 0,28,29
 1029 1131 1029 1131 1026 1102 c 0,30,31
 1011 964 1011 964 949 864 c 0,32,33
 890 769 890 769 792 731 c 1,34,35
 810 718 810 718 825 701 c 0,36,37
 879 635 879 635 861 470 c 0,38,39
 854 411 854 411 830 344 c 0,40,41
 774 192 774 192 677 108 c 1,42,43
 582 23 582 23 449 6 c 0,44,45
 400 0 400 0 235 0 c 2,46,-1
 195 0 l 1,47,-1
 143 0 l 1,48,-1
 25 0 l 2,49,50
 12 0 12 0 2 6 c 0,51,52
 -24 23 -24 23 -15 62 c 2,53,-1
 279 1214 l 1,11,-1
307 248 m 1,54,-1
 353 250 l 2,55,56
 407 253 407 253 446 267 c 0,57,58
 547 303 547 303 591 438 c 1,59,60
 632 570 632 570 575 618 c 0,61,62
 544 644 544 644 408 644 c 1,63,-1
 307 248 l 1,54,-1
EndSplineSet
EndChar

StartChar: C
Encoding: 67 67 38
Width: 870
GlyphClass: 2
Flags: W
LayerCount: 2
Fore
SplineSet
929 1068 m 0,0,1
 932 1032 932 1032 888 1014 c 1,2,-1
 712 962 l 2,3,4
 698 958 698 958 680 964 c 1,5,6
 650 976 650 976 648 1008 c 0,7,8
 646 1031 646 1031 644 1050 c 0,9,10
 636 1121 636 1121 606 1196 c 1,11,12
 594 1200 594 1200 582 1200 c 0,13,14
 459 1199 459 1199 342 752 c 0,15,16
 289 549 289 549 289 404 c 0,17,18
 289 243 289 243 340 228 c 1,19,-1
 358 228 l 1,20,21
 376 241 376 241 393 258 c 0,22,23
 434 301 434 301 504 436 c 0,24,25
 518 463 518 463 529 475 c 0,26,27
 548 495 548 495 586 478 c 2,28,-1
 750 406 l 2,29,30
 759 402 759 402 765 393 c 0,31,32
 781 366 781 366 756 326 c 0,33,34
 650 156 650 156 564 82 c 0,35,36
 450 -16 450 -16 288 -16 c 0,37,38
 228 -16 228 -16 160 26 c 0,39,40
 89 71 89 71 48 158 c 1,41,42
 1 262 1 262 1 417 c 0,43,44
 1 587 1 587 58 816 c 0,45,46
 128 1095 128 1095 253 1257 c 0,47,48
 413 1464 413 1464 598 1464 c 0,49,50
 775 1464 775 1464 855 1334 c 0,51,52
 915 1237 915 1237 929 1068 c 0,0,1
EndSplineSet
EndChar

StartChar: D
Encoding: 68 68 39
Width: 924
GlyphClass: 2
Flags: W
LayerCount: 2
Fore
SplineSet
558 1201 m 1,0,1
 558 1201 558 1201 316 252 c 1,2,3
 334 250 334 250 386 250 c 0,4,5
 524 251 524 251 634 682 c 1,6,7
 681 873 681 873 678 1023 c 0,8,9
 674 1176 674 1176 618 1192 c 0,10,11
 597 1198 597 1198 558 1201 c 1,0,1
280 1191 m 1,12,13
 257 1188 257 1188 236 1184 c 0,14,15
 185 1174 185 1174 180 1174 c 0,16,17
 170 1174 170 1174 161 1178 c 0,18,19
 132 1190 132 1190 138 1230 c 2,20,-1
 158 1388 l 1,21,22
 164 1417 164 1417 204 1428 c 0,23,24
 206 1428 206 1428 210 1429 c 0,25,26
 366 1462 366 1462 544 1462 c 0,27,28
 677 1462 677 1462 770 1416 c 0,29,30
 966 1319 966 1319 966 1034 c 0,31,32
 966 855 966 855 902 610 c 0,33,34
 861 455 861 455 801 334 c 0,35,36
 630 -8 630 -8 338 -8 c 0,37,38
 332 -8 332 -8 324 -8 c 0,39,40
 129 -8 129 -8 54 6 c 0,41,42
 41 9 41 9 31 13 c 0,43,44
 -16 33 -16 33 2 104 c 2,45,-1
 280 1191 l 1,12,13
EndSplineSet
EndChar

StartChar: E
Encoding: 69 69 40
Width: 912
GlyphClass: 2
Flags: W
LayerCount: 2
Fore
SplineSet
475 904 m 1,0,-1
 816 904 l 1,1,2
 871 903 871 903 858 840 c 2,3,-1
 834 722 l 2,4,5
 831 710 831 710 824 698 c 1,6,7
 802 666 802 666 770 666 c 2,8,-1
 415 666 l 1,9,-1
 305 238 l 1,10,-1
 688 238 l 1,11,12
 747 237 747 237 734 174 c 2,13,-1
 708 56 l 2,14,15
 705 44 705 44 697 32 c 0,16,17
 674 0 674 0 640 0 c 2,18,-1
 26 0 l 2,19,20
 13 0 13 0 2 6 c 0,21,22
 -24 23 -24 23 -14 62 c 2,23,-1
 279 1210 l 1,24,-1
 208 1210 l 2,25,26
 200 1210 200 1210 193 1211 c 0,27,28
 153 1218 153 1218 170 1282 c 2,29,-1
 202 1408 l 2,30,31
 206 1426 206 1426 211.5 1437 c 128,-1,32
 217 1448 217 1448 242 1448 c 2,33,-1
 984 1448 l 1,34,35
 1043 1447 1043 1447 1030 1384 c 2,36,-1
 1004 1266 l 2,37,38
 1001 1254 1001 1254 993 1242 c 0,39,40
 970 1210 970 1210 936 1210 c 2,41,-1
 553 1210 l 1,42,-1
 475 904 l 1,0,-1
EndSplineSet
EndChar

StartChar: F
Encoding: 70 70 41
Width: 864
GlyphClass: 2
Flags: W
LayerCount: 2
Fore
SplineSet
449 804 m 1,0,-1
 789 804 l 1,1,2
 844 803 844 803 831 740 c 2,3,-1
 807 622 l 2,4,5
 804 610 804 610 797 598 c 1,6,7
 775 566 775 566 743 566 c 2,8,-1
 388 566 l 1,9,-1
 255 44 l 1,10,11
 243 1 243 1 195 0 c 1,12,-1
 25 0 l 2,13,14
 12 0 12 0 2 6 c 0,15,16
 -24 23 -24 23 -15 62 c 2,17,-1
 278 1210 l 1,18,-1
 207 1210 l 2,19,20
 199 1210 199 1210 192 1211 c 0,21,22
 152 1218 152 1218 169 1282 c 2,23,-1
 201 1408 l 2,24,25
 205 1426 205 1426 210 1435 c 0,26,27
 217 1448 217 1448 241 1448 c 2,28,-1
 387 1448 l 1,29,-1
 557 1448 l 1,30,-1
 983 1448 l 1,31,32
 1042 1447 1042 1447 1029 1384 c 2,33,-1
 1003 1266 l 2,34,35
 1000 1254 1000 1254 992 1242 c 0,36,37
 969 1210 969 1210 935 1210 c 2,38,-1
 552 1210 l 1,39,-1
 449 804 l 1,0,-1
EndSplineSet
PairPos2: "'kern' Horizontal Kerning lookup 1 per glyph data 0" z.alt1 dx=0 dy=0 dh=-126 dv=0 dx=0 dy=0 dh=0 dv=0
PairPos2: "'kern' Horizontal Kerning lookup 1 per glyph data 0" y.alt1 dx=0 dy=0 dh=-31 dv=0 dx=0 dy=0 dh=0 dv=0
PairPos2: "'kern' Horizontal Kerning lookup 1 per glyph data 0" s.alt1 dx=0 dy=0 dh=-14 dv=0 dx=0 dy=0 dh=0 dv=0
PairPos2: "'kern' Horizontal Kerning lookup 1 per glyph data 0" r.alt3 dx=0 dy=0 dh=-49 dv=0 dx=0 dy=0 dh=0 dv=0
PairPos2: "'kern' Horizontal Kerning lookup 1 per glyph data 0" r.alt2 dx=0 dy=0 dh=-52 dv=0 dx=0 dy=0 dh=0 dv=0
PairPos2: "'kern' Horizontal Kerning lookup 1 per glyph data 0" r.alt1 dx=0 dy=0 dh=-37 dv=0 dx=0 dy=0 dh=0 dv=0
PairPos2: "'kern' Horizontal Kerning lookup 1 per glyph data 0" eth dx=0 dy=0 dh=-15 dv=0 dx=0 dy=0 dh=0 dv=0
PairPos2: "'kern' Horizontal Kerning lookup 1 per glyph data 0" idieresis dx=0 dy=0 dh=62 dv=0 dx=0 dy=0 dh=0 dv=0
PairPos2: "'kern' Horizontal Kerning lookup 1 per glyph data 0" icircumflex dx=0 dy=0 dh=33 dv=0 dx=0 dy=0 dh=0 dv=0
PairPos2: "'kern' Horizontal Kerning lookup 1 per glyph data 0" igrave dx=0 dy=0 dh=92 dv=0 dx=0 dy=0 dh=0 dv=0
PairPos2: "'kern' Horizontal Kerning lookup 1 per glyph data 0" egrave dx=0 dy=0 dh=9 dv=0 dx=0 dy=0 dh=0 dv=0
PairPos2: "'kern' Horizontal Kerning lookup 1 per glyph data 0" ae dx=0 dy=0 dh=-30 dv=0 dx=0 dy=0 dh=0 dv=0
PairPos2: "'kern' Horizontal Kerning lookup 1 per glyph data 0" germandbls dx=0 dy=0 dh=-15 dv=0 dx=0 dy=0 dh=0 dv=0
PairPos2: "'kern' Horizontal Kerning lookup 1 per glyph data 0" AE dx=0 dy=0 dh=-122 dv=0 dx=0 dy=0 dh=0 dv=0
PairPos2: "'kern' Horizontal Kerning lookup 1 per glyph data 0" x dx=0 dy=0 dh=-70 dv=0 dx=0 dy=0 dh=0 dv=0
PairPos2: "'kern' Horizontal Kerning lookup 1 per glyph data 0" w dx=0 dy=0 dh=-28 dv=0 dx=0 dy=0 dh=0 dv=0
PairPos2: "'kern' Horizontal Kerning lookup 1 per glyph data 0" v dx=0 dy=0 dh=-29 dv=0 dx=0 dy=0 dh=0 dv=0
PairPos2: "'kern' Horizontal Kerning lookup 1 per glyph data 0" t dx=0 dy=0 dh=-23 dv=0 dx=0 dy=0 dh=0 dv=0
PairPos2: "'kern' Horizontal Kerning lookup 1 per glyph data 0" f dx=0 dy=0 dh=-32 dv=0 dx=0 dy=0 dh=0 dv=0
PairPos2: "'kern' Horizontal Kerning lookup 1 per glyph data 0" bracketright dx=0 dy=0 dh=-30 dv=0 dx=0 dy=0 dh=0 dv=0
PairPos2: "'kern' Horizontal Kerning lookup 1 per glyph data 0" semicolon dx=0 dy=0 dh=-55 dv=0 dx=0 dy=0 dh=0 dv=0
PairPos2: "'kern' Horizontal Kerning lookup 1 per glyph data 0" colon dx=0 dy=0 dh=-45 dv=0 dx=0 dy=0 dh=0 dv=0
PairPos2: "'kern' Horizontal Kerning lookup 1 per glyph data 0" one dx=0 dy=0 dh=-23 dv=0 dx=0 dy=0 dh=0 dv=0
PairPos2: "'kern' Horizontal Kerning lookup 1 per glyph data 0" slash dx=0 dy=0 dh=-29 dv=0 dx=0 dy=0 dh=0 dv=0
PairPos2: "'kern' Horizontal Kerning lookup 1 per glyph data 0" period dx=0 dy=0 dh=-286 dv=0 dx=0 dy=0 dh=0 dv=0
PairPos2: "'kern' Horizontal Kerning lookup 1 per glyph data 0" comma dx=0 dy=0 dh=-268 dv=0 dx=0 dy=0 dh=0 dv=0
PairPos2: "'kern' Horizontal Kerning lookup 1 per glyph data 0" comma dx=0 dy=0 dh=-95 dv=0 dx=0 dy=0 dh=0 dv=0
PairPos2: "'kern' Horizontal Kerning lookup 1 per glyph data 0" asterisk dx=0 dy=0 dh=13 dv=0 dx=0 dy=0 dh=0 dv=0
EndChar

StartChar: G
Encoding: 71 71 42
Width: 900
GlyphClass: 2
Flags: W
LayerCount: 2
Fore
SplineSet
438 698 m 2,0,1
 438 698 438 698 868 698 c 1,2,3
 899 697 899 697 886 654 c 2,4,-1
 854 542 l 2,5,6
 842 502 842 502 828 491 c 1,7,8
 825 480 825 480 820 466 c 0,9,10
 775 325 775 325 709 221 c 0,11,12
 562 -12 562 -12 350 -12 c 1,13,14
 204 -11 204 -11 120 63 c 1,15,16
 2 169 2 169 2 442 c 0,17,18
 2 595 2 595 58 816 c 0,19,20
 125 1084 125 1084 253 1257 c 0,21,22
 407 1464 407 1464 598 1464 c 1,23,24
 709 1461 709 1461 796 1412 c 1,25,26
 822 1396 822 1396 844 1373 c 0,27,28
 932 1281 932 1281 932 1056 c 0,29,30
 932 1008 932 1008 892 992 c 1,31,-1
 666 924 l 2,32,33
 660 922 660 922 654 922 c 0,34,35
 630 921 630 921 632 956 c 0,36,37
 636 1051 636 1051 636 1066 c 0,38,39
 635 1161 635 1161 596 1172 c 0,40,41
 587 1175 587 1175 578 1175 c 0,42,43
 455 1179 455 1179 342 752 c 0,44,45
 293 564 293 564 292 421 c 1,46,47
 292 270 292 270 348 256 c 0,48,49
 380 249 380 249 417 273 c 1,50,51
 496 327 496 327 544 486 c 1,52,-1
 396 486 l 1,53,54
 361 488 361 488 372 542 c 1,55,-1
 408 674 l 2,56,57
 409 678 409 678 411 683 c 0,58,59
 418 698 418 698 438 698 c 2,0,1
EndSplineSet
EndChar

StartChar: H
Encoding: 72 72 43
Width: 1198
GlyphClass: 2
Flags: W
LayerCount: 2
Fore
SplineSet
335 1404 m 1,0,1
 347 1447 347 1447 395 1448 c 1,2,-1
 565 1448 l 2,3,4
 578 1448 578 1448 588 1442 c 0,5,6
 614 1425 614 1425 605 1386 c 2,7,-1
 482 904 l 1,8,-1
 866 904 l 1,9,-1
 993 1404 l 1,10,11
 1005 1447 1005 1447 1053 1448 c 1,12,-1
 1223 1448 l 2,13,14
 1236 1448 1236 1448 1246 1442 c 0,15,16
 1272 1425 1272 1425 1263 1386 c 2,17,-1
 921 44 l 1,18,19
 909 1 909 1 861 0 c 1,20,-1
 691 0 l 2,21,22
 678 0 678 0 668 6 c 0,23,24
 642 23 642 23 651 62 c 2,25,-1
 805 666 l 1,26,-1
 422 666 l 1,27,-1
 263 44 l 2,28,29
 251 1 251 1 203 0 c 1,30,-1
 33 0 l 2,31,32
 20 0 20 0 10 6 c 0,33,34
 -16 23 -16 23 -7 62 c 2,35,-1
 335 1404 l 1,0,1
EndSplineSet
EndChar

StartChar: I
Encoding: 73 73 44
Width: 552
GlyphClass: 2
Flags: W
LayerCount: 2
Fore
SplineSet
327 1404 m 1,0,1
 339 1447 339 1447 387 1448 c 1,2,-1
 557 1448 l 2,3,4
 570 1448 570 1448 580 1442 c 0,5,6
 606 1425 606 1425 597 1386 c 2,7,-1
 255 44 l 1,8,9
 243 1 243 1 195 0 c 1,10,-1
 25 0 l 2,11,12
 12 0 12 0 2 6 c 0,13,14
 -24 23 -24 23 -15 62 c 2,15,-1
 327 1404 l 1,0,1
EndSplineSet
EndChar

StartChar: J
Encoding: 74 74 45
Width: 612
GlyphClass: 2
Flags: W
LayerCount: 2
Fore
SplineSet
455 1448 m 1,0,1
 455 1448 455 1448 627 1448 c 0,2,3
 640 1448 640 1448 651 1441 c 0,4,5
 677 1424 677 1424 667 1388 c 2,6,-1
 325 44 l 1,7,8
 281 -120 281 -120 153 -236 c 0,9,10
 48 -330 48 -330 -75 -366 c 1,11,12
 -120 -378 -120 -378 -137 -350 c 1,13,-1
 -191 -238 l 2,14,15
 -192 -236 -192 -236 -194 -232 c 0,16,17
 -213 -187 -213 -187 -175 -172 c 0,18,19
 -134 -156 -134 -156 -95 -130 c 0,20,21
 25 -48 25 -48 59 82 c 2,22,-1
 397 1404 l 1,23,24
 409 1446 409 1446 455 1448 c 1,0,1
EndSplineSet
EndChar

StartChar: K
Encoding: 75 75 46
Width: 996
GlyphClass: 2
Flags: W
LayerCount: 2
Fore
SplineSet
328 1404 m 1,0,1
 340 1447 340 1447 388 1448 c 1,2,-1
 558 1448 l 2,3,4
 570 1448 570 1448 581 1442 c 0,5,6
 608 1425 608 1425 598 1386 c 2,7,-1
 465 865 l 1,8,-1
 868 1422 l 2,9,10
 876 1433 876 1433 886 1440 c 0,11,12
 898 1448 898 1448 928 1448 c 2,13,-1
 1124 1448 l 2,14,15
 1148 1448 1148 1448 1160 1434 c 1,16,17
 1178 1410 1178 1410 1148 1374 c 1,18,-1
 664 736 l 1,19,-1
 830 60 l 1,20,21
 847 2 847 2 784 0 c 1,22,-1
 626 0 l 2,23,24
 568 0 568 0 552 50 c 1,25,-1
 411 651 l 1,26,-1
 256 44 l 2,27,28
 244 1 244 1 196 0 c 1,29,-1
 26 0 l 2,30,31
 14 0 14 0 3 6 c 0,32,33
 -24 23 -24 23 -14 62 c 2,34,-1
 328 1404 l 1,0,1
EndSplineSet
EndChar

StartChar: L
Encoding: 76 76 47
Width: 812
GlyphClass: 2
Flags: W
LayerCount: 2
Fore
SplineSet
327 1404 m 1,0,1
 339 1447 339 1447 387 1448 c 1,2,-1
 557 1448 l 2,3,4
 570 1448 570 1448 580 1442 c 0,5,6
 606 1425 606 1425 597 1386 c 2,7,-1
 304 238 l 1,8,-1
 687 238 l 1,9,10
 746 237 746 237 733 174 c 2,11,-1
 707 56 l 2,12,13
 704 44 704 44 696 32 c 0,14,15
 673 0 673 0 639 0 c 2,16,-1
 25 0 l 2,17,18
 12 0 12 0 2 6 c 0,19,20
 -24 23 -24 23 -15 62 c 2,21,-1
 327 1404 l 1,0,1
EndSplineSet
EndChar

StartChar: M
Encoding: 77 77 48
Width: 1284
GlyphClass: 2
Flags: W
LayerCount: 2
Fore
SplineSet
327 1404 m 1,0,1
 339 1447 339 1447 387 1448 c 1,2,-1
 579 1448 l 2,3,4
 585 1448 585 1448 592 1447 c 0,5,6
 622 1442 622 1442 627 1402 c 1,7,8
 663 1012 663 1012 650 709 c 1,9,-1
 1057 1410 l 2,10,11
 1059 1413 1059 1413 1061 1417 c 0,12,13
 1082 1448 1082 1448 1117 1448 c 2,14,-1
 1309 1448 l 2,15,16
 1322 1448 1322 1448 1332 1442 c 0,17,18
 1358 1425 1358 1425 1349 1386 c 2,19,-1
 1007 44 l 1,20,21
 995 1 995 1 947 0 c 1,22,-1
 777 0 l 2,23,24
 764 0 764 0 754 6 c 0,25,26
 728 23 728 23 737 62 c 2,27,-1
 892 671 l 1,28,-1
 761 454 l 2,29,30
 760 452 760 452 758 449 c 0,31,32
 705 362 705 362 633 362 c 1,33,-1
 501 376 l 1,34,35
 433 385 433 385 437 456 c 0,36,37
 446 594 446 594 440 771 c 1,38,-1
 255 44 l 1,39,40
 243 1 243 1 195 0 c 1,41,-1
 25 0 l 2,42,43
 12 0 12 0 2 6 c 0,44,45
 -24 23 -24 23 -15 62 c 2,46,-1
 327 1404 l 1,0,1
EndSplineSet
EndChar

StartChar: N
Encoding: 78 78 49
Width: 1190
GlyphClass: 2
Flags: W
LayerCount: 2
Fore
SplineSet
328 1404 m 1,0,1
 340 1447 340 1447 388 1448 c 1,2,-1
 553 1448 l 2,3,4
 573 1448 573 1448 590 1434 c 0,5,6
 594 1431 594 1431 598 1426 c 0,7,8
 603 1419 603 1419 612 1386 c 1,9,-1
 786 620 l 1,10,-1
 986 1404 l 2,11,12
 998 1447 998 1447 1046 1448 c 1,13,-1
 1216 1448 l 2,14,15
 1228 1448 1228 1448 1239 1442 c 0,16,17
 1266 1425 1266 1425 1256 1386 c 2,18,-1
 914 44 l 1,19,20
 902 1 902 1 854 0 c 1,21,-1
 684 0 l 2,22,23
 663 0 663 0 654 12 c 0,24,25
 646 24 646 24 642 40 c 2,26,-1
 460 845 l 1,27,-1
 256 44 l 1,28,29
 244 1 244 1 196 0 c 1,30,-1
 26 0 l 2,31,32
 14 0 14 0 3 6 c 0,33,34
 -24 23 -24 23 -14 62 c 2,35,-1
 328 1404 l 1,0,1
EndSplineSet
EndChar

StartChar: O
Encoding: 79 79 50
Width: 900
GlyphClass: 2
Flags: W
LayerCount: 2
Fore
SplineSet
342 752 m 0,0,1
 282 524 282 524 282 381 c 0,2,3
 282 228 282 228 350 228 c 0,4,5
 365 228 365 228 380 232 c 0,6,7
 423 246 423 246 472 328 c 1,8,9
 534 436 534 436 596 682 c 1,10,11
 659 939 659 939 659 1068 c 128,-1,12
 659 1197 659 1197 596 1198 c 1,13,14
 524 1198 524 1198 472 1112 c 0,15,16
 409 1008 409 1008 342 752 c 0,0,1
58 816 m 0,17,18
 126 1079 126 1079 251 1251 c 0,19,20
 407 1464 407 1464 600 1464 c 0,21,22
 609 1464 609 1464 618 1464 c 0,23,24
 779 1455 779 1455 856 1364 c 0,25,26
 932 1274 932 1274 932 1058 c 0,27,28
 932 879 932 879 864 610 c 0,29,30
 815 416 815 416 739 275 c 0,31,32
 584 -10 584 -10 352 -10 c 0,33,34
 193 -10 193 -10 109 71 c 1,35,36
 4 175 4 175 4 440 c 0,37,38
 4 606 4 606 58 816 c 0,17,18
EndSplineSet
EndChar

StartChar: P
Encoding: 80 80 51
Width: 940
GlyphClass: 2
Flags: W
LayerCount: 2
Fore
SplineSet
445 791 m 1,0,-1
 519 796 l 2,1,2
 528 797 528 797 538 798 c 0,3,4
 631 812 631 812 681 904 c 1,5,6
 686 920 686 920 693 943 c 0,7,8
 729 1079 729 1079 729 1164 c 0,9,10
 729 1175 729 1175 720 1186 c 0,11,12
 700 1210 700 1210 669 1210 c 1,13,14
 658 1211 658 1211 612 1211 c 0,15,16
 574 1211 574 1211 553 1212 c 1,17,-1
 445 791 l 1,0,-1
279 1214 m 1,18,-1
 211 1214 l 2,19,20
 197 1214 197 1214 185 1221 c 0,21,22
 159 1237 159 1237 169 1270 c 1,23,-1
 205 1408 l 2,24,25
 207 1416 207 1416 212 1424 c 0,26,27
 228 1448 228 1448 251 1448 c 2,28,-1
 677 1448 l 2,29,30
 763 1448 763 1448 830 1422 c 0,31,32
 981 1362 981 1362 981 1188 c 0,33,34
 981 1077 981 1077 934 930 c 0,35,36
 881 765 881 765 774 680 c 1,37,38
 661 586 661 586 392 583 c 1,39,-1
 255 44 l 1,40,41
 243 1 243 1 195 0 c 1,42,-1
 25 0 l 2,43,44
 12 0 12 0 2 6 c 0,45,46
 -24 23 -24 23 -15 62 c 2,47,-1
 279 1214 l 1,18,-1
EndSplineSet
PairPos2: "'kern' Horizontal Kerning lookup 1 per glyph data 0" s.alt1 dx=0 dy=0 dh=-11 dv=0 dx=0 dy=0 dh=0 dv=0
PairPos2: "'kern' Horizontal Kerning lookup 1 per glyph data 0" eth dx=0 dy=0 dh=-22 dv=0 dx=0 dy=0 dh=0 dv=0
PairPos2: "'kern' Horizontal Kerning lookup 1 per glyph data 0" icircumflex dx=0 dy=0 dh=25 dv=0 dx=0 dy=0 dh=0 dv=0
PairPos2: "'kern' Horizontal Kerning lookup 1 per glyph data 0" ae dx=0 dy=0 dh=-11 dv=0 dx=0 dy=0 dh=0 dv=0
PairPos2: "'kern' Horizontal Kerning lookup 1 per glyph data 0" germandbls dx=0 dy=0 dh=-15 dv=0 dx=0 dy=0 dh=0 dv=0
PairPos2: "'kern' Horizontal Kerning lookup 1 per glyph data 0" AE dx=0 dy=0 dh=-160 dv=0 dx=0 dy=0 dh=0 dv=0
PairPos2: "'kern' Horizontal Kerning lookup 1 per glyph data 0" braceright dx=0 dy=0 dh=-23 dv=0 dx=0 dy=0 dh=0 dv=0
PairPos2: "'kern' Horizontal Kerning lookup 1 per glyph data 0" bracketright dx=0 dy=0 dh=-35 dv=0 dx=0 dy=0 dh=0 dv=0
PairPos2: "'kern' Horizontal Kerning lookup 1 per glyph data 0" X dx=0 dy=0 dh=-20 dv=0 dx=0 dy=0 dh=0 dv=0
PairPos2: "'kern' Horizontal Kerning lookup 1 per glyph data 0" A dx=0 dy=0 dh=-152 dv=0 dx=0 dy=0 dh=0 dv=0
PairPos2: "'kern' Horizontal Kerning lookup 1 per glyph data 0" slash dx=0 dy=0 dh=-34 dv=0 dx=0 dy=0 dh=0 dv=0
PairPos2: "'kern' Horizontal Kerning lookup 1 per glyph data 0" period dx=0 dy=0 dh=-302 dv=0 dx=0 dy=0 dh=0 dv=0
PairPos2: "'kern' Horizontal Kerning lookup 1 per glyph data 0" comma dx=0 dy=0 dh=-107 dv=0 dx=0 dy=0 dh=0 dv=0
PairPos2: "'kern' Horizontal Kerning lookup 1 per glyph data 0" parenright dx=0 dy=0 dh=-23 dv=0 dx=0 dy=0 dh=0 dv=0
EndChar

StartChar: Q
Encoding: 81 81 52
Width: 900
GlyphClass: 2
Flags: W
LayerCount: 2
Fore
SplineSet
150 -136 m 1,0,1
 150 -136 150 -136 174 -30 c 0,2,3
 179 -6 179 -6 198 8 c 0,4,5
 199 8 199 8 202 10 c 0,6,7
 204 12 204 12 206 12 c 1,8,9
 184 20 184 20 164 30 c 1,10,11
 134 47 134 47 109 71 c 0,12,13
 4 175 4 175 4 440 c 0,14,15
 4 606 4 606 58 816 c 0,16,17
 125 1075 125 1075 251 1251 c 0,18,19
 403 1463 403 1463 618 1464 c 1,20,21
 713 1463 713 1463 798 1414 c 0,22,23
 831 1394 831 1394 856 1364 c 0,24,25
 932 1274 932 1274 932 1058 c 0,26,27
 932 879 932 879 864 610 c 0,28,29
 833 488 833 488 791 386 c 0,30,31
 662 73 662 73 458 7 c 1,32,33
 560 -23 560 -23 676 14 c 0,34,35
 687 18 687 18 697 13 c 0,36,37
 719 0 719 0 710 -44 c 2,38,-1
 688 -156 l 2,39,40
 687 -159 687 -159 686 -163 c 0,41,42
 679 -188 679 -188 650 -198 c 0,43,44
 512 -244 512 -244 422 -202 c 0,45,46
 317 -153 317 -153 180 -202 c 0,47,48
 171 -205 171 -205 164 -204 c 0,49,50
 137 -198 137 -198 150 -136 c 1,0,1
342 752 m 0,51,52
 282 524 282 524 282 381 c 0,53,54
 282 228 282 228 350 228 c 0,55,56
 365 228 365 228 380 232 c 0,57,58
 423 246 423 246 472 328 c 1,59,60
 534 436 534 436 596 682 c 1,61,62
 660 943 660 943 660 1072 c 0,63,64
 660 1197 660 1197 600 1198 c 1,65,66
 524 1198 524 1198 472 1112 c 0,67,68
 409 1009 409 1009 342 752 c 0,51,52
EndSplineSet
EndChar

StartChar: R
Encoding: 82 82 53
Width: 958
GlyphClass: 2
Flags: W
LayerCount: 2
Fore
SplineSet
444 785 m 1,0,-1
 519 796 l 2,1,2
 548 800 548 800 552 802 c 0,3,4
 634 830 634 830 660 871 c 1,5,6
 685 913 685 913 693 943 c 0,7,8
 729 1077 729 1077 729 1164 c 0,9,10
 729 1180 729 1180 713 1193 c 0,11,12
 699 1205 699 1205 679 1209 c 0,13,14
 667 1211 667 1211 612 1212 c 0,15,16
 585 1212 585 1212 553 1212 c 1,17,-1
 444 785 l 1,0,-1
279 1214 m 1,18,-1
 211 1214 l 2,19,20
 197 1214 197 1214 185 1221 c 0,21,22
 159 1237 159 1237 169 1270 c 1,23,-1
 205 1408 l 2,24,25
 207 1416 207 1416 212 1424 c 0,26,27
 228 1448 228 1448 251 1448 c 2,28,-1
 677 1448 l 2,29,30
 763 1448 763 1448 830 1422 c 0,31,32
 981 1362 981 1362 981 1188 c 0,33,34
 981 1069 981 1069 934 930 c 0,35,36
 883 779 883 779 821 724 c 1,37,38
 754 658 754 658 692 626 c 1,39,-1
 773 84 l 2,40,41
 775 68 775 68 775 54 c 0,42,43
 772 0 772 0 719 0 c 2,44,-1
 561 0 l 2,45,46
 551 0 551 0 541 4 c 0,47,48
 499 23 499 23 489 100 c 2,49,-1
 429 583 l 1,50,-1
 392 583 l 1,51,-1
 255 44 l 1,52,53
 243 1 243 1 195 0 c 1,54,-1
 25 0 l 2,55,56
 12 0 12 0 2 6 c 0,57,58
 -24 23 -24 23 -15 62 c 2,59,-1
 279 1214 l 1,18,-1
EndSplineSet
EndChar

StartChar: S
Encoding: 83 83 54
Width: 928
GlyphClass: 2
Flags: W
LayerCount: 2
Fore
SplineSet
702 1470 m 0,0,1
 744 1470 744 1470 781 1460 c 0,2,3
 984 1402 984 1402 978 1056 c 0,4,5
 977 1004 977 1004 930 992 c 2,6,-1
 784 954 l 2,7,8
 773 951 773 951 759 952 c 0,9,10
 716 957 716 957 714 996 c 0,11,12
 707 1162 707 1162 651 1235 c 1,13,14
 644 1235 644 1235 638 1232 c 0,15,16
 614 1218 614 1218 582 1164 c 0,17,18
 516 1055 516 1055 516 960 c 0,19,20
 516 913 516 913 534 888 c 0,21,22
 554 862 554 862 626 842 c 2,23,-1
 662 832 l 2,24,25
 717 817 717 817 750 794 c 0,26,27
 836 733 836 733 836 560 c 0,28,29
 836 473 836 473 805 382 c 0,30,31
 748 213 748 213 617 93 c 0,32,33
 480 -32 480 -32 338 -32 c 0,34,35
 264 -32 264 -32 206 -7 c 0,36,37
 38 66 38 66 40 334 c 0,38,39
 40 345 40 345 42 357 c 0,40,41
 51 416 51 416 88 428 c 2,42,-1
 242 482 l 2,43,44
 263 489 263 489 284 488 c 0,45,46
 320 485 320 485 320 452 c 0,47,48
 314 215 314 215 350 172 c 1,49,50
 369 172 369 172 384 178 c 1,51,52
 418 195 418 195 451 237 c 0,53,54
 528 335 528 335 528 470 c 0,55,56
 528 526 528 526 520 552 c 0,57,58
 502 605 502 605 418 626 c 2,59,-1
 386 634 l 2,60,61
 360 641 360 641 332 653 c 1,62,63
 202 714 202 714 202 854 c 0,64,65
 202 931 202 931 228 1017 c 0,66,67
 281 1192 281 1192 404 1321 c 0,68,69
 545 1470 545 1470 702 1470 c 0,0,1
EndSplineSet
EndChar

StartChar: T
Encoding: 84 84 55
Width: 884
GlyphClass: 2
Flags: W
LayerCount: 2
Fore
SplineSet
1060 1448 m 2,0,1
 1119 1448 1119 1448 1106 1384 c 1,2,-1
 1080 1266 l 2,3,4
 1077 1254 1077 1254 1069 1242 c 0,5,6
 1046 1210 1046 1210 1012 1210 c 2,7,-1
 725 1210 l 1,8,-1
 428 44 l 1,9,10
 416 1 416 1 368 0 c 1,11,-1
 196 0 l 2,12,13
 178 0 178 0 164 14 c 128,-1,14
 150 28 150 28 156 52 c 2,15,-1
 451 1210 l 1,16,-1
 146 1210 l 2,17,18
 139 1210 139 1210 131 1211 c 0,19,20
 92 1218 92 1218 108 1282 c 2,21,-1
 140 1408 l 2,22,23
 144 1423 144 1423 149 1432 c 0,24,25
 160 1448 160 1448 200 1448 c 2,26,-1
 1060 1448 l 2,0,1
EndSplineSet
PairPos2: "'kern' Horizontal Kerning lookup 1 per glyph data 0" z.alt1 dx=0 dy=0 dh=-161 dv=0 dx=0 dy=0 dh=0 dv=0
PairPos2: "'kern' Horizontal Kerning lookup 1 per glyph data 0" y.alt1 dx=0 dy=0 dh=-158 dv=0 dx=0 dy=0 dh=0 dv=0
PairPos2: "'kern' Horizontal Kerning lookup 1 per glyph data 0" s.alt1 dx=0 dy=0 dh=-80 dv=0 dx=0 dy=0 dh=0 dv=0
PairPos2: "'kern' Horizontal Kerning lookup 1 per glyph data 0" r.alt3 dx=0 dy=0 dh=-149 dv=0 dx=0 dy=0 dh=0 dv=0
PairPos2: "'kern' Horizontal Kerning lookup 1 per glyph data 0" r.alt2 dx=0 dy=0 dh=-128 dv=0 dx=0 dy=0 dh=0 dv=0
PairPos2: "'kern' Horizontal Kerning lookup 1 per glyph data 0" r.alt1 dx=0 dy=0 dh=-126 dv=0 dx=0 dy=0 dh=0 dv=0
PairPos2: "'kern' Horizontal Kerning lookup 1 per glyph data 0" trademark dx=0 dy=0 dh=25 dv=0 dx=0 dy=0 dh=0 dv=0
PairPos2: "'kern' Horizontal Kerning lookup 1 per glyph data 0" zcaron dx=0 dy=0 dh=-95 dv=0 dx=0 dy=0 dh=0 dv=0
PairPos2: "'kern' Horizontal Kerning lookup 1 per glyph data 0" ccaron dx=0 dy=0 dh=-106 dv=0 dx=0 dy=0 dh=0 dv=0
PairPos2: "'kern' Horizontal Kerning lookup 1 per glyph data 0" ydieresis dx=0 dy=0 dh=-74 dv=0 dx=0 dy=0 dh=0 dv=0
PairPos2: "'kern' Horizontal Kerning lookup 1 per glyph data 0" udieresis dx=0 dy=0 dh=-33 dv=0 dx=0 dy=0 dh=0 dv=0
PairPos2: "'kern' Horizontal Kerning lookup 1 per glyph data 0" ucircumflex dx=0 dy=0 dh=-147 dv=0 dx=0 dy=0 dh=0 dv=0
PairPos2: "'kern' Horizontal Kerning lookup 1 per glyph data 0" ugrave dx=0 dy=0 dh=-39 dv=0 dx=0 dy=0 dh=0 dv=0
PairPos2: "'kern' Horizontal Kerning lookup 1 per glyph data 0" odieresis dx=0 dy=0 dh=-82 dv=0 dx=0 dy=0 dh=0 dv=0
PairPos2: "'kern' Horizontal Kerning lookup 1 per glyph data 0" otilde dx=0 dy=0 dh=-64 dv=0 dx=0 dy=0 dh=0 dv=0
PairPos2: "'kern' Horizontal Kerning lookup 1 per glyph data 0" ocircumflex dx=0 dy=0 dh=-98 dv=0 dx=0 dy=0 dh=0 dv=0
PairPos2: "'kern' Horizontal Kerning lookup 1 per glyph data 0" ograve dx=0 dy=0 dh=2 dv=0 dx=0 dy=0 dh=0 dv=0
PairPos2: "'kern' Horizontal Kerning lookup 1 per glyph data 0" ntilde dx=0 dy=0 dh=-70 dv=0 dx=0 dy=0 dh=0 dv=0
PairPos2: "'kern' Horizontal Kerning lookup 1 per glyph data 0" eth dx=0 dy=0 dh=-35 dv=0 dx=0 dy=0 dh=0 dv=0
PairPos2: "'kern' Horizontal Kerning lookup 1 per glyph data 0" idieresis dx=0 dy=0 dh=88 dv=0 dx=0 dy=0 dh=0 dv=0
PairPos2: "'kern' Horizontal Kerning lookup 1 per glyph data 0" icircumflex dx=0 dy=0 dh=58 dv=0 dx=0 dy=0 dh=0 dv=0
PairPos2: "'kern' Horizontal Kerning lookup 1 per glyph data 0" igrave dx=0 dy=0 dh=120 dv=0 dx=0 dy=0 dh=0 dv=0
PairPos2: "'kern' Horizontal Kerning lookup 1 per glyph data 0" edieresis dx=0 dy=0 dh=-87 dv=0 dx=0 dy=0 dh=0 dv=0
PairPos2: "'kern' Horizontal Kerning lookup 1 per glyph data 0" ecircumflex dx=0 dy=0 dh=-109 dv=0 dx=0 dy=0 dh=0 dv=0
PairPos2: "'kern' Horizontal Kerning lookup 1 per glyph data 0" egrave dx=0 dy=0 dh=37 dv=0 dx=0 dy=0 dh=0 dv=0
PairPos2: "'kern' Horizontal Kerning lookup 1 per glyph data 0" ae dx=0 dy=0 dh=-153 dv=0 dx=0 dy=0 dh=0 dv=0
PairPos2: "'kern' Horizontal Kerning lookup 1 per glyph data 0" aring dx=0 dy=0 dh=-67 dv=0 dx=0 dy=0 dh=0 dv=0
PairPos2: "'kern' Horizontal Kerning lookup 1 per glyph data 0" adieresis dx=0 dy=0 dh=-39 dv=0 dx=0 dy=0 dh=0 dv=0
PairPos2: "'kern' Horizontal Kerning lookup 1 per glyph data 0" atilde dx=0 dy=0 dh=-63 dv=0 dx=0 dy=0 dh=0 dv=0
PairPos2: "'kern' Horizontal Kerning lookup 1 per glyph data 0" acircumflex dx=0 dy=0 dh=-136 dv=0 dx=0 dy=0 dh=0 dv=0
PairPos2: "'kern' Horizontal Kerning lookup 1 per glyph data 0" agrave dx=0 dy=0 dh=-46 dv=0 dx=0 dy=0 dh=0 dv=0
PairPos2: "'kern' Horizontal Kerning lookup 1 per glyph data 0" germandbls dx=0 dy=0 dh=-28 dv=0 dx=0 dy=0 dh=0 dv=0
PairPos2: "'kern' Horizontal Kerning lookup 1 per glyph data 0" AE dx=0 dy=0 dh=-141 dv=0 dx=0 dy=0 dh=0 dv=0
PairPos2: "'kern' Horizontal Kerning lookup 1 per glyph data 0" z dx=0 dy=0 dh=-154 dv=0 dx=0 dy=0 dh=0 dv=0
PairPos2: "'kern' Horizontal Kerning lookup 1 per glyph data 0" x dx=0 dy=0 dh=-147 dv=0 dx=0 dy=0 dh=0 dv=0
PairPos2: "'kern' Horizontal Kerning lookup 1 per glyph data 0" w dx=0 dy=0 dh=-153 dv=0 dx=0 dy=0 dh=0 dv=0
PairPos2: "'kern' Horizontal Kerning lookup 1 per glyph data 0" v dx=0 dy=0 dh=-157 dv=0 dx=0 dy=0 dh=0 dv=0
PairPos2: "'kern' Horizontal Kerning lookup 1 per glyph data 0" t dx=0 dy=0 dh=-40 dv=0 dx=0 dy=0 dh=0 dv=0
PairPos2: "'kern' Horizontal Kerning lookup 1 per glyph data 0" f dx=0 dy=0 dh=-56 dv=0 dx=0 dy=0 dh=0 dv=0
PairPos2: "'kern' Horizontal Kerning lookup 1 per glyph data 0" bracketright dx=0 dy=0 dh=-36 dv=0 dx=0 dy=0 dh=0 dv=0
PairPos2: "'kern' Horizontal Kerning lookup 1 per glyph data 0" at dx=0 dy=0 dh=-41 dv=0 dx=0 dy=0 dh=0 dv=0
PairPos2: "'kern' Horizontal Kerning lookup 1 per glyph data 0" semicolon dx=0 dy=0 dh=-71 dv=0 dx=0 dy=0 dh=0 dv=0
PairPos2: "'kern' Horizontal Kerning lookup 1 per glyph data 0" colon dx=0 dy=0 dh=-69 dv=0 dx=0 dy=0 dh=0 dv=0
PairPos2: "'kern' Horizontal Kerning lookup 1 per glyph data 0" seven dx=0 dy=0 dh=26 dv=0 dx=0 dy=0 dh=0 dv=0
PairPos2: "'kern' Horizontal Kerning lookup 1 per glyph data 0" six dx=0 dy=0 dh=-45 dv=0 dx=0 dy=0 dh=0 dv=0
PairPos2: "'kern' Horizontal Kerning lookup 1 per glyph data 0" four dx=0 dy=0 dh=-58 dv=0 dx=0 dy=0 dh=0 dv=0
PairPos2: "'kern' Horizontal Kerning lookup 1 per glyph data 0" one dx=0 dy=0 dh=-30 dv=0 dx=0 dy=0 dh=0 dv=0
PairPos2: "'kern' Horizontal Kerning lookup 1 per glyph data 0" zero dx=0 dy=0 dh=-21 dv=0 dx=0 dy=0 dh=0 dv=0
PairPos2: "'kern' Horizontal Kerning lookup 1 per glyph data 0" slash dx=0 dy=0 dh=-56 dv=0 dx=0 dy=0 dh=0 dv=0
PairPos2: "'kern' Horizontal Kerning lookup 1 per glyph data 0" period dx=0 dy=0 dh=-168 dv=0 dx=0 dy=0 dh=0 dv=0
PairPos2: "'kern' Horizontal Kerning lookup 1 per glyph data 0" comma dx=0 dy=0 dh=-71 dv=0 dx=0 dy=0 dh=0 dv=0
PairPos2: "'kern' Horizontal Kerning lookup 1 per glyph data 0" asterisk dx=0 dy=0 dh=35 dv=0 dx=0 dy=0 dh=0 dv=0
PairPos2: "'kern' Horizontal Kerning lookup 1 per glyph data 0" ampersand dx=0 dy=0 dh=-31 dv=0 dx=0 dy=0 dh=0 dv=0
EndChar

StartChar: U
Encoding: 85 85 56
Width: 1096
GlyphClass: 2
Flags: W
LayerCount: 2
Fore
SplineSet
519 -14 m 0,0,1
 329 -14 329 -14 247 70 c 0,2,3
 228 89 228 89 213 113 c 0,4,5
 112 267 112 267 199 604 c 2,6,-1
 405 1404 l 2,7,8
 417 1447 417 1447 465 1448 c 1,9,-1
 643 1448 l 2,10,11
 656 1448 656 1448 666 1442 c 0,12,13
 692 1425 692 1425 683 1386 c 2,14,-1
 481 582 l 2,15,16
 433 391 433 391 441 304 c 0,17,18
 450 204 450 204 537 204 c 0,19,20
 585 204 585 204 622 237 c 0,21,22
 698 307 698 307 769 588 c 2,23,-1
 977 1404 l 1,24,25
 989 1447 989 1447 1037 1448 c 1,26,-1
 1199 1448 l 2,27,28
 1212 1448 1212 1448 1222 1442 c 0,29,30
 1248 1425 1248 1425 1239 1386 c 2,31,-1
 1043 610 l 2,32,33
 978 353 978 353 899 218 c 0,34,35
 762 -14 762 -14 519 -14 c 0,0,1
EndSplineSet
EndChar

StartChar: V
Encoding: 86 86 57
Width: 1008
GlyphClass: 2
Flags: W
LayerCount: 2
Fore
SplineSet
372 302 m 1,0,-1
 913 1406 l 2,1,2
 935 1450 935 1450 989 1446 c 1,3,-1
 1145 1440 l 1,4,5
 1175 1440 1175 1440 1189 1422 c 1,6,7
 1209 1404 1209 1404 1189 1366 c 2,8,-1
 521 80 l 2,9,10
 512 64 512 64 504 52 c 0,11,12
 465 0 465 0 411 0 c 2,13,-1
 181 -2 l 1,14,15
 148 0 148 0 129 17 c 0,16,17
 100 42 100 42 103 94 c 2,18,-1
 177 1400 l 2,19,20
 179 1443 179 1443 237 1444 c 1,21,-1
 399 1444 l 2,22,23
 419 1444 419 1444 432 1433 c 0,24,25
 447 1421 447 1421 445 1390 c 2,26,-1
 372 302 l 1,0,-1
EndSplineSet
PairPos2: "'kern' Horizontal Kerning lookup 1 per glyph data 0" z.alt1 dx=0 dy=0 dh=-23 dv=0 dx=0 dy=0 dh=0 dv=0
PairPos2: "'kern' Horizontal Kerning lookup 1 per glyph data 0" y.alt1 dx=0 dy=0 dh=-14 dv=0 dx=0 dy=0 dh=0 dv=0
PairPos2: "'kern' Horizontal Kerning lookup 1 per glyph data 0" s.alt1 dx=0 dy=0 dh=-38 dv=0 dx=0 dy=0 dh=0 dv=0
PairPos2: "'kern' Horizontal Kerning lookup 1 per glyph data 0" r.alt3 dx=0 dy=0 dh=-18 dv=0 dx=0 dy=0 dh=0 dv=0
PairPos2: "'kern' Horizontal Kerning lookup 1 per glyph data 0" r.alt2 dx=0 dy=0 dh=-11 dv=0 dx=0 dy=0 dh=0 dv=0
PairPos2: "'kern' Horizontal Kerning lookup 1 per glyph data 0" r.alt1 dx=0 dy=0 dh=-12 dv=0 dx=0 dy=0 dh=0 dv=0
PairPos2: "'kern' Horizontal Kerning lookup 1 per glyph data 0" trademark dx=0 dy=0 dh=33 dv=0 dx=0 dy=0 dh=0 dv=0
PairPos2: "'kern' Horizontal Kerning lookup 1 per glyph data 0" udieresis dx=0 dy=0 dh=-23 dv=0 dx=0 dy=0 dh=0 dv=0
PairPos2: "'kern' Horizontal Kerning lookup 1 per glyph data 0" otilde dx=0 dy=0 dh=-54 dv=0 dx=0 dy=0 dh=0 dv=0
PairPos2: "'kern' Horizontal Kerning lookup 1 per glyph data 0" ograve dx=0 dy=0 dh=12 dv=0 dx=0 dy=0 dh=0 dv=0
PairPos2: "'kern' Horizontal Kerning lookup 1 per glyph data 0" eth dx=0 dy=0 dh=-26 dv=0 dx=0 dy=0 dh=0 dv=0
PairPos2: "'kern' Horizontal Kerning lookup 1 per glyph data 0" idieresis dx=0 dy=0 dh=99 dv=0 dx=0 dy=0 dh=0 dv=0
PairPos2: "'kern' Horizontal Kerning lookup 1 per glyph data 0" icircumflex dx=0 dy=0 dh=41 dv=0 dx=0 dy=0 dh=0 dv=0
PairPos2: "'kern' Horizontal Kerning lookup 1 per glyph data 0" igrave dx=0 dy=0 dh=121 dv=0 dx=0 dy=0 dh=0 dv=0
PairPos2: "'kern' Horizontal Kerning lookup 1 per glyph data 0" egrave dx=0 dy=0 dh=37 dv=0 dx=0 dy=0 dh=0 dv=0
PairPos2: "'kern' Horizontal Kerning lookup 1 per glyph data 0" ae dx=0 dy=0 dh=-50 dv=0 dx=0 dy=0 dh=0 dv=0
PairPos2: "'kern' Horizontal Kerning lookup 1 per glyph data 0" adieresis dx=0 dy=0 dh=-28 dv=0 dx=0 dy=0 dh=0 dv=0
PairPos2: "'kern' Horizontal Kerning lookup 1 per glyph data 0" atilde dx=0 dy=0 dh=-53 dv=0 dx=0 dy=0 dh=0 dv=0
PairPos2: "'kern' Horizontal Kerning lookup 1 per glyph data 0" agrave dx=0 dy=0 dh=-35 dv=0 dx=0 dy=0 dh=0 dv=0
PairPos2: "'kern' Horizontal Kerning lookup 1 per glyph data 0" germandbls dx=0 dy=0 dh=-22 dv=0 dx=0 dy=0 dh=0 dv=0
PairPos2: "'kern' Horizontal Kerning lookup 1 per glyph data 0" AE dx=0 dy=0 dh=-116 dv=0 dx=0 dy=0 dh=0 dv=0
PairPos2: "'kern' Horizontal Kerning lookup 1 per glyph data 0" x dx=0 dy=0 dh=-10 dv=0 dx=0 dy=0 dh=0 dv=0
PairPos2: "'kern' Horizontal Kerning lookup 1 per glyph data 0" w dx=0 dy=0 dh=-14 dv=0 dx=0 dy=0 dh=0 dv=0
PairPos2: "'kern' Horizontal Kerning lookup 1 per glyph data 0" v dx=0 dy=0 dh=-14 dv=0 dx=0 dy=0 dh=0 dv=0
PairPos2: "'kern' Horizontal Kerning lookup 1 per glyph data 0" t dx=0 dy=0 dh=-16 dv=0 dx=0 dy=0 dh=0 dv=0
PairPos2: "'kern' Horizontal Kerning lookup 1 per glyph data 0" f dx=0 dy=0 dh=-16 dv=0 dx=0 dy=0 dh=0 dv=0
PairPos2: "'kern' Horizontal Kerning lookup 1 per glyph data 0" bracketright dx=0 dy=0 dh=-26 dv=0 dx=0 dy=0 dh=0 dv=0
PairPos2: "'kern' Horizontal Kerning lookup 1 per glyph data 0" semicolon dx=0 dy=0 dh=-20 dv=0 dx=0 dy=0 dh=0 dv=0
PairPos2: "'kern' Horizontal Kerning lookup 1 per glyph data 0" seven dx=0 dy=0 dh=26 dv=0 dx=0 dy=0 dh=0 dv=0
PairPos2: "'kern' Horizontal Kerning lookup 1 per glyph data 0" four dx=0 dy=0 dh=-29 dv=0 dx=0 dy=0 dh=0 dv=0
PairPos2: "'kern' Horizontal Kerning lookup 1 per glyph data 0" slash dx=0 dy=0 dh=-38 dv=0 dx=0 dy=0 dh=0 dv=0
PairPos2: "'kern' Horizontal Kerning lookup 1 per glyph data 0" period dx=0 dy=0 dh=-168 dv=0 dx=0 dy=0 dh=0 dv=0
PairPos2: "'kern' Horizontal Kerning lookup 1 per glyph data 0" comma dx=0 dy=0 dh=-56 dv=0 dx=0 dy=0 dh=0 dv=0
PairPos2: "'kern' Horizontal Kerning lookup 1 per glyph data 0" asterisk dx=0 dy=0 dh=20 dv=0 dx=0 dy=0 dh=0 dv=0
EndChar

StartChar: W
Encoding: 87 87 58
Width: 1442
GlyphClass: 2
Flags: W
LayerCount: 2
Fore
SplineSet
576 1448 m 2,0,1
 583 1448 583 1448 590 1446 c 0,2,3
 626 1433 626 1433 592 1370 c 0,4,5
 588 1363 588 1363 584 1354 c 0,6,7
 519 1223 519 1223 452 964 c 0,8,9
 347 557 347 557 377 327 c 1,10,11
 480 468 480 468 579 669 c 0,12,13
 731 980 731 980 782 1232 c 1,14,-1
 786 1234 l 1,15,16
 807 1338 807 1338 824 1396 c 0,17,18
 828 1407 828 1407 833 1417 c 0,19,20
 850 1448 850 1448 894 1448 c 2,21,-1
 1074 1448 l 1,22,23
 1113 1443 1113 1443 1100 1388 c 1,24,25
 1003 1102 1003 1102 982 830 c 0,26,27
 952 443 952 443 985 295 c 1,28,29
 987 297 987 297 989 300 c 0,30,31
 1144 497 1144 497 1257 885 c 0,32,33
 1344 1184 1344 1184 1354 1400 c 0,34,35
 1355 1418 1355 1418 1357 1426 c 0,36,37
 1362 1448 1362 1448 1394 1448 c 2,38,-1
 1574 1448 l 2,39,40
 1597 1448 1597 1448 1610 1443 c 0,41,42
 1628 1435 1628 1435 1628 1398 c 0,43,44
 1628 1278 1628 1278 1584 1084 c 0,45,46
 1505 736 1505 736 1357 443 c 0,47,48
 1177 84 1177 84 980 0 c 1,49,-1
 842 0 l 2,50,51
 836 0 836 0 830 1 c 0,52,53
 805 5 805 5 792 40 c 0,54,55
 738 194 738 194 726 450 c 1,56,57
 711 423 711 423 694 395 c 0,58,59
 545 145 545 145 396 0 c 1,60,-1
 246 0 l 1,61,62
 203 1 203 1 188 40 c 1,63,64
 175 80 175 80 164 126 c 0,65,66
 102 400 102 400 152 783 c 0,67,68
 200 1157 200 1157 326 1420 c 0,69,70
 340 1447 340 1447 380 1448 c 1,71,-1
 576 1448 l 2,0,1
1029 214 m 1,72,73
 1036 210 1036 210 1042 210 c 1,74,-1
 1029 214 l 1,72,73
EndSplineSet
EndChar

StartChar: X
Encoding: 88 88 59
Width: 850
GlyphClass: 2
Flags: W
LayerCount: 2
Fore
SplineSet
540 0 m 2,0,1
 466 0 466 0 458 68 c 2,2,-1
 417 411 l 1,3,-1
 246 34 l 2,4,5
 240 21 240 21 226 11 c 0,6,7
 211 0 211 0 180 0 c 2,8,-1
 -12 0 l 2,9,10
 -42 0 -42 0 -53 18 c 0,11,12
 -67 41 -67 41 -44 84 c 2,13,-1
 314 751 l 1,14,-1
 180 1370 l 2,15,16
 172 1406 172 1406 183 1428 c 0,17,18
 193 1450 193 1450 232 1450 c 2,19,-1
 380 1450 l 2,20,21
 447 1450 447 1450 462 1382 c 1,22,-1
 528 1003 l 1,23,-1
 726 1416 l 2,24,25
 732 1428 732 1428 747 1440 c 0,26,27
 760 1450 760 1450 793 1450 c 2,28,-1
 982 1450 l 2,29,30
 1014 1450 1014 1450 1026 1436 c 0,31,32
 1047 1410 1047 1410 1020 1366 c 1,33,-1
 612 671 l 1,34,-1
 740 80 l 2,35,36
 749 40 749 40 735 18 c 0,37,38
 724 0 724 0 690 0 c 2,39,-1
 540 0 l 2,0,1
EndSplineSet
EndChar

StartChar: Y
Encoding: 89 89 60
Width: 872
GlyphClass: 2
Flags: W
LayerCount: 2
Fore
SplineSet
532 895 m 1,0,1
 729 1194 729 1194 833 1422 c 1,2,3
 847 1450 847 1450 893 1448 c 2,4,-1
 1063 1440 l 2,5,6
 1075 1439 1075 1439 1085 1432 c 0,7,8
 1112 1411 1112 1411 1087 1368 c 0,9,10
 1073 1344 1073 1344 1058 1319 c 0,11,12
 836 939 836 939 576 590 c 1,13,-1
 437 44 l 1,14,15
 425 1 425 1 377 0 c 1,16,-1
 207 0 l 2,17,18
 194 0 194 0 184 6 c 0,19,20
 158 23 158 23 167 62 c 2,21,-1
 307 614 l 1,22,23
 307 704 307 704 291 862 c 0,24,25
 258 1183 258 1183 213 1358 c 1,26,27
 203 1385 203 1385 210 1409 c 0,28,29
 221 1444 221 1444 257 1446 c 2,30,-1
 417 1454 l 2,31,32
 434 1455 434 1455 444 1453 c 0,33,34
 468 1448 468 1448 475 1406 c 0,35,36
 520 1141 520 1141 532 895 c 1,0,1
EndSplineSet
PairPos2: "'kern' Horizontal Kerning lookup 1 per glyph data 0" udieresis dx=0 dy=0 dh=-33 dv=0 dx=0 dy=0 dh=0 dv=0
PairPos2: "'kern' Horizontal Kerning lookup 1 per glyph data 0" ugrave dx=0 dy=0 dh=-43 dv=0 dx=0 dy=0 dh=0 dv=0
PairPos2: "'kern' Horizontal Kerning lookup 1 per glyph data 0" odieresis dx=0 dy=0 dh=-82 dv=0 dx=0 dy=0 dh=0 dv=0
PairPos2: "'kern' Horizontal Kerning lookup 1 per glyph data 0" otilde dx=0 dy=0 dh=-64 dv=0 dx=0 dy=0 dh=0 dv=0
PairPos2: "'kern' Horizontal Kerning lookup 1 per glyph data 0" ograve dx=0 dy=0 dh=4 dv=0 dx=0 dy=0 dh=0 dv=0
PairPos2: "'kern' Horizontal Kerning lookup 1 per glyph data 0" eth dx=0 dy=0 dh=-28 dv=0 dx=0 dy=0 dh=0 dv=0
PairPos2: "'kern' Horizontal Kerning lookup 1 per glyph data 0" idieresis dx=0 dy=0 dh=89 dv=0 dx=0 dy=0 dh=0 dv=0
PairPos2: "'kern' Horizontal Kerning lookup 1 per glyph data 0" icircumflex dx=0 dy=0 dh=17 dv=0 dx=0 dy=0 dh=0 dv=0
PairPos2: "'kern' Horizontal Kerning lookup 1 per glyph data 0" igrave dx=0 dy=0 dh=114 dv=0 dx=0 dy=0 dh=0 dv=0
PairPos2: "'kern' Horizontal Kerning lookup 1 per glyph data 0" edieresis dx=0 dy=0 dh=-87 dv=0 dx=0 dy=0 dh=0 dv=0
PairPos2: "'kern' Horizontal Kerning lookup 1 per glyph data 0" egrave dx=0 dy=0 dh=33 dv=0 dx=0 dy=0 dh=0 dv=0
PairPos2: "'kern' Horizontal Kerning lookup 1 per glyph data 0" ae dx=0 dy=0 dh=-76 dv=0 dx=0 dy=0 dh=0 dv=0
PairPos2: "'kern' Horizontal Kerning lookup 1 per glyph data 0" aring dx=0 dy=0 dh=-72 dv=0 dx=0 dy=0 dh=0 dv=0
PairPos2: "'kern' Horizontal Kerning lookup 1 per glyph data 0" adieresis dx=0 dy=0 dh=-38 dv=0 dx=0 dy=0 dh=0 dv=0
PairPos2: "'kern' Horizontal Kerning lookup 1 per glyph data 0" atilde dx=0 dy=0 dh=-62 dv=0 dx=0 dy=0 dh=0 dv=0
PairPos2: "'kern' Horizontal Kerning lookup 1 per glyph data 0" agrave dx=0 dy=0 dh=-43 dv=0 dx=0 dy=0 dh=0 dv=0
PairPos2: "'kern' Horizontal Kerning lookup 1 per glyph data 0" germandbls dx=0 dy=0 dh=-28 dv=0 dx=0 dy=0 dh=0 dv=0
PairPos2: "'kern' Horizontal Kerning lookup 1 per glyph data 0" six dx=0 dy=0 dh=-26 dv=0 dx=0 dy=0 dh=0 dv=0
PairPos2: "'kern' Horizontal Kerning lookup 1 per glyph data 0" four dx=0 dy=0 dh=-42 dv=0 dx=0 dy=0 dh=0 dv=0
PairPos2: "'kern' Horizontal Kerning lookup 1 per glyph data 0" period dx=0 dy=0 dh=-184 dv=0 dx=0 dy=0 dh=0 dv=0
PairPos2: "'kern' Horizontal Kerning lookup 1 per glyph data 0" comma dx=0 dy=0 dh=-168 dv=0 dx=0 dy=0 dh=0 dv=0
EndChar

StartChar: Z
Encoding: 90 90 61
Width: 946
GlyphClass: 2
Flags: W
LayerCount: 2
Fore
SplineSet
325 1448 m 2,0,1
 325 1448 325 1448 1007 1448 c 0,2,3
 1046 1448 1046 1448 1055 1416 c 0,4,5
 1059 1401 1059 1401 1055 1382 c 1,6,-1
 1051 1376 l 1,7,-1
 1027 1266 l 2,8,9
 1024 1254 1024 1254 1016 1242 c 0,10,11
 993 1210 993 1210 959 1210 c 2,12,-1
 950 1210 l 1,13,-1
 354 238 l 1,14,-1
 711 238 l 2,15,16
 770 238 770 238 757 174 c 1,17,-1
 731 56 l 2,18,19
 728 44 728 44 720 32 c 0,20,21
 697 0 697 0 663 0 c 2,22,-1
 35 0 l 2,23,24
 -17 0 -17 0 -31 34 c 0,25,26
 -44 65 -44 65 -25 95 c 2,27,-1
 667 1210 l 1,28,-1
 299 1210 l 2,29,30
 292 1210 292 1210 284 1211 c 0,31,32
 245 1218 245 1218 261 1282 c 2,33,-1
 293 1408 l 2,34,35
 298 1427 298 1427 300 1433 c 0,36,37
 306 1448 306 1448 325 1448 c 2,0,1
EndSplineSet
PairPos2: "'kern' Horizontal Kerning lookup 1 per glyph data 0" ograve dx=0 dy=0 dh=-18 dv=0 dx=0 dy=0 dh=0 dv=0
PairPos2: "'kern' Horizontal Kerning lookup 1 per glyph data 0" eth dx=0 dy=0 dh=-32 dv=0 dx=0 dy=0 dh=0 dv=0
PairPos2: "'kern' Horizontal Kerning lookup 1 per glyph data 0" idieresis dx=0 dy=0 dh=70 dv=0 dx=0 dy=0 dh=0 dv=0
PairPos2: "'kern' Horizontal Kerning lookup 1 per glyph data 0" icircumflex dx=0 dy=0 dh=34 dv=0 dx=0 dy=0 dh=0 dv=0
PairPos2: "'kern' Horizontal Kerning lookup 1 per glyph data 0" igrave dx=0 dy=0 dh=93 dv=0 dx=0 dy=0 dh=0 dv=0
PairPos2: "'kern' Horizontal Kerning lookup 1 per glyph data 0" egrave dx=0 dy=0 dh=10 dv=0 dx=0 dy=0 dh=0 dv=0
PairPos2: "'kern' Horizontal Kerning lookup 1 per glyph data 0" ae dx=0 dy=0 dh=-18 dv=0 dx=0 dy=0 dh=0 dv=0
PairPos2: "'kern' Horizontal Kerning lookup 1 per glyph data 0" e dx=0 dy=0 dh=-76 dv=0 dx=0 dy=0 dh=0 dv=0
PairPos2: "'kern' Horizontal Kerning lookup 1 per glyph data 0" four dx=0 dy=0 dh=-24 dv=0 dx=0 dy=0 dh=0 dv=0
EndChar

StartChar: bracketleft
Encoding: 91 91 62
Width: 580
GlyphClass: 2
Flags: W
LayerCount: 2
Fore
SplineSet
173 -90 m 1,0,-1
 349 -90 l 1,1,2
 408 -91 408 -91 395 -154 c 2,3,-1
 369 -272 l 2,4,5
 366 -284 366 -284 358 -296 c 0,6,7
 335 -328 335 -328 301 -328 c 2,8,-1
 -61 -328 l 2,9,10
 -74 -328 -74 -328 -86 -326 c 0,11,12
 -140 -315 -140 -315 -119 -238 c 1,13,14
 -119 -238 -119 -238 373 1662 c 1,15,16
 391 1723 391 1723 455 1724 c 1,17,-1
 851 1724 l 1,18,19
 910 1723 910 1723 897 1660 c 2,20,-1
 871 1542 l 2,21,22
 868 1530 868 1530 860 1518 c 0,23,24
 837 1486 837 1486 803 1486 c 2,25,-1
 581 1486 l 1,26,-1
 173 -90 l 1,0,-1
EndSplineSet
EndChar

StartChar: backslash
Encoding: 92 92 63
Width: 690
GlyphClass: 2
Flags: W
LayerCount: 2
Fore
SplineSet
158 1442 m 2,0,1
 158 1443 158 1443 158 1444 c 0,2,3
 152 1520 152 1520 214 1520 c 2,4,-1
 366 1520 l 1,5,6
 420 1519 420 1519 426 1458 c 2,7,8
 426 1458 426 1458 544 60 c 0,9,10
 549 2 549 2 490 0 c 1,11,-1
 332 0 l 1,12,13
 286 1 286 1 278 62 c 1,14,-1
 158 1442 l 2,0,1
EndSplineSet
EndChar

StartChar: bracketright
Encoding: 93 93 64
Width: 580
GlyphClass: 2
Flags: W
LayerCount: 2
Fore
SplineSet
477 1486 m 1,0,-1
 301 1486 l 1,1,2
 242 1487 242 1487 255 1550 c 2,3,-1
 281 1668 l 2,4,5
 284 1680 284 1680 292 1692 c 0,6,7
 315 1724 315 1724 349 1724 c 2,8,-1
 711 1724 l 2,9,10
 724 1724 724 1724 736 1722 c 0,11,12
 790 1711 790 1711 769 1634 c 1,13,14
 769 1634 769 1634 283 -266 c 0,15,16
 267 -327 267 -327 201 -328 c 1,17,-1
 -195 -328 l 1,18,19
 -254 -327 -254 -327 -241 -264 c 2,20,-1
 -215 -146 l 2,21,22
 -212 -134 -212 -134 -204 -122 c 0,23,24
 -181 -90 -181 -90 -147 -90 c 2,25,-1
 74 -90 l 1,26,-1
 477 1486 l 1,0,-1
EndSplineSet
EndChar

StartChar: asciicircum
Encoding: 94 94 65
Width: 924
GlyphClass: 2
Flags: W
LayerCount: 2
Fore
SplineSet
672 1272 m 1,0,-1
 690 1272 l 1,1,-1
 786 1272 l 2,2,3
 800 1272 800 1272 815 1266 c 0,4,5
 860 1247 860 1247 858 1194 c 2,6,-1
 840 460 l 1,7,8
 835 431 835 431 782 426 c 1,9,-1
 630 426 l 1,10,11
 580 427 580 427 578 462 c 1,12,-1
 612 1118 l 1,13,-1
 254 460 l 1,14,15
 249 431 249 431 196 426 c 1,16,-1
 36 426 l 1,17,18
 -14 427 -14 427 -16 462 c 1,19,-1
 418 1184 l 2,20,21
 429 1203 429 1203 445 1220 c 0,22,23
 494 1272 494 1272 554 1272 c 2,24,-1
 672 1272 l 1,0,-1
EndSplineSet
EndChar

StartChar: underscore
Encoding: 95 95 66
Width: 1204
GlyphClass: 2
Flags: W
LayerCount: 2
Fore
SplineSet
-21 -42 m 2,0,1
 -21 -42 -21 -42 961 -42 c 1,2,3
 1020 -43 1020 -43 1007 -106 c 2,4,-1
 981 -224 l 2,5,6
 978 -236 978 -236 970 -248 c 0,7,8
 947 -280 947 -280 913 -280 c 2,9,-1
 -47 -280 l 2,10,11
 -55 -280 -55 -280 -62 -279 c 0,12,13
 -102 -272 -102 -272 -85 -208 c 2,14,-1
 -53 -82 l 2,15,16
 -50 -67 -50 -67 -46 -57 c 0,17,18
 -40 -42 -40 -42 -21 -42 c 2,0,1
EndSplineSet
EndChar

StartChar: grave
Encoding: 96 96 67
Width: 606
GlyphClass: 2
Flags: W
LayerCount: 2
Fore
SplineSet
361 1448 m 1,0,1
 401 1447 401 1447 423 1414 c 1,2,-1
 559 1194 l 2,3,4
 578 1165 578 1165 551 1153 c 0,5,6
 542 1150 542 1150 533 1150 c 2,7,-1
 447 1150 l 1,8,9
 407 1151 407 1151 379 1178 c 2,10,-1
 143 1412 l 1,11,12
 123 1430 123 1430 138 1443 c 0,13,14
 143 1447 143 1447 149 1448 c 1,15,-1
 361 1448 l 1,0,1
EndSplineSet
EndChar

StartChar: a
Encoding: 97 97 68
Width: 846
GlyphClass: 2
Flags: W
LayerCount: 2
Fore
SplineSet
388 138 m 1,0,-1
 389 138 l 1,1,-1
 385 147 l 1,2,-1
 366 124 l 2,3,4
 330 81 330 81 304 53 c 1,5,6
 246 -6 246 -6 200 -6 c 2,7,-1
 186 -6 l 1,8,9
 152 -4 152 -4 86 60 c 0,10,11
 9 136 9 136 9 228 c 0,12,13
 9 406 9 406 133 739 c 0,14,15
 214 959 214 959 300 1024 c 0,16,17
 368 1075 368 1075 460 1076 c 0,18,19
 546 1076 546 1076 624 1021 c 1,20,-1
 628 1038 l 2,21,22
 634 1062 634 1062 641 1070 c 0,23,24
 656 1086 656 1086 676 1086 c 2,25,-1
 804 1086 l 2,26,27
 875 1086 875 1086 860 1020 c 1,28,-1
 640 285 l 1,29,30
 668 313 668 313 684 340 c 0,31,32
 704 372 704 372 734 354 c 1,33,-1
 822 296 l 1,34,35
 851 274 851 274 836 250 c 1,36,37
 809 211 809 211 779 176 c 0,38,39
 629 3 629 3 476 -10 c 0,40,41
 453 -12 453 -12 440 12 c 1,42,-1
 388 138 l 1,0,-1
582 854 m 1,43,44
 578 855 578 855 574 857 c 0,45,46
 537 868 537 868 512 867 c 0,47,48
 489 867 489 867 476 858 c 0,49,50
 441 831 441 831 385 690 c 0,51,52
 313 509 313 509 284 358 c 0,53,54
 278 324 278 324 277 313 c 1,55,56
 277 298 277 298 289 298 c 0,57,58
 296 298 296 298 302 300 c 0,59,60
 339 317 339 317 400 418 c 1,61,62
 506 601 506 601 572 824 c 1,63,-1
 582 854 l 1,43,44
EndSplineSet
PairPos2: "'kern' Horizontal Kerning lookup 1 per glyph data 0" ogonek dx=0 dy=0 dh=-622 dv=0 dx=0 dy=0 dh=0 dv=0
PairPos2: "'kern' Horizontal Kerning lookup 1 per glyph data 0" T dx=0 dy=0 dh=-161 dv=0 dx=0 dy=0 dh=0 dv=0
EndChar

StartChar: b
Encoding: 98 98 69
Width: 862
GlyphClass: 2
Flags: W
LayerCount: 2
Fore
SplineSet
613 1472 m 1,0,1
 613 1472 613 1472 465 891 c 1,2,-1
 509 944 l 2,3,4
 546 989 546 989 571 1015 c 0,5,6
 629 1074 629 1074 675 1074 c 2,7,-1
 689 1074 l 1,8,9
 723 1072 723 1072 789 1008 c 1,10,11
 865 929 865 929 865 833 c 0,12,13
 865 657 865 657 742 329 c 0,14,15
 660 109 660 109 575 44 c 0,16,17
 507 -7 507 -7 415 -8 c 0,18,19
 329 -8 329 -8 250 48 c 1,20,-1
 249 44 l 1,21,22
 237 1 237 1 189 0 c 1,23,-1
 35 0 l 2,24,25
 13 0 13 0 -1 10 c 0,26,27
 -26 26 -26 26 -17 64 c 2,28,-1
 343 1474 l 2,29,30
 355 1517 355 1517 403 1518 c 1,31,-1
 569 1518 l 2,32,33
 622 1518 622 1518 613 1472 c 1,0,1
293 214 m 1,34,35
 335 200 335 200 363 200 c 0,36,37
 386 200 386 200 399 210 c 0,38,39
 434 237 434 237 490 378 c 0,40,41
 552 535 552 535 591 710 c 0,42,43
 596 734 596 734 597 755 c 0,44,45
 597 769 597 769 584 770 c 0,46,47
 576 770 576 770 573 768 c 0,48,49
 536 751 536 751 475 650 c 1,50,51
 369 467 369 467 303 244 c 1,52,-1
 293 214 l 1,34,35
EndSplineSet
EndChar

StartChar: c
Encoding: 99 99 70
Width: 602
GlyphClass: 2
Flags: W
LayerCount: 2
Fore
SplineSet
604 1058 m 0,0,1
 681 1026 681 1026 714 990 c 0,2,3
 720 983 720 983 725 975 c 0,4,5
 742 943 742 943 722 920 c 1,6,-1
 630 822 l 2,7,8
 628 820 628 820 622 814 c 0,9,10
 598 793 598 793 572 808 c 0,11,12
 492 855 492 855 462 855 c 1,13,14
 462 855 462 855 456 854 c 0,15,16
 422 844 422 844 364 728 c 0,17,18
 286 574 286 574 260 454 c 1,19,20
 230 321 230 321 230 262 c 0,21,22
 230 207 230 207 246 202 c 1,23,-1
 362 302 l 2,24,25
 392 328 392 328 432 302 c 2,26,-1
 516 246 l 2,27,28
 526 239 526 239 532 227 c 1,29,30
 542 202 542 202 528 182 c 0,31,32
 492 127 492 127 414 65 c 0,33,34
 373 32 373 32 318 -3 c 0,35,36
 291 -21 291 -21 258 -22 c 1,37,38
 208 -22 208 -22 121 22 c 0,39,40
 32 68 32 68 9 126 c 0,41,42
 -17 193 -17 193 -17 281 c 0,43,44
 -17 412 -17 412 42 587 c 1,45,46
 97 754 97 754 164 854 c 0,47,48
 322 1089 322 1089 470 1089 c 0,49,50
 528 1089 528 1089 604 1058 c 0,0,1
EndSplineSet
EndChar

StartChar: d
Encoding: 100 100 71
Width: 924
GlyphClass: 2
Flags: W
LayerCount: 2
Fore
SplineSet
1006 1472 m 1,0,1
 1006 1472 1006 1472 673 298 c 1,2,3
 694 319 694 319 710 342 c 0,4,5
 732 373 732 373 760 352 c 2,6,-1
 844 290 l 1,7,8
 872 267 872 267 856 242 c 1,9,10
 835 216 835 216 812 190 c 0,11,12
 642 3 642 3 482 -10 c 0,13,14
 459 -12 459 -12 446 12 c 1,15,-1
 440 26 l 1,16,-1
 429 54 l 1,17,-1
 394 138 l 1,18,-1
 395 138 l 1,19,-1
 391 147 l 1,20,-1
 372 124 l 2,21,22
 336 81 336 81 310 53 c 1,23,24
 252 -6 252 -6 206 -6 c 2,25,-1
 195 -6 l 2,26,27
 155 -6 155 -6 92 60 c 0,28,29
 14 141 14 141 14 225 c 0,30,31
 14 388 14 388 139 739 c 0,32,33
 216 955 216 955 306 1024 c 0,34,35
 374 1076 374 1076 466 1076 c 0,36,37
 554 1076 554 1076 633 1018 c 1,38,-1
 756 1474 l 2,39,40
 767 1516 767 1516 816 1518 c 1,41,-1
 962 1518 l 2,42,43
 1015 1518 1015 1518 1006 1472 c 1,0,1
588 854 m 1,44,45
 549 867 549 867 520 867 c 0,46,47
 497 867 497 867 482 858 c 1,48,49
 448 833 448 833 391 690 c 0,50,51
 316 501 316 501 290 358 c 0,52,53
 284 325 284 325 284 315 c 0,54,55
 284 298 284 298 298 298 c 0,56,57
 304 298 304 298 308 300 c 0,58,59
 345 317 345 317 406 418 c 1,60,61
 512 601 512 601 578 824 c 1,62,-1
 588 854 l 1,44,45
EndSplineSet
EndChar

StartChar: e
Encoding: 101 101 72
Width: 668
GlyphClass: 2
Flags: W
LayerCount: 2
Fore
SplineSet
296 522 m 1,0,1
 354 559 354 559 401 635 c 0,2,3
 466 740 466 740 466 834 c 0,4,5
 466 852 466 852 464 864 c 0,6,7
 460 888 460 888 440 888 c 0,8,9
 435 888 435 888 429 884 c 0,10,11
 402 864 402 864 376 794 c 1,12,13
 337 694 337 694 296 522 c 1,0,1
249 304 m 1,14,15
 243 273 243 273 243 257 c 0,16,17
 243 236 243 236 270 224 c 1,18,19
 270 224 270 224 288 230 c 1,20,21
 321 244 321 244 391 324 c 0,22,23
 400 333 400 333 409 341 c 0,24,25
 424 356 424 356 446 342 c 2,26,-1
 544 282 l 2,27,28
 558 274 558 274 562 261 c 0,29,30
 567 246 567 246 562 238 c 0,31,32
 555 226 555 226 545 212 c 0,33,34
 494 142 494 142 394 62 c 0,35,36
 280 -28 280 -28 235 -28 c 2,37,-1
 224 -28 l 1,38,39
 30 22 30 22 6 136 c 0,40,41
 0 164 0 164 0 229 c 0,42,43
 0 400 0 400 79 643 c 1,44,45
 161 901 161 901 244 978 c 0,46,47
 272 1005 272 1005 303 1026 c 0,48,49
 387 1084 387 1084 464 1084 c 0,50,51
 505 1084 505 1084 548 1066 c 1,52,53
 682 1005 682 1005 682 862 c 0,54,55
 682 832 682 832 675 798 c 0,56,57
 647 651 647 651 520 504 c 0,58,59
 394 359 394 359 249 304 c 1,14,15
EndSplineSet
PairPos2: "'kern' Horizontal Kerning lookup 1 per glyph data 0" ogonek dx=0 dy=0 dh=-718 dv=0 dx=0 dy=0 dh=0 dv=0
PairPos2: "'kern' Horizontal Kerning lookup 1 per glyph data 0" Z dx=0 dy=0 dh=-17 dv=0 dx=0 dy=0 dh=0 dv=0
PairPos2: "'kern' Horizontal Kerning lookup 1 per glyph data 0" Y dx=0 dy=0 dh=-99 dv=0 dx=0 dy=0 dh=0 dv=0
PairPos2: "'kern' Horizontal Kerning lookup 1 per glyph data 0" X dx=0 dy=0 dh=-41 dv=0 dx=0 dy=0 dh=0 dv=0
PairPos2: "'kern' Horizontal Kerning lookup 1 per glyph data 0" W dx=0 dy=0 dh=-22 dv=0 dx=0 dy=0 dh=0 dv=0
PairPos2: "'kern' Horizontal Kerning lookup 1 per glyph data 0" V dx=0 dy=0 dh=-44 dv=0 dx=0 dy=0 dh=0 dv=0
PairPos2: "'kern' Horizontal Kerning lookup 1 per glyph data 0" U dx=0 dy=0 dh=-15 dv=0 dx=0 dy=0 dh=0 dv=0
PairPos2: "'kern' Horizontal Kerning lookup 1 per glyph data 0" T dx=0 dy=0 dh=-179 dv=0 dx=0 dy=0 dh=0 dv=0
PairPos2: "'kern' Horizontal Kerning lookup 1 per glyph data 0" E dx=0 dy=0 dh=-35 dv=0 dx=0 dy=0 dh=0 dv=0
PairPos2: "'kern' Horizontal Kerning lookup 1 per glyph data 0" D dx=0 dy=0 dh=-44 dv=0 dx=0 dy=0 dh=0 dv=0
PairPos2: "'kern' Horizontal Kerning lookup 1 per glyph data 0" seven dx=0 dy=0 dh=-48 dv=0 dx=0 dy=0 dh=0 dv=0
EndChar

StartChar: f
Encoding: 102 102 73
Width: 622
GlyphClass: 2
Flags: W
LayerCount: 2
Fore
SplineSet
228 0 m 1,0,1
 228 0 228 0 76 0 c 0,2,3
 66 0 66 0 56 3 c 0,4,5
 24 13 24 13 32 46 c 2,6,-1
 254 880 l 1,7,-1
 158 880 l 1,8,9
 124 882 124 882 132 928 c 1,10,-1
 164 1042 l 2,11,12
 166 1049 166 1049 170 1058 c 0,13,14
 181 1080 181 1080 208 1080 c 2,15,-1
 307 1080 l 1,16,-1
 320 1130 l 2,17,18
 328 1162 328 1162 341 1201 c 0,19,20
 432 1473 432 1473 626 1529 c 1,21,22
 679 1546 679 1546 716 1534 c 1,23,-1
 900 1486 l 2,24,25
 916 1482 916 1482 926 1467 c 1,26,27
 944 1435 944 1435 920 1390 c 2,28,-1
 868 1292 l 2,29,30
 853 1264 853 1264 798 1282 c 2,31,-1
 674 1322 l 1,32,33
 673 1321 673 1321 671 1319 c 0,34,35
 609 1247 609 1247 588 1170 c 2,36,-1
 563 1080 l 1,37,-1
 672 1080 l 1,38,39
 707 1077 707 1077 702 1036 c 1,40,-1
 668 924 l 2,41,42
 655 882 655 882 616 880 c 1,43,-1
 509 880 l 1,44,-1
 286 44 l 2,45,46
 275 2 275 2 228 0 c 1,0,1
EndSplineSet
EndChar

StartChar: g
Encoding: 103 103 74
Width: 832
GlyphClass: 2
Flags: W
LayerCount: 2
Fore
SplineSet
820 1080 m 1,0,1
 870 1078 870 1078 862 1026 c 1,2,3
 795 756 795 756 589 48 c 0,4,5
 544 -106 544 -106 538 -130 c 0,6,7
 496 -283 496 -283 400 -336 c 0,8,9
 337 -370 337 -370 304 -378 c 0,10,11
 292 -380 292 -380 280 -380 c 0,12,13
 234 -380 234 -380 176 -346 c 2,14,-1
 -28 -230 l 2,15,16
 -43 -222 -43 -222 -50 -213 c 0,17,18
 -68 -187 -68 -187 -44 -158 c 1,19,-1
 20 -72 l 1,20,21
 20 -72 20 -72 24 -68 c 0,22,23
 53 -38 53 -38 86 -56 c 2,24,-1
 260 -150 l 2,25,26
 267 -154 267 -154 274 -154 c 0,27,28
 298 -154 298 -154 314 -104 c 1,29,-1
 384 141 l 1,30,-1
 370 124 l 2,31,32
 335 81 335 81 308 53 c 0,33,34
 250 -6 250 -6 204 -6 c 2,35,-1
 190 -6 l 1,36,37
 156 -4 156 -4 90 60 c 1,38,39
 13 142 13 142 13 232 c 0,40,41
 13 259 13 259 30 372 c 0,42,43
 47 479 47 479 137 739 c 1,44,45
 213 954 213 954 304 1024 c 1,46,47
 374 1076 374 1076 464 1076 c 128,-1,48
 554 1076 554 1076 635 1016 c 1,49,50
 635 1017 635 1017 636 1018 c 0,51,52
 654 1077 654 1077 698 1078 c 2,53,-1
 820 1080 l 1,0,1
586 854 m 1,54,55
 582 855 582 855 578 857 c 0,56,57
 541 868 541 868 516 867 c 0,58,59
 493 867 493 867 480 858 c 0,60,61
 445 831 445 831 389 690 c 0,62,63
 310 492 310 492 288 358 c 0,64,65
 282 321 282 321 282 313 c 0,66,67
 283 298 283 298 298 298 c 0,68,69
 302 298 302 298 306 300 c 0,70,71
 343 317 343 317 404 418 c 1,72,73
 510 601 510 601 576 824 c 1,74,-1
 586 854 l 1,54,55
EndSplineSet
EndChar

StartChar: h
Encoding: 104 104 75
Width: 870
GlyphClass: 2
Flags: W
LayerCount: 2
Fore
SplineSet
616 1472 m 1,0,1
 616 1472 616 1472 449 819 c 1,2,-1
 572 990 l 2,3,4
 579 1000 579 1000 590 1014 c 0,5,6
 648 1082 648 1082 722 1082 c 2,7,-1
 816 1082 l 2,8,9
 833 1082 833 1082 849 1078 c 0,10,11
 927 1057 927 1057 900 954 c 2,12,-1
 656 28 l 1,13,14
 647 0 647 0 606 0 c 2,15,-1
 444 0 l 2,16,17
 436 0 436 0 424 10 c 0,18,19
 414 18 414 18 420 40 c 0,20,21
 526 406 526 406 574 600 c 0,22,23
 589 660 589 660 583 634 c 1,24,25
 590 660 590 660 576 660 c 0,26,27
 565 660 565 660 544 626 c 0,28,29
 460 487 460 487 344 264 c 0,30,31
 295 169 295 169 274 130 c 1,32,-1
 252 44 l 2,33,34
 240 1 240 1 192 0 c 1,35,-1
 160 0 l 1,36,-1
 38 0 l 2,37,38
 26 0 26 0 14 3 c 0,39,40
 -26 16 -26 16 -14 64 c 2,41,-1
 346 1474 l 2,42,43
 358 1517 358 1517 406 1518 c 1,44,-1
 572 1518 l 2,45,46
 625 1518 625 1518 616 1472 c 1,0,1
EndSplineSet
EndChar

StartChar: i
Encoding: 105 105 76
Width: 494
GlyphClass: 2
Flags: W
LayerCount: 2
Fore
SplineSet
299 1080 m 1,0,-1
 461 1080 l 1,1,2
 514 1079 514 1079 505 1034 c 1,3,-1
 245 44 l 2,4,5
 233 1 233 1 185 0 c 1,6,-1
 23 0 l 1,7,8
 -30 1 -30 1 -21 46 c 1,9,-1
 239 1036 l 2,10,11
 251 1079 251 1079 299 1080 c 1,0,-1
289 1348 m 0,12,13
 289 1392 289 1392 314 1428 c 0,14,15
 357 1488 357 1488 437 1488 c 2,16,-1
 465 1488 l 2,17,18
 507 1488 507 1488 546 1455 c 0,19,20
 599 1409 599 1409 599 1348 c 0,21,22
 599 1304 599 1304 572 1268 c 0,23,24
 528 1210 528 1210 447 1210 c 2,25,-1
 421 1210 l 2,26,27
 378 1210 378 1210 341 1241 c 0,28,29
 289 1284 289 1284 289 1348 c 0,12,13
EndSplineSet
EndChar

StartChar: j
Encoding: 106 106 77
Width: 504
GlyphClass: 2
Flags: W
LayerCount: 2
Fore
SplineSet
310 1348 m 0,0,1
 310 1392 310 1392 335 1428 c 0,2,3
 378 1488 378 1488 458 1488 c 2,4,-1
 486 1488 l 2,5,6
 528 1488 528 1488 567 1455 c 0,7,8
 620 1409 620 1409 620 1348 c 0,9,10
 620 1304 620 1304 593 1268 c 0,11,12
 549 1210 549 1210 468 1210 c 2,13,-1
 442 1210 l 2,14,15
 399 1210 399 1210 362 1241 c 0,16,17
 310 1284 310 1284 310 1348 c 0,0,1
-188 -350 m 2,18,-1
 -252 -252 l 2,19,20
 -261 -238 -261 -238 -261 -222 c 0,21,22
 -261 -196 -261 -196 -236 -186 c 0,23,24
 -187 -166 -187 -166 -142 -130 c 0,25,26
 -37 -44 -37 -44 -4 82 c 2,27,-1
 248 1036 l 2,28,29
 260 1080 260 1080 300 1080 c 2,30,-1
 470 1080 l 2,31,32
 492 1080 492 1080 502 1072 c 0,33,34
 521 1059 521 1059 514 1034 c 2,35,-1
 254 44 l 2,36,37
 211 -122 211 -122 88 -238 c 0,38,39
 -12 -332 -12 -332 -126 -366 c 1,40,41
 -172 -375 -172 -375 -188 -350 c 2,18,-1
EndSplineSet
EndChar

StartChar: k
Encoding: 107 107 78
Width: 878
GlyphClass: 2
Flags: W
LayerCount: 2
Fore
SplineSet
428 746 m 1,0,-1
 673 1054 l 2,1,2
 694 1080 694 1080 733 1080 c 2,3,-1
 943 1080 l 2,4,5
 965 1080 965 1080 974 1065 c 1,6,7
 985 1042 985 1042 953 1006 c 2,8,-1
 568 568 l 1,9,-1
 733 60 l 2,10,11
 752 0 752 0 687 0 c 2,12,-1
 529 0 l 2,13,14
 500 0 500 0 483 11 c 0,15,16
 463 24 463 24 455 50 c 2,17,-1
 346 424 l 1,18,-1
 249 44 l 2,19,20
 238 0 238 0 189 0 c 2,21,-1
 35 0 l 2,22,23
 9 0 9 0 -5 12 c 0,24,25
 -26 30 -26 30 -17 64 c 2,26,-1
 343 1474 l 2,27,28
 354 1518 354 1518 403 1518 c 2,29,-1
 569 1518 l 2,30,31
 625 1518 625 1518 613 1472 c 2,32,-1
 428 746 l 1,0,-1
EndSplineSet
EndChar

StartChar: l
Encoding: 108 108 79
Width: 486
GlyphClass: 2
Flags: W
LayerCount: 2
Fore
SplineSet
403 1518 m 1,0,-1
 569 1518 l 1,1,2
 625 1517 625 1517 613 1472 c 2,3,-1
 249 44 l 1,4,5
 236 0 236 0 189 0 c 2,6,-1
 35 0 l 2,7,8
 13 0 13 0 -1 10 c 0,9,10
 -26 29 -26 29 -17 64 c 2,11,-1
 343 1474 l 2,12,13
 355 1517 355 1517 403 1518 c 1,0,-1
EndSplineSet
EndChar

StartChar: m
Encoding: 109 109 80
Width: 1264
GlyphClass: 2
Flags: W
LayerCount: 2
Fore
SplineSet
397 785 m 1,0,-1
 543 988 l 2,1,2
 550 998 550 998 561 1012 c 0,3,4
 619 1080 619 1080 693 1080 c 2,5,-1
 791 1080 l 2,6,7
 808 1080 808 1080 824 1076 c 0,8,9
 902 1055 902 1055 875 952 c 2,10,-1
 836 804 l 1,11,-1
 975 982 l 1,12,13
 994 1008 994 1008 1012 1027 c 0,14,15
 1066 1082 1066 1082 1137 1082 c 2,16,-1
 1211 1082 l 2,17,18
 1221 1082 1221 1082 1232 1080 c 0,19,20
 1322 1065 1322 1065 1289 940 c 2,21,-1
 1049 28 l 2,22,23
 1042 0 1042 0 999 0 c 2,24,-1
 851 0 l 2,25,26
 827 0 827 0 817 11 c 1,27,28
 811 16 811 16 811 32 c 0,29,30
 811 53 811 53 829 114 c 2,31,32
 829 114 829 114 945 504 c 0,33,34
 952 528 952 528 957 548 c 0,35,36
 989 656 989 656 975 656 c 0,37,38
 966 656 966 656 954 643 c 0,39,40
 946 634 946 634 905 562 c 0,41,42
 859 480 859 480 777 314 c 0,43,44
 654 63 654 63 631 28 c 1,45,46
 617 0 617 0 581 0 c 2,47,-1
 419 0 l 2,48,49
 410 0 410 0 399 10 c 0,50,51
 391 18 391 18 399 48 c 2,52,-1
 523 504 l 1,53,54
 523 504 523 504 533 537 c 0,55,56
 567 656 567 656 545 656 c 0,57,58
 535 656 535 656 521 638 c 0,59,60
 520 637 520 637 479 570 c 0,61,62
 427 484 427 484 333 300 c 0,63,64
 217 72 217 72 193 38 c 1,65,66
 163 0 163 0 131 0 c 2,67,-1
 9 0 l 2,68,69
 -8 0 -8 0 -18 15 c 1,70,71
 -28 32 -28 32 -23 52 c 2,72,-1
 237 1024 l 1,73,74
 250 1078 250 1078 297 1080 c 1,75,-1
 425 1080 l 2,76,77
 445 1080 445 1080 458 1076 c 0,78,79
 488 1066 488 1066 475 1018 c 1,80,-1
 397 785 l 1,0,-1
EndSplineSet
EndChar

StartChar: n
Encoding: 110 110 81
Width: 852
GlyphClass: 2
Flags: W
LayerCount: 2
Fore
SplineSet
400 785 m 1,0,-1
 546 988 l 2,1,2
 553 998 553 998 564 1012 c 0,3,4
 622 1080 622 1080 696 1080 c 2,5,-1
 794 1080 l 2,6,7
 811 1080 811 1080 827 1076 c 0,8,9
 905 1055 905 1055 878 952 c 2,10,-1
 638 42 l 2,11,12
 627 1 627 1 584 0 c 1,13,-1
 429 0 l 2,14,15
 412 0 412 0 404 9 c 0,16,17
 394 20 394 20 402 48 c 2,18,-1
 526 504 l 2,19,20
 526 505 526 505 536 537 c 0,21,22
 571 656 571 656 548 656 c 0,23,24
 538 656 538 656 524 638 c 0,25,26
 523 637 523 637 482 570 c 0,27,28
 430 484 430 484 336 300 c 0,29,30
 220 72 220 72 196 38 c 1,31,32
 167 1 167 1 134 0 c 1,33,-1
 12 0 l 2,34,35
 4 0 4 0 -4 5 c 0,36,37
 -28 19 -28 19 -20 52 c 2,38,-1
 240 1024 l 2,39,40
 255 1078 255 1078 300 1080 c 1,41,-1
 428 1080 l 2,42,43
 448 1080 448 1080 461 1076 c 0,44,45
 494 1065 494 1065 478 1018 c 2,46,-1
 400 785 l 1,0,-1
EndSplineSet
EndChar

StartChar: o
Encoding: 111 111 82
Width: 764
GlyphClass: 2
Flags: W
LayerCount: 2
Fore
SplineSet
498 566 m 0,0,1
 522 681 522 681 522 752 c 0,2,3
 522 864 522 864 472 864 c 0,4,5
 442 864 442 864 419 842 c 1,6,7
 373 794 373 794 334 693 c 0,8,9
 246 469 246 469 246 350 c 0,10,11
 246 224 246 224 300 224 c 1,12,13
 331 225 331 225 356 248 c 0,14,15
 395 285 395 285 426 356 c 0,16,17
 479 476 479 476 498 566 c 0,0,1
120 822 m 1,18,19
 146 882 146 882 183 932 c 0,20,21
 238 1007 238 1007 306 1048 c 0,22,23
 388 1098 388 1098 490 1098 c 0,24,25
 511 1098 511 1098 530 1096 c 0,26,27
 657 1080 657 1080 716 964 c 0,28,29
 729 940 729 940 737 908 c 0,30,31
 750 857 750 857 750 726 c 0,32,33
 750 680 750 680 744 630 c 0,34,35
 718 416 718 416 606 228 c 0,36,37
 587 196 587 196 566 166 c 0,38,39
 434 -16 434 -16 286 -16 c 0,40,41
 256 -16 256 -16 235 -14 c 0,42,43
 128 -3 128 -3 63 94 c 1,44,45
 0 191 0 191 0 350 c 0,46,47
 0 568 0 568 120 822 c 1,18,19
EndSplineSet
EndChar

StartChar: p
Encoding: 112 112 83
Width: 834
GlyphClass: 2
Flags: W
LayerCount: 2
Fore
SplineSet
77 -400 m 2,0,-1
 -77 -400 l 2,1,2
 -100 -400 -100 -400 -116 -388 c 0,3,4
 -138 -371 -138 -371 -129 -336 c 2,5,-1
 223 1036 l 2,6,7
 234 1078 234 1078 283 1080 c 1,8,-1
 449 1080 l 1,9,10
 505 1079 505 1079 493 1034 c 2,11,-1
 455 887 l 1,12,-1
 503 944 l 2,13,14
 544 993 544 993 565 1015 c 0,15,16
 623 1074 623 1074 669 1074 c 2,17,-1
 683 1074 l 1,18,19
 717 1072 717 1072 783 1008 c 1,20,21
 860 930 860 930 860 836 c 0,22,23
 860 824 860 824 858 806 c 0,24,25
 833 577 833 577 736 329 c 0,26,27
 648 105 648 105 569 44 c 1,28,29
 501 -7 501 -7 409 -8 c 0,30,31
 320 -8 320 -8 241 50 c 1,32,-1
 137 -356 l 2,33,34
 126 -400 126 -400 77 -400 c 2,0,-1
287 214 m 1,35,36
 291 213 291 213 295 211 c 0,37,38
 332 200 332 200 357 201 c 0,39,40
 380 201 380 201 393 210 c 0,41,42
 428 237 428 237 484 378 c 0,43,44
 560 570 560 570 585 710 c 0,45,46
 591 744 591 744 591 755 c 0,47,48
 591 770 591 770 575 770 c 0,49,50
 561 770 561 770 534 740 c 0,51,52
 501 704 501 704 469 650 c 0,53,54
 363 467 363 467 297 244 c 1,55,-1
 287 214 l 1,35,36
EndSplineSet
EndChar

StartChar: q
Encoding: 113 113 84
Width: 840
GlyphClass: 2
Flags: W
LayerCount: 2
Fore
SplineSet
369 176 m 1,0,-1
 326 124 l 2,1,2
 290 80 290 80 264 53 c 0,3,4
 206 -6 206 -6 160 -6 c 2,5,-1
 146 -6 l 1,6,7
 112 -4 112 -4 46 60 c 1,8,9
 -31 138 -31 138 -31 232 c 0,10,11
 -31 244 -31 244 -29 262 c 0,12,13
 -4 491 -4 491 93 739 c 0,14,15
 181 963 181 963 260 1024 c 1,16,17
 328 1075 328 1075 420 1076 c 0,18,19
 509 1076 509 1076 586 1019 c 1,20,-1
 593 1046 l 2,21,22
 602 1080 602 1080 650 1080 c 2,23,-1
 816 1080 l 1,24,25
 872 1079 872 1079 860 1034 c 2,26,-1
 504 -356 l 2,27,28
 493 -400 493 -400 444 -400 c 2,29,-1
 290 -400 l 2,30,31
 263 -400 263 -400 250 -388 c 0,32,33
 230 -368 230 -368 238 -336 c 2,34,-1
 369 176 l 1,0,-1
542 854 m 1,35,36
 538 855 538 855 534 857 c 0,37,38
 497 868 497 868 472 867 c 0,39,40
 449 867 449 867 436 858 c 0,41,42
 401 831 401 831 345 690 c 0,43,44
 277 520 277 520 244 358 c 0,45,46
 238 330 238 330 238 313 c 0,47,48
 238 298 238 298 255 298 c 0,49,50
 284 298 284 298 360 418 c 0,51,52
 457 571 457 571 532 824 c 1,53,-1
 542 854 l 1,35,36
EndSplineSet
EndChar

StartChar: r
Encoding: 114 114 85
Width: 674
GlyphClass: 2
Flags: W
LayerCount: 2
Fore
SplineSet
401 664 m 1,0,-1
 238 44 l 2,1,2
 226 1 226 1 178 0 c 1,3,-1
 16 0 l 1,4,5
 -40 2 -40 2 -28 46 c 2,6,-1
 232 1036 l 2,7,8
 244 1079 244 1079 292 1080 c 1,9,-1
 454 1080 l 1,10,11
 510 1078 510 1078 498 1034 c 2,12,-1
 462 899 l 1,13,14
 504 960 504 960 542 1006 c 1,15,16
 577 1050 577 1050 606 1070 c 0,17,18
 629 1086 629 1086 690 1086 c 2,19,-1
 800 1086 l 2,20,21
 826 1086 826 1086 838 1075.5 c 128,-1,22
 850 1065 850 1065 840.5 1041 c 128,-1,23
 831 1017 831 1017 794 984 c 0,24,25
 789 979 789 979 782 973 c 0,26,27
 745 938 745 938 670 844 c 1,28,29
 619 778 619 778 618 752 c 1,30,31
 619 701 619 701 668 654 c 0,32,33
 675 647 675 647 672 637 c 1,34,35
 663 618 663 618 630 616 c 2,36,-1
 488 604 l 2,37,38
 454 602 454 602 434 616 c 0,39,40
 423 624 423 624 401 664 c 1,0,-1
EndSplineSet
PairPos2: "'kern' Horizontal Kerning lookup 1 per glyph data 0" eth dx=0 dy=0 dh=-10 dv=0 dx=0 dy=0 dh=0 dv=0
PairPos2: "'kern' Horizontal Kerning lookup 1 per glyph data 0" ae dx=0 dy=0 dh=-13 dv=0 dx=0 dy=0 dh=0 dv=0
PairPos2: "'kern' Horizontal Kerning lookup 1 per glyph data 0" braceright dx=0 dy=0 dh=-24 dv=0 dx=0 dy=0 dh=0 dv=0
PairPos2: "'kern' Horizontal Kerning lookup 1 per glyph data 0" bracketright dx=0 dy=0 dh=-34 dv=0 dx=0 dy=0 dh=0 dv=0
PairPos2: "'kern' Horizontal Kerning lookup 1 per glyph data 0" Z dx=0 dy=0 dh=-123 dv=0 dx=0 dy=0 dh=0 dv=0
PairPos2: "'kern' Horizontal Kerning lookup 1 per glyph data 0" Y dx=0 dy=0 dh=-31 dv=0 dx=0 dy=0 dh=0 dv=0
PairPos2: "'kern' Horizontal Kerning lookup 1 per glyph data 0" X dx=0 dy=0 dh=-37 dv=0 dx=0 dy=0 dh=0 dv=0
PairPos2: "'kern' Horizontal Kerning lookup 1 per glyph data 0" T dx=0 dy=0 dh=-184 dv=0 dx=0 dy=0 dh=0 dv=0
PairPos2: "'kern' Horizontal Kerning lookup 1 per glyph data 0" E dx=0 dy=0 dh=-35 dv=0 dx=0 dy=0 dh=0 dv=0
PairPos2: "'kern' Horizontal Kerning lookup 1 per glyph data 0" D dx=0 dy=0 dh=-42 dv=0 dx=0 dy=0 dh=0 dv=0
PairPos2: "'kern' Horizontal Kerning lookup 1 per glyph data 0" question dx=0 dy=0 dh=-22 dv=0 dx=0 dy=0 dh=0 dv=0
PairPos2: "'kern' Horizontal Kerning lookup 1 per glyph data 0" seven dx=0 dy=0 dh=-25 dv=0 dx=0 dy=0 dh=0 dv=0
PairPos2: "'kern' Horizontal Kerning lookup 1 per glyph data 0" one dx=0 dy=0 dh=32 dv=0 dx=0 dy=0 dh=0 dv=0
PairPos2: "'kern' Horizontal Kerning lookup 1 per glyph data 0" slash dx=0 dy=0 dh=-27 dv=0 dx=0 dy=0 dh=0 dv=0
PairPos2: "'kern' Horizontal Kerning lookup 1 per glyph data 0" period dx=0 dy=0 dh=-286 dv=0 dx=0 dy=0 dh=0 dv=0
PairPos2: "'kern' Horizontal Kerning lookup 1 per glyph data 0" comma dx=0 dy=0 dh=-70 dv=0 dx=0 dy=0 dh=0 dv=0
PairPos2: "'kern' Horizontal Kerning lookup 1 per glyph data 0" asterisk dx=0 dy=0 dh=14 dv=0 dx=0 dy=0 dh=0 dv=0
PairPos2: "'kern' Horizontal Kerning lookup 1 per glyph data 0" parenright dx=0 dy=0 dh=-29 dv=0 dx=0 dy=0 dh=0 dv=0
EndChar

StartChar: s
Encoding: 115 115 86
Width: 682
GlyphClass: 2
Flags: W
LayerCount: 2
Fore
SplineSet
442 1098 m 2,0,1
 442 1098 442 1098 476 1098 c 0,2,3
 545 1098 545 1098 612 1058 c 0,4,5
 701 1005 701 1005 742 918 c 0,6,7
 744 914 744 914 745 908 c 0,8,9
 753 871 753 871 728 854 c 2,10,-1
 630 786 l 2,11,12
 598 764 598 764 570 796 c 1,13,14
 505 876 505 876 442 890 c 1,15,16
 426 881 426 881 407 854 c 0,17,18
 364 790 364 790 364 724 c 0,19,20
 364 654 364 654 426 644 c 2,21,-1
 462 638 l 2,22,23
 503 631 503 631 532 617 c 1,24,25
 618 580 618 580 618 432 c 1,26,27
 616 264 616 264 501 114 c 0,28,29
 397 -22 397 -22 268 -22 c 2,30,-1
 242 -22 l 2,31,32
 167 -22 167 -22 102 18 c 0,33,34
 26 66 26 66 -10 146 c 1,35,36
 -30 194 -30 194 -6 222 c 1,37,-1
 80 290 l 1,38,39
 91 300 91 300 104 305 c 0,40,41
 138 316 138 316 154 282 c 0,42,43
 162 266 162 266 179 248 c 0,44,45
 227 196 227 196 276 192 c 1,46,47
 299 204 299 204 318 237 c 0,48,49
 355 302 355 302 358 392 c 1,50,51
 357 469 357 469 270 482 c 2,52,-1
 244 486 l 2,53,54
 216 490 216 490 193 499 c 0,55,56
 108 535 108 535 108 662 c 1,57,58
 109 702 109 702 118 744 c 0,59,60
 149 889 149 889 249 997 c 1,61,62
 345 1098 345 1098 442 1098 c 2,0,1
EndSplineSet
EndChar

StartChar: t
Encoding: 116 116 87
Width: 532
GlyphClass: 2
Flags: W
LayerCount: 2
Fore
SplineSet
539 1080 m 1,0,-1
 647 1080 l 1,1,2
 682 1077 682 1077 677 1036 c 1,3,-1
 643 924 l 2,4,5
 629 881 629 881 591 880 c 1,6,-1
 488 880 l 1,7,-1
 275 44 l 1,8,9
 263 1 263 1 215 0 c 1,10,-1
 61 0 l 2,11,12
 48 0 48 0 37 3 c 0,13,14
 -2 16 -2 16 9 64 c 1,15,-1
 217 880 l 1,16,-1
 141 880 l 1,17,18
 107 882 107 882 115 928 c 1,19,-1
 147 1042 l 2,20,21
 150 1050 150 1050 153 1058 c 0,22,23
 164 1080 164 1080 191 1080 c 2,24,-1
 268 1080 l 1,25,-1
 331 1326 l 2,26,27
 343 1369 343 1369 391 1370 c 1,28,-1
 557 1370 l 1,29,30
 612 1369 612 1369 601 1324 c 2,31,-1
 539 1080 l 1,0,-1
EndSplineSet
EndChar

StartChar: u
Encoding: 117 117 88
Width: 822
GlyphClass: 2
Flags: W
LayerCount: 2
Fore
SplineSet
480 298 m 1,0,-1
 363 132 l 1,1,2
 339 95 339 95 316 68 c 0,3,4
 256 -2 256 -2 181 -2 c 2,5,-1
 169 -2 l 2,6,7
 125 -2 125 -2 92 19 c 1,8,9
 12 73 12 73 39 232 c 0,10,11
 52 306 52 306 117 547 c 0,12,13
 227 953 227 953 263 1052 c 0,14,15
 273 1079 273 1079 313 1080 c 1,16,-1
 469 1080 l 2,17,18
 488 1080 488 1080 494 1062 c 0,19,20
 499 1046 499 1046 487 1008 c 0,21,22
 381 676 381 676 337 504 c 0,23,24
 328 468 328 468 328 448 c 0,25,26
 328 426 328 426 340 426 c 0,27,28
 361 426 361 426 405 506 c 0,29,30
 575 812 575 812 677 1034 c 1,31,32
 699 1078 699 1078 743 1080 c 1,33,-1
 865 1080 l 2,34,35
 873 1080 873 1080 881 1075 c 0,36,37
 905 1061 905 1061 897 1028 c 2,38,-1
 637 54 l 2,39,40
 623 2 623 2 577 0 c 1,41,-1
 453 0 l 2,42,43
 392 0 392 0 415 72 c 1,44,-1
 480 298 l 1,0,-1
EndSplineSet
EndChar

StartChar: v
Encoding: 118 118 89
Width: 872
GlyphClass: 2
Flags: W
LayerCount: 2
Fore
SplineSet
413 374 m 1,0,1
 570 720 570 720 648 1050 c 0,2,3
 657 1090 657 1090 704 1088 c 1,4,-1
 862 1076 l 2,5,6
 870 1075 870 1075 882 1070 c 0,7,8
 914 1056 914 1056 904 1026 c 0,9,10
 692 401 692 401 502 114 c 0,11,12
 491 98 491 98 482 84 c 0,13,14
 422 0 422 0 376 0 c 1,15,-1
 243 10 l 2,16,17
 214 12 214 12 195 32 c 1,18,19
 165 61 165 61 170 110 c 0,20,21
 174 153 174 153 178 202 c 0,22,23
 210 667 210 667 168 1006 c 0,24,25
 168 1007 168 1007 168 1008 c 0,26,27
 160 1080 160 1080 216 1080 c 2,28,-1
 370 1080 l 2,29,30
 377 1080 377 1080 383 1079 c 0,31,32
 413 1074 413 1074 418 1034 c 1,33,34
 446 731 446 731 413 374 c 1,0,1
EndSplineSet
EndChar

StartChar: w
Encoding: 119 119 90
Width: 1232
GlyphClass: 2
Flags: W
LayerCount: 2
Fore
SplineSet
398 361 m 1,0,1
 542 700 542 700 611 1006 c 1,2,-1
 609 1036 l 2,3,4
 608 1042 608 1042 609 1049 c 0,5,6
 614 1080 614 1080 657 1080 c 2,7,-1
 799 1080 l 1,8,9
 831 1077 831 1077 843 1034 c 1,10,11
 871 700 871 700 851 366 c 1,12,13
 1000 725 1000 725 1071 1050 c 0,14,15
 1079 1090 1079 1090 1123 1088 c 1,16,-1
 1273 1076 l 1,17,18
 1282 1074 1282 1074 1291 1070 c 0,19,20
 1322 1055 1322 1055 1311 1026 c 1,21,22
 1128 434 1128 434 937 114 c 0,23,24
 931 104 931 104 925 95 c 0,25,26
 865 0 865 0 821 0 c 1,27,-1
 679 8 l 2,28,29
 664 9 664 9 649 23 c 0,30,31
 611 59 611 59 617 124 c 0,32,33
 632 287 632 287 632 487 c 1,34,35
 548 255 548 255 463 114 c 0,36,37
 452 96 452 96 443 81 c 0,38,39
 390 0 390 0 349 0 c 1,40,-1
 207 8 l 2,41,42
 192 9 192 9 177 23 c 0,43,44
 139 59 139 59 145 124 c 0,45,46
 179 521 179 521 137 1036 c 0,47,48
 136 1042 136 1042 137 1049 c 0,49,50
 142 1080 142 1080 185 1080 c 2,51,-1
 345 1080 l 2,52,53
 350 1080 350 1080 356 1079 c 0,54,55
 386 1075 386 1075 391 1034 c 1,56,57
 419 693 419 693 398 361 c 1,0,1
EndSplineSet
EndChar

StartChar: x
Encoding: 120 120 91
Width: 804
GlyphClass: 2
Flags: W
LayerCount: 2
Fore
SplineSet
534 536 m 1,0,-1
 658 60 l 2,1,2
 673 1 673 1 612 0 c 1,3,-1
 470 0 l 2,4,5
 406 0 406 0 396 50 c 2,6,-1
 350 288 l 1,7,-1
 214 36 l 2,8,9
 195 0 195 0 146 0 c 2,10,-1
 -26 0 l 2,11,12
 -60 0 -60 0 -66 14 c 0,13,14
 -74 32 -74 32 -55 62 c 2,15,-1
 267 556 l 1,16,-1
 146 1020 l 1,17,18
 129 1080 129 1080 192 1080 c 2,19,-1
 334 1080 l 2,20,21
 398 1080 398 1080 408 1030 c 2,22,-1
 463 765 l 1,23,-1
 630 1054 l 2,24,25
 645 1080 645 1080 690 1080 c 2,26,-1
 858 1080 l 2,27,28
 866 1080 866 1080 874 1078 c 0,29,30
 909 1066 909 1066 879 1023 c 2,31,-1
 534 536 l 1,0,-1
EndSplineSet
EndChar

StartChar: y
Encoding: 121 121 92
Width: 832
GlyphClass: 2
Flags: W
LayerCount: 2
Fore
SplineSet
443 241 m 1,0,-1
 368 122 l 2,1,2
 324 51 324 51 286 32 c 0,3,4
 265 22 265 22 210 22 c 2,5,-1
 198 22 l 2,6,7
 129 22 129 22 80 82 c 0,8,9
 72 92 72 92 63 108 c 0,10,11
 18 193 18 193 42 294 c 0,12,13
 51 330 51 330 80 438 c 0,14,15
 220 956 220 956 254 1052 c 0,16,17
 264 1079 264 1079 304 1080 c 1,18,-1
 460 1080 l 2,19,20
 499 1080 499 1080 482 1022 c 0,21,22
 480 1016 480 1016 478 1008 c 0,23,24
 346 574 346 574 328 504 c 0,25,26
 320 469 320 469 320 450 c 0,27,28
 320 427 320 427 332 426 c 1,29,30
 353 426 353 426 396 506 c 0,31,32
 584 850 584 850 668 1034 c 1,33,34
 690 1078 690 1078 734 1080 c 1,35,-1
 826 1080 l 1,36,-1
 850 1080 l 1,37,38
 906 1077 906 1077 892 1026 c 2,39,-1
 619 48 l 2,40,41
 557 -176 557 -176 526 -236 c 1,42,43
 498 -288 498 -288 442 -327 c 0,44,45
 367 -380 367 -380 310 -380 c 0,46,47
 264 -380 264 -380 206 -346 c 2,48,-1
 2 -230 l 2,49,50
 -13 -222 -13 -222 -20 -213 c 0,51,52
 -38 -187 -38 -187 -14 -158 c 1,53,-1
 50 -72 l 1,54,55
 50 -72 50 -72 54 -68 c 0,56,57
 83 -38 83 -38 116 -56 c 2,58,-1
 290 -150 l 2,59,60
 297 -154 297 -154 304 -154 c 0,61,62
 328 -154 328 -154 344 -104 c 1,63,-1
 443 241 l 1,0,-1
EndSplineSet
EndChar

StartChar: z
Encoding: 122 122 93
Width: 758
GlyphClass: 2
Flags: W
LayerCount: 2
Fore
SplineSet
264 202 m 1,0,-1
 384 202 l 1,1,-1
 396 248 l 2,2,3
 406 287 406 287 458 292 c 2,4,-1
 602 304 l 2,5,6
 611 304 611 304 619 303 c 0,7,8
 656 296 656 296 646 256 c 2,9,-1
 590 44 l 2,10,11
 578 1 578 1 530 0 c 1,12,-1
 520 0 l 1,13,-1
 388 0 l 1,14,-1
 -24 0 l 1,15,16
 -79 1 -79 1 -94 41 c 1,17,18
 -108 82 -108 82 -74 126 c 2,19,20
 -74 126 -74 126 489 880 c 1,21,-1
 374 880 l 1,22,-1
 362 832 l 2,23,24
 352 793 352 793 300 788 c 2,25,-1
 156 776 l 2,26,27
 147 776 147 776 139 777 c 0,28,29
 102 784 102 784 112 824 c 2,30,-1
 170 1040 l 1,31,32
 182 1079 182 1079 228 1080 c 1,33,-1
 758 1080 l 1,34,35
 800 1079 800 1079 825 1046 c 1,36,37
 861 994 861 994 806 920 c 2,38,-1
 264 202 l 1,0,-1
EndSplineSet
EndChar

StartChar: braceleft
Encoding: 123 123 94
Width: 644
GlyphClass: 2
Flags: W
LayerCount: 2
Fore
SplineSet
423 -324 m 1,0,-1
 195 -328 l 1,1,2
 118 -328 118 -328 54 -281 c 0,3,4
 -31 -218 -31 -218 -45 -112 c 1,5,6
 -54 -66 -54 -66 -42 -7 c 0,7,8
 -24 75 -24 75 63 238 c 0,9,10
 141 383 141 383 157 438 c 0,11,12
 191 552 191 552 103 586 c 2,13,-1
 57 604 l 2,14,15
 10 623 10 623 23 682 c 1,16,-1
 59 832 l 2,17,18
 59 833 59 833 60 836 c 0,19,20
 73 878 73 878 131 892 c 2,21,-1
 211 912 l 2,22,23
 221 915 221 915 230 918 c 0,24,25
 317 951 317 951 321 1073 c 0,26,27
 322 1100 322 1100 311 1224 c 0,28,29
 300 1354 300 1354 317 1450 c 0,30,31
 369 1728 369 1728 689 1732 c 1,32,-1
 929 1732 l 1,33,34
 988 1731 988 1731 975 1668 c 2,35,-1
 949 1550 l 2,36,37
 946 1538 946 1538 938 1526 c 0,38,39
 915 1494 915 1494 883 1494 c 2,40,-1
 725 1494 l 2,41,42
 681 1494 681 1494 647 1484 c 0,43,44
 516 1445 516 1445 541 1234 c 0,45,46
 545 1196 545 1196 548 1168 c 0,47,48
 572 932 572 932 517 854 c 0,49,50
 476 795 476 795 416 761 c 0,51,52
 392 748 392 748 299 712 c 1,53,54
 331 686 331 686 360 649 c 0,55,56
 445 542 445 542 425 456 c 0,57,58
 409 385 409 385 340 257 c 0,59,60
 260 111 260 111 245 76 c 0,61,62
 209 -7 209 -7 217 -45 c 0,63,64
 226 -86 226 -86 303 -86 c 2,65,-1
 483 -86 l 1,66,67
 542 -87 542 -87 529 -150 c 2,68,-1
 503 -268 l 2,69,70
 500 -280 500 -280 492 -292 c 0,71,72
 469 -324 469 -324 435 -324 c 2,73,-1
 423 -324 l 1,0,-1
EndSplineSet
EndChar

StartChar: bar
Encoding: 124 124 95
Width: 478
GlyphClass: 2
Flags: W
LayerCount: 2
Fore
SplineSet
581 1472 m 1,0,1
 581 1472 581 1472 113 -356 c 0,2,3
 101 -399 101 -399 53 -400 c 1,4,-1
 -85 -400 l 2,5,6
 -98 -400 -98 -400 -109 -397 c 0,7,8
 -148 -384 -148 -384 -137 -336 c 1,9,-1
 327 1474 l 2,10,11
 339 1517 339 1517 387 1518 c 1,12,-1
 537 1518 l 1,13,14
 590 1517 590 1517 581 1472 c 1,0,1
EndSplineSet
EndChar

StartChar: braceright
Encoding: 125 125 96
Width: 684
GlyphClass: 2
Flags: W
LayerCount: 2
Fore
SplineSet
283 1728 m 1,0,-1
 511 1732 l 1,1,2
 588 1732 588 1732 652 1685 c 0,3,4
 737 1622 737 1622 751 1516 c 1,5,6
 760 1470 760 1470 748 1411 c 0,7,8
 730 1329 730 1329 643 1166 c 0,9,10
 565 1021 565 1021 549 966 c 0,11,12
 515 852 515 852 603 818 c 2,13,-1
 649 800 l 2,14,15
 696 781 696 781 683 722 c 1,16,-1
 647 572 l 2,17,18
 647 571 647 571 646 568 c 0,19,20
 633 526 633 526 575 512 c 2,21,-1
 495 492 l 2,22,23
 485 489 485 489 476 486 c 0,24,25
 389 453 389 453 385 331 c 0,26,27
 384 304 384 304 395 180 c 0,28,29
 406 50 406 50 389 -46 c 0,30,31
 337 -324 337 -324 17 -328 c 1,32,-1
 -223 -328 l 1,33,34
 -282 -327 -282 -327 -269 -264 c 2,35,-1
 -243 -146 l 2,36,37
 -240 -134 -240 -134 -232 -122 c 0,38,39
 -209 -90 -209 -90 -177 -90 c 2,40,-1
 -19 -90 l 2,41,42
 25 -90 25 -90 59 -80 c 0,43,44
 190 -41 190 -41 165 170 c 0,45,46
 161 208 161 208 158 236 c 0,47,48
 134 472 134 472 189 550 c 0,49,50
 230 609 230 609 290 643 c 0,51,52
 314 656 314 656 407 692 c 1,53,54
 375 718 375 718 346 755 c 0,55,56
 261 862 261 862 281 948 c 0,57,58
 297 1019 297 1019 366 1147 c 0,59,60
 446 1293 446 1293 461 1328 c 0,61,62
 497 1411 497 1411 489 1449 c 0,63,64
 480 1490 480 1490 403 1490 c 2,65,-1
 223 1490 l 1,66,67
 164 1491 164 1491 177 1554 c 2,68,-1
 203 1672 l 2,69,70
 206 1684 206 1684 214 1696 c 0,71,72
 237 1728 237 1728 271 1728 c 2,73,-1
 283 1728 l 1,0,-1
EndSplineSet
EndChar

StartChar: asciitilde
Encoding: 126 126 97
Width: 0
GlyphClass: 2
Flags: W
LayerCount: 2
Fore
SplineSet
125 738 m 1,0,1
 125 738 125 738 155 856 c 0,2,3
 155 857 155 857 156 859 c 0,4,5
 163 883 163 883 187 896 c 1,6,7
 219 909 219 909 267 917 c 0,8,9
 394 936 394 936 497 904 c 0,10,11
 504 902 504 902 512 900 c 0,12,13
 648 862 648 862 811 904 c 0,14,15
 828 908 828 908 841 902 c 1,16,17
 868 887 868 887 857 840 c 2,18,-1
 829 716 l 2,19,20
 828 712 828 712 826 707 c 0,21,22
 816 682 816 682 777 670 c 0,23,24
 599 619 599 619 481 666 c 0,25,26
 343 722 343 722 163 666 c 0,27,28
 148 661 148 661 138 665 c 0,29,30
 108 677 108 677 125 738 c 1,0,1
EndSplineSet
EndChar

StartChar: exclamdown
Encoding: 161 161 99
Width: 528
GlyphClass: 2
Flags: W
LayerCount: 2
Fore
SplineSet
379 1326 m 0,0,1
 379 1370 379 1370 404 1406 c 0,2,3
 447 1466 447 1466 527 1466 c 2,4,-1
 555 1466 l 2,5,6
 597 1466 597 1466 636 1433 c 0,7,8
 689 1387 689 1387 689 1326 c 0,9,10
 689 1282 689 1282 662 1246 c 0,11,12
 618 1188 618 1188 537 1188 c 2,13,-1
 511 1188 l 2,14,15
 468 1188 468 1188 431 1219 c 0,16,17
 379 1262 379 1262 379 1326 c 0,0,1
565 1012 m 2,18,19
 565 1012 565 1012 345 22 c 1,20,21
 333 -21 333 -21 285 -22 c 1,22,-1
 55 -22 l 1,23,24
 2 -21 2 -21 11 24 c 1,25,-1
 351 1014 l 1,26,27
 363 1057 363 1057 411 1058 c 1,28,-1
 521 1058 l 1,29,30
 574 1057 574 1057 565 1012 c 2,18,19
EndSplineSet
EndChar

StartChar: cent
Encoding: 162 162 100
Width: 796
GlyphClass: 2
Flags: W
LayerCount: 2
Fore
SplineSet
225 -190 m 2,0,1
 213 -190 213 -190 203 -187 c 0,2,3
 164 -175 164 -175 175 -128 c 1,4,-1
 211 0 l 1,5,6
 174 16 174 16 146 46 c 0,7,8
 38 163 38 163 89 460 c 1,9,10
 127 673 127 673 215 825 c 1,11,12
 325 1012 325 1012 480 1056 c 1,13,-1
 529 1238 l 2,14,15
 541 1279 541 1279 587 1280 c 1,16,-1
 731 1280 l 1,17,18
 782 1279 782 1279 773 1236 c 1,19,-1
 725 1051 l 1,20,21
 745 1042 745 1042 763 1029 c 0,22,23
 844 969 844 969 844 847 c 0,24,25
 843 715 843 715 751 596 c 0,26,27
 749 593 749 593 747 590 c 0,28,29
 730 570 730 570 695 576 c 1,30,-1
 573 602 l 2,31,32
 565 603 565 603 558 605 c 0,33,34
 521 616 521 616 537 660 c 1,35,36
 559 725 559 725 571 765 c 0,37,38
 605 884 605 884 569 892 c 1,39,40
 548 895 548 895 496 820 c 0,41,42
 404 687 404 687 361 522 c 0,43,44
 338 437 338 437 328 360 c 0,45,46
 308 205 308 205 351 192 c 1,47,48
 367 196 367 196 384 212 c 0,49,50
 414 241 414 241 467 354 c 0,51,52
 483 388 483 388 491 404 c 1,53,54
 505 428 505 428 533 422 c 1,55,-1
 679 358 l 2,56,57
 682 357 682 357 686 355 c 0,58,59
 725 334 725 334 703 290 c 0,60,61
 597 78 597 78 459 11 c 1,62,-1
 417 -148 l 1,63,64
 404 -189 404 -189 359 -190 c 1,65,-1
 225 -190 l 2,0,1
EndSplineSet
EndChar

StartChar: sterling
Encoding: 163 163 101
Width: 990
GlyphClass: 2
Flags: W
LayerCount: 2
Fore
SplineSet
-139 52 m 1,0,1
 -139 52 -139 52 -93 202 c 1,2,3
 -88 226 -88 226 -69 240 c 2,4,-1
 -51 254 l 2,5,6
 -33 268 -33 268 -11.5 284 c 128,-1,7
 10 300 10 300 41 327 c 128,-1,8
 72 354 72 354 100 382 c 128,-1,9
 128 410 128 410 157.5 447 c 128,-1,10
 187 484 187 484 207 520 c 1,11,-1
 91 520 l 2,12,13
 85 520 85 520 79 521 c 0,14,15
 37 527 37 527 55 592 c 1,16,-1
 85 718 l 1,17,18
 88 735 88 735 91 744 c 0,19,20
 97 758 97 758 115 758 c 2,21,-1
 246 758 l 1,22,23
 236 926 236 926 266 1057 c 0,24,25
 321 1298 321 1298 498 1383 c 0,26,27
 629 1446 629 1446 777 1408 c 0,28,29
 931 1368 931 1368 981 1232 c 1,30,31
 1021 1118 1021 1118 977 986 c 0,32,33
 976 982 976 982 973 974 c 128,-1,34
 970 966 970 966 969 962 c 0,35,36
 958 932 958 932 929 924 c 2,37,-1
 767 880 l 2,38,39
 745 874 745 874 731 884 c 1,40,41
 713 899 713 899 725 930 c 0,42,43
 805 1136 805 1136 719 1178 c 1,44,45
 656 1206 656 1206 601 1174 c 0,46,47
 477 1102 477 1102 489 758 c 1,48,-1
 701 758 l 1,49,50
 756 757 756 757 743 694 c 2,51,-1
 719 576 l 2,52,53
 716 564 716 564 709 552 c 1,54,55
 687 520 687 520 655 520 c 2,56,-1
 476 520 l 1,57,58
 467 495 467 495 453 470 c 0,59,60
 423 416 423 416 350 345 c 0,61,62
 324 320 324 320 313 308 c 1,63,64
 375 298 375 298 427 278 c 0,65,66
 492 254 492 254 542 243 c 0,67,68
 672 216 672 216 833 268 c 0,69,70
 845 271 845 271 856 264 c 0,71,72
 879 247 879 247 871 206 c 1,73,-1
 829 64 l 2,74,75
 827 58 827 58 825 53 c 0,76,77
 815 29 815 29 767 16 c 128,-1,78
 719 3 719 3 685 -4 c 0,79,80
 534 -32 534 -32 355 38 c 0,81,82
 327 49 327 49 295 54 c 0,83,84
 197 70 197 70 28 20 c 0,85,86
 -84 -13 -84 -13 -109 -14 c 0,87,88
 -113 -14 -113 -14 -118 -14 c 0,89,90
 -152 -10 -152 -10 -139 52 c 1,0,1
EndSplineSet
EndChar

StartChar: currency
Encoding: 164 164 102
Width: 1024
GlyphClass: 2
Flags: W
LayerCount: 2
Fore
SplineSet
679 618 m 1,0,1
 694 660 694 660 701 727 c 0,2,3
 715 866 715 866 651 866 c 0,4,5
 633 866 633 866 615 859 c 0,6,7
 562 839 562 839 502 721 c 1,8,9
 417 550 417 550 417 438 c 0,10,11
 417 394 417 394 422 375 c 0,12,13
 437 318 437 318 506 341 c 1,14,15
 555 359 555 359 610 456 c 0,16,17
 661 544 661 544 679 618 c 1,0,1
285 832 m 0,18,19
 292 846 292 846 302 861 c 1,20,-1
 249 1032 l 2,21,22
 234 1082 234 1082 247 1103 c 0,23,24
 262 1126 262 1126 285 1138 c 2,25,-1
 405 1198 l 2,26,27
 425 1208 425 1208 438 1206 c 0,28,29
 471 1202 471 1202 487 1146 c 2,30,-1
 519 1035 l 1,31,32
 589 1060 589 1060 671 1060 c 0,33,34
 733 1060 733 1060 778 1047 c 1,35,-1
 853 1160 l 2,36,37
 867 1182 867 1182 884 1190 c 0,38,39
 901 1197 901 1197 921 1186 c 2,40,-1
 1051 1110 l 2,41,42
 1073 1097 1073 1097 1083 1082 c 1,43,44
 1094 1063 1094 1063 1067 1026 c 1,45,-1
 937 859 l 1,46,47
 941 832 941 832 941 752 c 0,48,49
 941 713 941 713 935 672 c 0,50,51
 908 495 908 495 791 338 c 1,52,-1
 773 315 l 1,53,-1
 843 98 l 2,54,55
 850 77 850 77 847 63 c 0,56,57
 842 45 842 45 801 22 c 2,58,-1
 687 -42 l 2,59,60
 673 -50 673 -50 658 -54 c 0,61,62
 603 -67 603 -67 587 2 c 2,63,-1
 551 149 l 1,64,65
 506 134 506 134 459 134 c 0,66,67
 416 134 416 134 385 138 c 1,68,69
 385 138 385 138 286 -23 c 0,70,71
 278 -36 278 -36 259 -39 c 0,72,73
 242 -41 242 -41 227 -34 c 1,74,-1
 65 71 l 2,75,76
 56 78 56 78 54 90 c 0,77,78
 51 113 51 113 63 129 c 2,79,-1
 184 303 l 1,80,81
 161 366 161 366 161 438 c 0,82,83
 161 588 161 588 285 832 c 0,18,19
EndSplineSet
EndChar

StartChar: yen
Encoding: 165 165 103
Width: 872
GlyphClass: 2
Flags: W
LayerCount: 2
Fore
SplineSet
-3 474 m 2,0,1
 -3 474 -3 474 280 474 c 1,2,-1
 301 558 l 1,3,-1
 53 558 l 2,4,5
 45 558 45 558 38 559 c 0,6,7
 -2 566 -2 566 15 630 c 2,8,-1
 33 694 l 1,9,10
 36 709 36 709 40 719 c 0,11,12
 46 734 46 734 65 734 c 2,13,-1
 310 734 l 1,14,15
 306 792 306 792 299 860 c 0,16,17
 265 1189 265 1189 213 1378 c 0,18,19
 212 1380 212 1380 212 1382 c 0,20,21
 194 1441 194 1441 253 1446 c 1,22,-1
 399 1454 l 2,23,24
 408 1455 408 1455 416 1454 c 0,25,26
 449 1453 449 1453 453 1430 c 0,27,28
 504 1126 504 1126 515 858 c 1,29,30
 538 892 538 892 556 919 c 0,31,32
 747 1209 747 1209 841 1422 c 1,33,34
 855 1450 855 1450 901 1448 c 2,35,-1
 1071 1440 l 2,36,37
 1084 1439 1084 1439 1096 1436 c 0,38,39
 1128 1426 1128 1426 1117 1406 c 0,40,41
 923 1066 923 1066 688 734 c 1,42,-1
 887 734 l 1,43,44
 946 733 946 733 933 670 c 2,45,-1
 921 614 l 2,46,47
 918 602 918 602 910 590 c 0,48,49
 887 558 887 558 853 558 c 2,50,-1
 576 558 l 1,51,-1
 554 474 l 1,52,-1
 819 474 l 1,53,54
 878 473 878 473 865 410 c 2,55,-1
 853 354 l 2,56,57
 850 342 850 342 842 330 c 0,58,59
 819 298 819 298 785 298 c 2,60,-1
 510 298 l 1,61,-1
 445 44 l 2,62,63
 433 1 433 1 385 0 c 1,64,-1
 215 0 l 2,65,66
 202 0 202 0 192 6 c 0,67,68
 166 23 166 23 175 62 c 2,69,-1
 235 298 l 1,70,-1
 -15 298 l 2,71,72
 -23 298 -23 298 -30 299 c 0,73,74
 -70 306 -70 306 -53 370 c 2,75,-1
 -35 434 l 1,76,77
 -32 449 -32 449 -28 459 c 0,78,79
 -22 474 -22 474 -3 474 c 2,0,1
EndSplineSet
EndChar

StartChar: brokenbar
Encoding: 166 166 104
Width: 528
GlyphClass: 2
Flags: W
LayerCount: 2
Fore
SplineSet
581 1478 m 1,0,1
 581 1478 581 1478 383 718 c 0,2,3
 371 675 371 675 323 674 c 1,4,-1
 173 674 l 1,5,6
 120 675 120 675 129 720 c 1,7,-1
 327 1480 l 2,8,9
 339 1523 339 1523 387 1524 c 1,10,-1
 537 1524 l 1,11,12
 590 1523 590 1523 581 1478 c 1,0,1
309 402 m 1,13,-1
 111 -358 l 2,14,15
 99 -401 99 -401 51 -402 c 1,16,-1
 -99 -402 l 1,17,18
 -152 -401 -152 -401 -143 -356 c 1,19,-1
 55 404 l 2,20,21
 67 447 67 447 115 448 c 1,22,-1
 265 448 l 1,23,24
 318 447 318 447 309 402 c 1,13,-1
EndSplineSet
EndChar

StartChar: section
Encoding: 167 167 105
Width: 1040
GlyphClass: 2
Flags: W
LayerCount: 2
Fore
SplineSet
301 1140 m 0,0,1
 354 1170 354 1170 424 1163 c 1,2,3
 435 1364 435 1364 621 1472 c 0,4,5
 684 1508 684 1508 725 1508 c 0,6,7
 906 1507 906 1507 1031 1273 c 0,8,9
 1055 1227 1055 1227 1023 1198 c 2,10,-1
 921 1104 l 2,11,12
 908 1092 908 1092 890 1087 c 0,13,14
 841 1074 841 1074 809 1122 c 0,15,16
 762 1190 762 1190 713 1226 c 1,17,18
 711 1218 711 1218 709 1208 c 0,19,20
 693 1124 693 1124 729 1022 c 1,21,22
 750 959 750 959 789 874 c 0,23,24
 822 802 822 802 869 687 c 0,25,26
 941 507 941 507 951 366 c 0,27,28
 953 337 953 337 953 309 c 0,29,30
 953 72 953 72 793 -24 c 0,31,32
 747 -51 747 -51 691 -52 c 0,33,34
 665 -52 665 -52 635 -44 c 1,35,36
 635 -45 635 -45 635 -48 c 0,37,38
 629 -267 629 -267 473 -362 c 1,39,40
 416 -393 416 -393 365 -394 c 1,41,42
 193 -393 193 -393 67 -186 c 0,43,44
 66 -184 66 -184 64 -182 c 0,45,46
 33 -130 33 -130 79 -78 c 1,47,-1
 163 6 l 2,48,49
 176 20 176 20 199 25 c 0,50,51
 245 35 245 35 271 2 c 0,52,53
 354 -108 354 -108 367 -116 c 1,54,55
 368 -111 368 -111 370 -103 c 0,56,57
 376 -66 376 -66 375 -30 c 1,58,59
 375 13 375 13 367 54 c 0,60,61
 353 119 353 119 286 265 c 0,62,63
 264 313 264 313 253 340 c 0,64,65
 219 420 219 420 215 429 c 0,66,67
 116 667 116 667 114 804 c 1,68,69
 114 1035 114 1035 301 1140 c 0,0,1
541 741 m 1,70,-1
 541 740 l 1,71,72
 537 747 537 747 531 755 c 0,73,74
 441 888 441 888 401 892 c 1,75,76
 399 884 399 884 398 873 c 0,77,78
 392 817 392 817 419 708 c 1,79,80
 445 615 445 615 514 453 c 0,81,82
 535 404 535 404 545 380 c 2,83,-1
 557 349 l 1,84,85
 568 329 568 329 584 309 c 0,86,87
 632 247 632 247 681 226 c 1,88,89
 683 231 683 231 685 238 c 0,90,91
 689 258 689 258 685 340 c 0,92,93
 683 366 683 366 676 396 c 0,94,95
 658 479 658 479 575 666 c 1,96,-1
 541 741 l 1,70,-1
EndSplineSet
EndChar

StartChar: dieresis
Encoding: 168 168 106
Width: 1046
GlyphClass: 2
Flags: W
LayerCount: 2
Fore
SplineSet
246 1324 m 0,0,1
 246 1364 246 1364 269 1398 c 0,2,3
 309 1456 309 1456 386 1456 c 2,4,-1
 412 1456 l 2,5,6
 451 1456 451 1456 488 1426 c 0,7,8
 540 1383 540 1383 540 1324 c 0,9,10
 540 1283 540 1283 515 1249 c 0,11,12
 473 1192 473 1192 396 1192 c 2,13,-1
 372 1192 l 2,14,15
 332 1192 332 1192 297 1219 c 0,16,17
 246 1260 246 1260 246 1324 c 0,0,1
646 1324 m 0,18,19
 646 1364 646 1364 669 1398 c 0,20,21
 709 1456 709 1456 786 1456 c 2,22,-1
 812 1456 l 2,23,24
 851 1456 851 1456 888 1426 c 0,25,26
 940 1383 940 1383 940 1324 c 0,27,28
 940 1283 940 1283 915 1249 c 0,29,30
 873 1192 873 1192 796 1192 c 2,31,-1
 772 1192 l 2,32,33
 732 1192 732 1192 697 1219 c 0,34,35
 646 1260 646 1260 646 1324 c 0,18,19
EndSplineSet
EndChar

StartChar: copyright
Encoding: 169 169 107
Width: 1638
GlyphClass: 2
Flags: W
LayerCount: 2
Fore
SplineSet
837 440 m 1,0,1
 852 448 852 448 867 463 c 0,2,3
 898 494 898 494 955 606 c 0,4,5
 967 630 967 630 993 624 c 1,6,-1
 1131 564 l 2,7,8
 1136 561 1136 561 1141 559 c 0,9,10
 1174 539 1174 539 1153 500 c 1,11,12
 1121 435 1121 435 1087 388 c 0,13,14
 979 240 979 240 807 240 c 1,15,16
 661 241 661 241 605 374 c 0,17,18
 555 494 555 494 587 674 c 0,19,20
 634 939 634 939 773 1079 c 1,21,22
 895 1200 895 1200 1049 1192 c 1,23,24
 1112 1195 1112 1195 1167 1168 c 1,25,26
 1250 1125 1250 1125 1274 1037 c 0,27,28
 1307 918 1307 918 1209 794 c 0,29,30
 1208 792 1208 792 1206 790 c 0,31,32
 1191 768 1191 768 1157 774 c 1,33,-1
 1043 798 l 2,34,35
 1038 799 1038 799 1033 800 c 0,36,37
 993 811 993 811 1009 854 c 1,38,39
 1040 947 1040 947 1045 982 c 0,40,41
 1051 1024 1051 1024 1023 1030 c 1,42,43
 1005 1032 1005 1032 967 989 c 0,44,45
 884 893 884 893 843 732 c 0,46,47
 824 661 824 661 814 598 c 0,48,49
 793 452 793 452 837 440 c 1,0,1
469 800 m 0,50,51
 465 784 465 784 461 767 c 0,52,53
 395 482 395 482 489 307 c 0,54,55
 590 120 590 120 849 120 c 0,56,57
 1004 120 1004 120 1127 215 c 0,58,59
 1301 350 1301 350 1375 640 c 0,60,61
 1386 685 1386 685 1394 729 c 0,62,63
 1436 982 1436 982 1345 1146 c 0,64,65
 1244 1328 1244 1328 1007 1328 c 0,66,67
 843 1328 843 1328 712 1220 c 0,68,69
 543 1080 543 1080 469 800 c 0,50,51
257 886 m 0,70,71
 327 1125 327 1125 481 1275 c 0,72,73
 689 1476 689 1476 1003 1476 c 0,74,75
 1069 1476 1069 1476 1128 1470 c 0,76,77
 1358 1445 1358 1445 1493 1304 c 0,78,79
 1558 1237 1558 1237 1596 1146 c 0,80,81
 1692 913 1692 913 1595 578 c 0,82,83
 1562 464 1562 464 1513 370 c 0,84,85
 1306 -30 1306 -30 839 -30 c 0,86,87
 796 -30 796 -30 753 -26 c 0,88,89
 507 -2 507 -2 365 140 c 0,90,91
 309 197 309 197 271 273 c 0,92,93
 150 519 150 519 257 886 c 0,70,71
EndSplineSet
EndChar

StartChar: ordfeminine
Encoding: 170 170 108
Width: 660
GlyphClass: 2
Flags: W
LayerCount: 2
Fore
SplineSet
428 1119 m 1,0,1
 398 1115 398 1115 371 1095 c 1,2,3
 318 1053 318 1053 318 982 c 0,4,5
 318 972 318 972 319 965 c 0,6,7
 321 946 321 946 336 946 c 0,8,9
 342 946 342 946 352 955 c 0,10,11
 380 979 380 979 390 1006 c 0,12,13
 415 1070 415 1070 428 1119 c 1,0,1
548 981 m 1,14,15
 580 1010 580 1010 592 1036 c 0,16,17
 602 1057 602 1057 624 1048 c 1,18,-1
 690 1016 l 1,19,20
 711 1004 711 1004 702 986 c 0,21,22
 687 959 687 959 667 933 c 0,23,24
 581 820 581 820 480 800 c 0,25,26
 478 800 478 800 474 800 c 0,27,28
 442 800 442 800 434 812 c 1,29,-1
 411 854 l 1,30,31
 397 841 397 841 379 829 c 0,32,33
 307 784 307 784 242 812 c 0,34,35
 149 853 149 853 148 950 c 0,36,37
 148 958 148 958 149 968 c 0,38,39
 157 1079 157 1079 250 1167 c 0,40,41
 344 1255 344 1255 461 1262 c 1,42,-1
 464 1276 l 2,43,44
 471 1309 471 1309 469 1327 c 0,45,46
 466 1349 466 1349 442 1358 c 1,47,48
 436 1356 436 1356 427 1353 c 0,49,50
 375 1331 375 1331 346 1300 c 1,51,52
 334 1289 334 1289 320 1298 c 1,53,-1
 256 1358 l 2,54,55
 254 1359 254 1359 251 1362 c 0,56,57
 238 1375 238 1375 244 1388 c 0,58,59
 244 1389 244 1389 245 1390 c 0,60,61
 268 1433 268 1433 347 1486 c 0,62,63
 448 1553 448 1553 502 1540 c 1,64,-1
 503 1540 l 1,65,66
 528 1534 528 1534 547 1528 c 128,-1,67
 566 1522 566 1522 589.5 1511 c 128,-1,68
 613 1500 613 1500 628.5 1480.5 c 128,-1,69
 644 1461 644 1461 650 1434 c 0,70,71
 658 1392 658 1392 645 1310 c 0,72,73
 619 1149 619 1149 548 981 c 1,14,15
EndSplineSet
EndChar

StartChar: guillemotleft
Encoding: 171 171 109
Width: 872
GlyphClass: 2
Flags: W
LayerCount: 2
Fore
SplineSet
775 536 m 1,0,-1
 881 210 l 2,1,2
 893 176 893 176 865 165 c 0,3,4
 856 162 856 162 847 162 c 2,5,-1
 751 162 l 2,6,7
 708 162 708 162 688 197 c 0,8,9
 685 203 685 203 683 208 c 2,10,-1
 571 522 l 2,11,12
 556 566 556 566 585 605 c 0,13,14
 587 607 587 607 587 608 c 2,15,-1
 843 902 l 1,16,17
 878 939 878 939 925 940 c 1,18,-1
 1021 940 l 2,19,20
 1051 940 1051 940 1054 918 c 0,21,22
 1055 904 1055 904 1043 888 c 2,23,-1
 775 536 l 1,0,-1
407 536 m 1,24,-1
 513 210 l 2,25,26
 525 176 525 176 497 165 c 0,27,28
 488 162 488 162 479 162 c 2,29,-1
 383 162 l 2,30,31
 340 162 340 162 320 197 c 0,32,33
 317 203 317 203 315 208 c 2,34,-1
 203 522 l 2,35,36
 188 566 188 566 217 605 c 0,37,38
 219 607 219 607 219 608 c 2,39,-1
 475 902 l 1,40,41
 510 939 510 939 557 940 c 1,42,-1
 653 940 l 2,43,44
 684 940 684 940 686 918 c 0,45,46
 687 904 687 904 675 888 c 2,47,-1
 407 536 l 1,24,-1
EndSplineSet
EndChar

StartChar: logicalnot
Encoding: 172 172 110
Width: 1804
GlyphClass: 2
Flags: W
LayerCount: 2
Fore
SplineSet
1257 754 m 1,0,-1
 301 754 l 2,1,2
 293 754 293 754 286 755 c 0,3,4
 246 762 246 762 263 826 c 2,5,-1
 291 936 l 2,6,7
 298 961 298 961 309 975 c 0,8,9
 323 992 323 992 365 992 c 2,10,11
 365 992 365 992 1495 992 c 1,12,13
 1572 991 1572 991 1551 906 c 1,14,-1
 1415 392 l 2,15,16
 1403 349 1403 349 1355 348 c 1,17,-1
 1205 348 l 1,18,19
 1152 349 1152 349 1161 394 c 1,20,-1
 1257 754 l 1,0,-1
EndSplineSet
EndChar

StartChar: registered
Encoding: 174 174 111
Width: 1638
GlyphClass: 2
Flags: W
LayerCount: 2
Fore
SplineSet
469 800 m 1,0,1
 392 504 392 504 484 323 c 1,2,3
 583 132 583 132 849 132 c 0,4,5
 1022 132 1022 132 1140 219 c 0,6,7
 1297 336 1297 336 1375 640 c 0,8,9
 1384 674 1384 674 1390 709 c 0,10,11
 1438 967 1438 967 1349 1132 c 0,12,13
 1249 1316 1249 1316 1007 1316 c 0,14,15
 966 1316 966 1316 927 1311 c 0,16,17
 592 1264 592 1264 469 800 c 1,0,1
257 886 m 0,18,19
 327 1125 327 1125 481 1275 c 0,20,21
 689 1476 689 1476 1003 1476 c 0,22,23
 1069 1476 1069 1476 1128 1470 c 0,24,25
 1358 1445 1358 1445 1493 1304 c 0,26,27
 1558 1237 1558 1237 1596 1146 c 0,28,29
 1692 913 1692 913 1595 578 c 0,30,31
 1562 464 1562 464 1513 370 c 0,32,33
 1306 -30 1306 -30 839 -30 c 0,34,35
 796 -30 796 -30 753 -26 c 0,36,37
 507 -2 507 -2 365 140 c 0,38,39
 309 197 309 197 271 273 c 0,40,41
 150 519 150 519 257 886 c 0,18,19
889 773 m 1,42,-1
 957 780 l 2,43,44
 962 781 962 781 968 781 c 0,45,46
 1045 793 1045 793 1085 854 c 1,47,48
 1102 898 1102 898 1103 948 c 1,49,50
 1102 989 1102 989 1045 1004 c 0,51,52
 1015 1011 1015 1011 954 1015 c 1,53,-1
 889 773 l 1,42,-1
734 1005 m 1,54,55
 732 1005 732 1005 673 996 c 0,56,57
 661 995 661 995 651 1000 c 1,58,59
 632 1012 632 1012 639 1036 c 2,60,-1
 675 1152 l 1,61,62
 682 1170 682 1170 713 1180 c 1,63,64
 754 1190 754 1190 842 1194 c 0,65,66
 1013 1201 1013 1201 1095 1186 c 0,67,68
 1140 1177 1140 1177 1172 1165 c 0,69,70
 1311 1114 1311 1114 1311 964 c 0,71,72
 1311 921 1311 921 1291 868 c 0,73,74
 1255 776 1255 776 1195 732 c 1,75,76
 1146 689 1146 689 1094 666 c 1,77,-1
 1167 340 l 2,78,79
 1167 339 1167 339 1167 338 c 0,80,81
 1175 282 1175 282 1125 282 c 2,82,-1
 999 282 l 2,83,84
 992 282 992 282 985 285 c 0,85,86
 951 297 951 297 943 350 c 1,87,-1
 887 636 l 1,88,-1
 852 636 l 1,89,-1
 765 314 l 1,90,91
 755 285 755 285 717 284 c 1,92,-1
 583 284 l 2,93,94
 575 284 575 284 567 287 c 0,95,96
 543 298 543 298 551 326 c 2,97,-1
 734 1005 l 1,54,55
EndSplineSet
EndChar

StartChar: macron
Encoding: 175 175 112
Width: 796
GlyphClass: 2
Flags: W
LayerCount: 2
Fore
SplineSet
160 1718 m 2,0,1
 160 1718 160 1718 862 1718 c 1,2,3
 893 1715 893 1715 880 1674 c 2,4,-1
 852 1582 l 2,5,6
 849 1572 849 1572 848 1568 c 0,7,8
 834 1526 834 1526 810 1526 c 2,9,-1
 122 1526 l 2,10,11
 91 1526 91 1526 88 1541 c 0,12,13
 88 1544 88 1544 98 1582 c 2,14,-1
 130 1694 l 2,15,16
 131 1698 131 1698 133 1703 c 0,17,18
 140 1718 140 1718 160 1718 c 2,0,1
EndSplineSet
EndChar

StartChar: degree
Encoding: 176 176 113
Width: 960
GlyphClass: 2
Flags: W
LayerCount: 2
Fore
SplineSet
402 1308 m 0,0,1
 402 1240 402 1240 454 1208 c 1,2,3
 482 1192 482 1192 516 1192 c 0,4,5
 590 1192 590 1192 646 1248 c 0,6,7
 698 1300 698 1300 698 1370 c 0,8,9
 698 1442 698 1442 641 1472 c 0,10,11
 614 1486 614 1486 582 1486 c 0,12,13
 506 1486 506 1486 450 1424 c 0,14,15
 402 1372 402 1372 402 1308 c 0,0,1
600 1630 m 0,16,17
 728 1630 728 1630 798 1539 c 1,18,19
 848 1472 848 1472 848 1380 c 0,20,21
 848 1226 848 1226 730 1130 c 1,22,23
 627 1051 627 1051 504 1048 c 1,24,25
 377 1048 377 1048 305 1139 c 0,26,27
 252 1207 252 1207 252 1300 c 0,28,29
 252 1445 252 1445 365 1542 c 0,30,31
 462 1625 462 1625 586 1630 c 0,32,33
 594 1630 594 1630 600 1630 c 0,16,17
EndSplineSet
EndChar

StartChar: plusminus
Encoding: 177 177 114
Width: 1038
GlyphClass: 2
Flags: W
LayerCount: 2
Fore
SplineSet
63 220 m 2,0,1
 63 220 63 220 763 220 c 1,2,3
 804 219 804 219 797 160 c 1,4,-1
 777 48 l 2,5,6
 775 37 775 37 771 26 c 1,7,8
 756 -6 756 -6 729 -6 c 2,9,-1
 45 -6 l 1,10,11
 4 -5 4 -5 17 62 c 2,12,-1
 39 182 l 2,13,14
 41 193 41 193 43 201 c 0,15,16
 49 220 49 220 63 220 c 2,0,1
823 544 m 2,17,-1
 582 544 l 1,18,-1
 533 356 l 1,19,20
 520 315 520 315 475 314 c 1,21,-1
 333 314 l 1,22,23
 286 317 286 317 291 358 c 1,24,-1
 340 544 l 1,25,-1
 129 544 l 2,26,27
 121 544 121 544 114 545 c 0,28,29
 76 552 76 552 93 612 c 1,30,-1
 117 716 l 2,31,32
 119 725 119 725 122 733 c 0,33,34
 137 770 137 770 181 770 c 2,35,-1
 399 770 l 1,36,-1
 439 924 l 1,37,38
 451 965 451 965 497 966 c 1,39,-1
 639 966 l 1,40,41
 686 963 686 963 681 922 c 1,42,-1
 641 770 l 1,43,-1
 869 770 l 1,44,45
 925 769 925 769 913 710 c 1,46,-1
 887 598 l 2,47,48
 885 586 885 586 877 573 c 1,49,50
 856 544 856 544 823 544 c 2,17,-1
EndSplineSet
EndChar

StartChar: twosuperior
Encoding: 178 178 115
Width: 680
GlyphClass: 2
Flags: W
LayerCount: 2
Fore
SplineSet
415 818 m 1,0,-1
 630 818 l 1,1,2
 671 816 671 816 664 776 c 1,3,-1
 642 676 l 2,4,5
 640 671 640 671 637 665 c 0,6,7
 620 640 620 640 590 640 c 2,8,-1
 146 640 l 1,9,10
 112 641 112 641 93 666 c 0,11,12
 65 705 65 705 110 754 c 1,13,-1
 502 1166 l 2,14,15
 509 1174 509 1174 517 1183 c 0,16,17
 577 1255 577 1255 584 1319 c 0,18,19
 591 1382 591 1382 530 1382 c 0,20,21
 515 1382 515 1382 500 1370 c 0,22,23
 458 1338 458 1338 458 1268 c 0,24,25
 458 1267 458 1267 457 1264 c 0,26,27
 449 1238 449 1238 418 1234 c 2,28,-1
 262 1216 l 2,29,30
 256 1215 256 1215 250 1216 c 0,31,32
 228 1218 228 1218 228 1250 c 0,33,34
 229 1362 229 1362 319 1444 c 0,35,36
 418 1534 418 1534 566 1534 c 0,37,38
 653 1534 653 1534 713 1495 c 0,39,40
 799 1440 799 1440 799 1333 c 0,41,42
 800 1205 800 1205 676 1078 c 1,43,-1
 415 818 l 1,0,-1
EndSplineSet
EndChar

StartChar: threesuperior
Encoding: 179 179 116
Width: 648
GlyphClass: 2
Flags: W
LayerCount: 2
Fore
SplineSet
599 1099 m 1,0,1
 661 1065 661 1065 662 940 c 0,2,3
 662 933 662 933 662 924 c 0,4,5
 655 807 655 807 559 719 c 0,6,7
 455 623 455 623 312 622 c 0,8,9
 249 622 249 622 202 643 c 0,10,11
 94 693 94 693 94 842 c 1,12,13
 95 881 95 881 120 898 c 1,14,-1
 254 954 l 1,15,16
 276 965 276 965 295 961 c 0,17,18
 322 954 322 954 322 924 c 1,19,20
 311 779 311 779 348 778 c 0,21,22
 358 778 358 778 368 783 c 0,23,24
 407 802 407 802 420 880 c 0,25,26
 426 912 426 912 424 938 c 0,27,28
 418 1010 418 1010 346 1010 c 1,29,30
 310 1013 310 1013 306 1044 c 1,31,-1
 316 1118 l 1,32,33
 322 1150 322 1150 360 1152 c 1,34,35
 396 1151 396 1151 431 1169 c 0,36,37
 499 1205 499 1205 510 1282 c 1,38,39
 514 1366 514 1366 476 1374 c 1,40,41
 461 1375 461 1375 444 1363 c 0,42,43
 402 1333 402 1333 402 1268 c 1,44,45
 396 1232 396 1232 362 1222 c 1,46,-1
 206 1212 l 2,47,48
 199 1211 199 1211 192 1212 c 0,49,50
 172 1216 172 1216 172 1252 c 0,51,52
 173 1363 173 1363 264 1446 c 0,53,54
 364 1536 364 1536 510 1536 c 0,55,56
 574 1536 574 1536 622 1517 c 0,57,58
 740 1471 740 1471 740 1326 c 0,59,60
 740 1292 740 1292 728 1256 c 0,61,62
 696 1160 696 1160 599 1099 c 1,0,1
EndSplineSet
EndChar

StartChar: acute
Encoding: 180 180 117
Width: 678
GlyphClass: 2
Flags: W
LayerCount: 2
Fore
SplineSet
541 1448 m 2,0,1
 553 1448 553 1448 562 1442 c 0,2,3
 584 1427 584 1427 555 1398 c 2,4,-1
 335 1178 l 2,5,6
 307 1151 307 1151 267 1150 c 1,7,-1
 169 1150 l 2,8,9
 161 1150 161 1150 155 1152 c 0,10,11
 134 1160 134 1160 149 1184 c 2,12,-1
 287 1414 l 1,13,14
 309 1447 309 1447 349 1448 c 1,15,-1
 541 1448 l 2,0,1
EndSplineSet
EndChar

StartChar: mu
Encoding: 181 181 118
Width: 822
GlyphClass: 2
Flags: W
LayerCount: 2
Fore
SplineSet
259 1080 m 1,0,1
 259 1080 259 1080 453 1080 c 1,2,3
 492 1079 492 1079 475 1022 c 0,4,5
 473 1016 473 1016 471 1008 c 0,6,7
 339 574 339 574 321 504 c 0,8,9
 303 431 303 431 323 426 c 128,-1,10
 343 421 343 421 389 506 c 0,11,12
 595 889 595 889 661 1034 c 1,13,14
 683 1078 683 1078 727 1080 c 1,15,-1
 849 1080 l 2,16,17
 857 1080 857 1080 865 1075 c 0,18,19
 889 1061 889 1061 881 1028 c 2,20,-1
 621 54 l 2,21,22
 608 2 608 2 561 0 c 1,23,-1
 437 0 l 2,24,25
 376 0 376 0 399 72 c 1,26,-1
 458 276 l 1,27,-1
 367 132 l 2,28,29
 343 95 343 95 320 68 c 0,30,31
 260 -2 260 -2 185 -2 c 2,32,-1
 171 -2 l 1,33,34
 171 -48 171 -48 157 -102 c 2,35,-1
 93 -356 l 1,36,37
 81 -399 81 -399 33 -400 c 1,38,-1
 -101 -400 l 2,39,40
 -114 -400 -114 -400 -125 -397 c 0,41,42
 -164 -384 -164 -384 -153 -336 c 1,43,-1
 199 1036 l 2,44,45
 211 1079 211 1079 259 1080 c 1,0,1
EndSplineSet
EndChar

StartChar: paragraph
Encoding: 182 182 119
Width: 1352
GlyphClass: 2
Flags: W
LayerCount: 2
Fore
SplineSet
901 1240 m 1,0,-1
 496 -356 l 1,1,2
 484 -399 484 -399 436 -400 c 1,3,-1
 298 -400 l 2,4,5
 285 -400 285 -400 274 -397 c 0,6,7
 235 -384 235 -384 246 -336 c 1,8,-1
 480 586 l 1,9,10
 377 605 377 605 303 662 c 0,11,12
 178 759 178 759 178 928 c 0,13,14
 178 963 178 963 183 997 c 0,15,16
 210 1192 210 1192 373 1316 c 1,17,18
 549 1448 549 1448 812 1448 c 2,19,-1
 1496 1448 l 2,20,21
 1504 1448 1504 1448 1512 1447 c 0,22,23
 1539 1441 1539 1441 1530 1400 c 1,24,-1
 1500 1280 l 2,25,26
 1499 1275 1499 1275 1497 1270 c 0,27,28
 1487 1240 1487 1240 1444 1240 c 2,29,-1
 1337 1240 l 1,30,-1
 932 -356 l 1,31,32
 920 -399 920 -399 872 -400 c 1,33,-1
 734 -400 l 2,34,35
 721 -400 721 -400 710 -397 c 0,36,37
 671 -384 671 -384 682 -336 c 1,38,-1
 1083 1240 l 1,39,-1
 901 1240 l 1,0,-1
EndSplineSet
EndChar

StartChar: middot
Encoding: 183 183 120
Width: 466
GlyphClass: 2
Flags: W
LayerCount: 2
Fore
SplineSet
172 700 m 0,0,1
 172 740 172 740 195 774 c 0,2,3
 235 832 235 832 312 832 c 2,4,-1
 338 832 l 2,5,6
 377 832 377 832 414 802 c 0,7,8
 466 759 466 759 466 700 c 0,9,10
 466 659 466 659 441 625 c 0,11,12
 399 568 399 568 322 568 c 2,13,-1
 298 568 l 2,14,15
 258 568 258 568 223 595 c 0,16,17
 172 636 172 636 172 700 c 0,0,1
EndSplineSet
EndChar

StartChar: cedilla
Encoding: 184 184 121
Width: 684
GlyphClass: 2
Flags: W
LayerCount: 2
Fore
SplineSet
407 -66 m 1,0,1
 407 -66 407 -66 533 -106 c 0,2,3
 534 -106 534 -106 536 -107 c 0,4,5
 567 -117 567 -117 555 -166 c 0,6,7
 534 -259 534 -259 454 -324 c 0,8,9
 346 -411 346 -411 193 -404 c 0,10,11
 166 -402 166 -402 157 -380 c 1,12,-1
 133 -306 l 1,13,14
 120 -260 120 -260 159 -258 c 1,15,16
 240 -258 240 -258 295 -217 c 0,17,18
 357 -170 357 -170 357 -98 c 0,19,20
 357 -83 357 -83 365 -73 c 0,21,22
 380 -56 380 -56 407 -66 c 1,0,1
EndSplineSet
EndChar

StartChar: onesuperior
Encoding: 185 185 122
Width: 448
GlyphClass: 2
Flags: W
LayerCount: 2
Fore
SplineSet
607 1520 m 1,0,-1
 612 1524 l 1,1,2
 622 1525 622 1525 631 1519 c 0,3,4
 649 1506 649 1506 642 1484 c 2,5,-1
 398 668 l 1,6,7
 388 641 388 641 354 640 c 1,8,-1
 210 640 l 2,9,10
 201 640 201 640 193 644 c 0,11,12
 173 655 173 655 180 680 c 2,13,-1
 356 1265 l 1,14,-1
 328 1238 l 2,15,16
 298 1209 298 1209 266 1208 c 1,17,-1
 156 1208 l 1,18,19
 137 1209 137 1209 127 1223 c 0,20,21
 109 1251 109 1251 150 1286 c 1,22,-1
 366 1452 l 2,23,24
 370 1456 370 1456 380 1464 c 0,25,26
 385 1468 385 1468 388 1470 c 0,27,28
 454 1524 454 1524 484 1524 c 2,29,-1
 610 1524 l 1,30,-1
 607 1520 l 1,0,-1
EndSplineSet
EndChar

StartChar: ordmasculine
Encoding: 186 186 123
Width: 748
GlyphClass: 2
Flags: W
LayerCount: 2
Fore
SplineSet
456 986 m 0,0,1
 524 987 524 987 573 1097 c 0,2,3
 615 1192 615 1192 622 1296 c 1,4,5
 620 1366 620 1366 568 1372 c 1,6,7
 505 1367 505 1367 451 1242 c 1,8,9
 412 1142 412 1142 412 1064 c 0,10,11
 412 1037 412 1037 415 1022 c 0,12,13
 421 986 421 986 456 986 c 0,0,1
210 1082 m 0,14,15
 210 1102 210 1102 212 1124 c 0,16,17
 226 1273 226 1273 315 1388 c 0,18,19
 425 1530 425 1530 592 1530 c 0,20,21
 609 1530 609 1530 625 1528 c 0,22,23
 731 1517 731 1517 772 1448 c 0,24,25
 774 1445 774 1445 776 1441 c 0,26,27
 810 1381 810 1381 810 1278 c 0,28,29
 810 1254 810 1254 806 1225 c 0,30,31
 787 1089 787 1089 706 976 c 0,32,33
 600 828 600 828 452 828 c 0,34,35
 346 828 346 828 286 884 c 0,36,37
 211 955 211 955 210 1082 c 0,14,15
EndSplineSet
EndChar

StartChar: guillemotright
Encoding: 187 187 124
Width: 872
GlyphClass: 2
Flags: W
LayerCount: 2
Fore
SplineSet
703 566 m 1,0,-1
 597 892 l 2,1,2
 585 926 585 926 613 937 c 0,3,4
 622 940 622 940 631 940 c 2,5,-1
 727 940 l 2,6,7
 770 940 770 940 790 905 c 0,8,9
 793 899 793 899 795 894 c 2,10,-1
 907 580 l 2,11,12
 922 536 922 536 893 497 c 0,13,14
 891 495 891 495 891 494 c 2,15,-1
 635 200 l 1,16,17
 600 163 600 163 553 162 c 1,18,-1
 457 162 l 2,19,20
 426 162 426 162 424 184 c 0,21,22
 423 198 423 198 435 214 c 2,23,-1
 703 566 l 1,0,-1
327 566 m 1,24,-1
 221 892 l 2,25,26
 209 926 209 926 237 937 c 0,27,28
 246 940 246 940 255 940 c 2,29,-1
 351 940 l 2,30,31
 394 940 394 940 414 905 c 0,32,33
 417 899 417 899 419 894 c 2,34,-1
 531 580 l 2,35,36
 546 536 546 536 517 497 c 0,37,38
 515 495 515 495 515 494 c 2,39,-1
 259 200 l 1,40,41
 224 163 224 163 177 162 c 1,42,-1
 81 162 l 2,43,44
 50 162 50 162 48 184 c 0,45,46
 47 198 47 198 59 214 c 2,47,-1
 327 566 l 1,24,-1
EndSplineSet
EndChar

StartChar: onequarter
Encoding: 188 188 125
Width: 1998
GlyphClass: 2
Flags: W
LayerCount: 2
Fore
SplineSet
1830 192 m 2,0,1
 1830 192 1830 192 1764 192 c 1,2,-1
 1716 28 l 1,3,4
 1706 1 1706 1 1670 0 c 1,5,-1
 1520 0 l 2,6,7
 1512 0 1512 0 1505 3 c 0,8,9
 1482 13 1482 13 1490 40 c 2,10,-1
 1534 192 l 1,11,-1
 1266 192 l 1,12,13
 1200 193 1200 193 1180 232 c 1,14,15
 1160 274 1160 274 1200 324 c 2,16,-1
 1614 856 l 2,17,18
 1617 860 1617 860 1621 863 c 0,19,20
 1641 884 1641 884 1668 884 c 2,21,-1
 1830 884 l 2,22,23
 1844 884 1844 884 1854 873 c 0,24,25
 1872 853 1872 853 1854 830 c 2,26,-1
 1462 348 l 1,27,-1
 1580 348 l 1,28,-1
 1622 492 l 1,29,30
 1632 519 1632 519 1668 520 c 1,31,-1
 1818 520 l 2,32,33
 1827 520 1827 520 1835 516 c 0,34,35
 1855 505 1855 505 1848 480 c 2,36,-1
 1809 348 l 1,37,-1
 1880 348 l 2,38,39
 1882 348 1882 348 1885 348 c 0,40,41
 1926 348 1926 348 1914 310 c 1,42,-1
 1882 228 l 2,43,44
 1881 225 1881 225 1879 221 c 0,45,46
 1865 192 1865 192 1830 192 c 2,0,1
278 -54 m 2,47,-1
 86 -52 l 2,48,49
 65 -51 65 -51 55 -30 c 1,50,51
 43 -1 43 -1 64 20 c 2,52,-1
 1520 1482 l 2,53,54
 1565 1527 1565 1527 1616 1528 c 1,55,-1
 1810 1528 l 1,56,57
 1831 1527 1831 1527 1840 1506 c 0,58,59
 1851 1477 1851 1477 1830 1456 c 2,60,-1
 362 -18 l 2,61,62
 351 -29 351 -29 341 -37 c 0,63,64
 318 -54 318 -54 278 -54 c 2,47,-1
695 1484 m 1,65,-1
 700 1488 l 1,66,67
 710 1489 710 1489 719 1483 c 0,68,69
 737 1470 737 1470 730 1448 c 2,70,-1
 486 632 l 1,71,72
 476 605 476 605 442 604 c 1,73,-1
 298 604 l 2,74,75
 289 604 289 604 281 608 c 0,76,77
 261 619 261 619 268 644 c 2,78,-1
 444 1229 l 1,79,-1
 416 1202 l 2,80,81
 386 1173 386 1173 354 1172 c 1,82,-1
 244 1172 l 1,83,84
 225 1173 225 1173 215 1187 c 0,85,86
 197 1215 197 1215 238 1250 c 1,87,-1
 454 1416 l 2,88,89
 458 1420 458 1420 468 1428 c 0,90,91
 473 1432 473 1432 476 1434 c 0,92,93
 542 1488 542 1488 572 1488 c 2,94,-1
 698 1488 l 1,95,-1
 695 1484 l 1,65,-1
EndSplineSet
EndChar

StartChar: onehalf
Encoding: 189 189 126
Width: 1998
GlyphClass: 2
Flags: W
LayerCount: 2
Fore
SplineSet
278 -54 m 2,0,1
 278 -54 278 -54 86 -52 c 0,2,3
 65 -51 65 -51 55 -30 c 1,4,5
 43 -1 43 -1 64 20 c 2,6,-1
 1520 1482 l 2,7,8
 1565 1527 1565 1527 1616 1528 c 1,9,-1
 1810 1528 l 1,10,11
 1831 1527 1831 1527 1840 1506 c 0,12,13
 1851 1477 1851 1477 1830 1456 c 2,14,-1
 362 -18 l 2,15,16
 351 -29 351 -29 341 -37 c 0,17,18
 318 -54 318 -54 278 -54 c 2,0,1
1547 178 m 1,19,-1
 1762 178 l 1,20,21
 1803 176 1803 176 1796 136 c 1,22,-1
 1774 36 l 2,23,24
 1772 31 1772 31 1769 25 c 0,25,26
 1752 0 1752 0 1722 0 c 2,27,-1
 1278 0 l 1,28,29
 1244 1 1244 1 1225 26 c 0,30,31
 1197 65 1197 65 1242 114 c 1,32,-1
 1634 526 l 2,33,34
 1641 534 1641 534 1649 543 c 0,35,36
 1709 615 1709 615 1716 679 c 0,37,38
 1722 742 1722 742 1662 742 c 0,39,40
 1647 742 1647 742 1632 730 c 0,41,42
 1590 698 1590 698 1590 628 c 0,43,44
 1590 627 1590 627 1589 624 c 0,45,46
 1581 598 1581 598 1550 594 c 2,47,-1
 1394 576 l 2,48,49
 1388 575 1388 575 1382 576 c 0,50,51
 1360 578 1360 578 1360 610 c 0,52,53
 1361 722 1361 722 1451 804 c 0,54,55
 1550 894 1550 894 1698 894 c 0,56,57
 1785 894 1785 894 1845 855 c 0,58,59
 1931 800 1931 800 1931 693 c 0,60,61
 1932 565 1932 565 1808 438 c 1,62,-1
 1547 178 l 1,19,-1
695 1484 m 1,63,-1
 700 1488 l 1,64,65
 710 1489 710 1489 719 1483 c 0,66,67
 737 1470 737 1470 730 1448 c 2,68,-1
 486 632 l 1,69,70
 476 605 476 605 442 604 c 1,71,-1
 298 604 l 2,72,73
 289 604 289 604 281 608 c 0,74,75
 261 619 261 619 268 644 c 2,76,-1
 444 1229 l 1,77,-1
 416 1202 l 2,78,79
 386 1173 386 1173 354 1172 c 1,80,-1
 244 1172 l 1,81,82
 225 1173 225 1173 215 1187 c 0,83,84
 197 1215 197 1215 238 1250 c 1,85,-1
 454 1416 l 2,86,87
 458 1420 458 1420 468 1428 c 0,88,89
 473 1432 473 1432 476 1434 c 0,90,91
 542 1488 542 1488 572 1488 c 2,92,-1
 698 1488 l 1,93,-1
 695 1484 l 1,63,-1
EndSplineSet
EndChar

StartChar: threequarters
Encoding: 190 190 127
Width: 1998
GlyphClass: 2
Flags: W
LayerCount: 2
Fore
SplineSet
1786 192 m 2,0,1
 1786 192 1786 192 1720 192 c 1,2,-1
 1672 28 l 1,3,4
 1662 1 1662 1 1626 0 c 1,5,-1
 1476 0 l 2,6,7
 1468 0 1468 0 1461 3 c 0,8,9
 1438 13 1438 13 1446 40 c 2,10,-1
 1490 192 l 1,11,-1
 1222 192 l 1,12,13
 1156 193 1156 193 1136 232 c 1,14,15
 1116 274 1116 274 1156 324 c 2,16,-1
 1570 856 l 2,17,18
 1573 860 1573 860 1577 863 c 0,19,20
 1597 884 1597 884 1624 884 c 2,21,-1
 1786 884 l 2,22,23
 1800 884 1800 884 1810 873 c 0,24,25
 1828 853 1828 853 1810 830 c 2,26,-1
 1418 348 l 1,27,-1
 1536 348 l 1,28,-1
 1578 492 l 1,29,30
 1588 519 1588 519 1624 520 c 1,31,-1
 1774 520 l 2,32,33
 1783 520 1783 520 1791 516 c 0,34,35
 1811 505 1811 505 1804 480 c 2,36,-1
 1765 348 l 1,37,-1
 1836 348 l 2,38,39
 1838 348 1838 348 1841 348 c 0,40,41
 1882 348 1882 348 1870 310 c 1,42,-1
 1838 228 l 2,43,44
 1837 225 1837 225 1835 221 c 0,45,46
 1821 192 1821 192 1786 192 c 2,0,1
278 -54 m 2,47,-1
 86 -52 l 2,48,49
 65 -51 65 -51 55 -30 c 1,50,51
 43 -1 43 -1 64 20 c 2,52,-1
 1520 1482 l 2,53,54
 1565 1527 1565 1527 1616 1528 c 1,55,-1
 1810 1528 l 1,56,57
 1831 1527 1831 1527 1840 1506 c 0,58,59
 1851 1477 1851 1477 1830 1456 c 2,60,-1
 362 -18 l 2,61,62
 351 -29 351 -29 341 -37 c 0,63,64
 318 -54 318 -54 278 -54 c 2,47,-1
605 1063 m 1,65,66
 667 1029 667 1029 668 904 c 0,67,68
 668 897 668 897 668 888 c 0,69,70
 661 771 661 771 565 683 c 0,71,72
 461 587 461 587 318 586 c 0,73,74
 255 586 255 586 208 607 c 0,75,76
 100 657 100 657 100 806 c 1,77,78
 101 845 101 845 126 862 c 1,79,-1
 260 918 l 1,80,81
 282 929 282 929 301 925 c 0,82,83
 328 918 328 918 328 888 c 1,84,85
 317 743 317 743 354 742 c 0,86,87
 364 742 364 742 374 747 c 0,88,89
 413 766 413 766 426 844 c 0,90,91
 432 876 432 876 430 902 c 0,92,93
 424 974 424 974 352 974 c 1,94,95
 316 977 316 977 312 1008 c 1,96,97
 312 1008 312 1008 322 1082 c 1,98,99
 328 1114 328 1114 366 1116 c 1,100,101
 402 1115 402 1115 437 1133 c 0,102,103
 505 1169 505 1169 516 1246 c 1,104,105
 520 1330 520 1330 482 1338 c 1,106,107
 467 1339 467 1339 450 1327 c 0,108,109
 408 1297 408 1297 408 1232 c 1,110,111
 402 1196 402 1196 368 1186 c 1,112,-1
 212 1176 l 2,113,114
 205 1175 205 1175 198 1176 c 0,115,116
 178 1180 178 1180 178 1216 c 0,117,118
 179 1327 179 1327 270 1410 c 0,119,120
 370 1500 370 1500 516 1500 c 0,121,122
 580 1500 580 1500 628 1481 c 0,123,124
 746 1435 746 1435 746 1290 c 0,125,126
 746 1256 746 1256 734 1220 c 0,127,128
 702 1124 702 1124 605 1063 c 1,65,66
EndSplineSet
EndChar

StartChar: questiondown
Encoding: 191 191 128
Width: 732
GlyphClass: 2
Flags: W
LayerCount: 2
Fore
SplineSet
785 1314 m 0,0,1
 785 1274 785 1274 762 1240 c 0,2,3
 722 1182 722 1182 645 1182 c 2,4,-1
 619 1182 l 2,5,6
 580 1182 580 1182 543 1212 c 0,7,8
 491 1255 491 1255 491 1314 c 0,9,10
 491 1355 491 1355 516 1389 c 0,11,12
 558 1446 558 1446 635 1446 c 2,13,-1
 659 1446 l 2,14,15
 699 1446 699 1446 734 1419 c 0,16,17
 785 1378 785 1378 785 1314 c 0,0,1
463 1090 m 0,18,19
 462 1094 462 1094 462 1099 c 0,20,21
 462 1137 462 1137 523 1130 c 1,22,-1
 627 1120 l 2,23,24
 670 1115 670 1115 685 1070 c 0,25,26
 708 997 708 997 647 878 c 1,27,28
 618 824 618 824 593 788 c 0,29,30
 509 665 509 665 405 666 c 0,31,32
 365 666 365 666 333 642 c 1,33,34
 297 613 297 613 267 534 c 0,35,36
 259 512 259 512 251 467 c 0,37,38
 223 324 223 324 223 234 c 1,39,40
 224 221 224 221 233 214 c 1,41,42
 253 202 253 202 279 228 c 1,43,44
 351 288 351 288 365 306 c 0,45,46
 366 307 366 307 368 309 c 0,47,48
 399 341 399 341 435 316 c 2,49,-1
 519 260 l 2,50,51
 529 253 529 253 534 241 c 0,52,53
 544 215 544 215 531 196 c 0,54,55
 498 146 498 146 429 80 c 0,56,57
 329 -15 329 -15 287 -20 c 0,58,59
 284 -20 284 -20 280 -21 c 0,60,61
 217 -24 217 -24 122 32 c 0,62,63
 34 83 34 83 17 128 c 0,64,65
 -23 238 -23 238 4 413 c 1,66,67
 31 580 31 580 95 716 c 0,68,69
 125 778 125 778 220 843 c 0,70,71
 341 925 341 925 445 928 c 1,72,73
 451 942 451 942 455 959 c 0,74,75
 472 1028 472 1028 463 1090 c 0,18,19
EndSplineSet
EndChar

StartChar: Aring
Encoding: 197 197 134
Width: 1108
GlyphClass: 2
Flags: W
LayerCount: 2
Fore
SplineSet
693 1448 m 1,0,1
 677 1401 677 1401 685 1356 c 0,2,3
 697 1292 697 1292 749 1276 c 1,4,5
 782 1267 782 1267 817 1284 c 0,6,7
 874 1312 874 1312 899 1382 c 1,8,9
 915 1430 915 1430 905 1476 c 0,10,11
 886 1558 886 1558 815 1558 c 0,12,13
 794 1558 794 1558 771 1547 c 0,14,15
 715 1518 715 1518 693 1448 c 1,0,1
481 1418 m 1,16,17
 497 1541 497 1541 594 1630 c 0,18,19
 697 1724 697 1724 831 1724 c 1,20,21
 959 1722 959 1722 1045 1633 c 1,22,23
 1128 1541 1128 1541 1111 1418 c 0,24,25
 1092 1277 1092 1277 973 1187 c 1,26,-1
 907 58 l 2,27,28
 905 29 905 29 893 12 c 1,29,30
 883 0 883 0 845 0 c 2,31,-1
 683 0 l 1,32,33
 633 1 633 1 637 54 c 2,34,-1
 660 390 l 1,35,-1
 340 390 l 1,36,-1
 172 38 l 2,37,38
 152 -4 152 -4 93 -2 c 2,39,-1
 -63 4 l 2,40,41
 -84 5 -84 5 -99 14 c 0,42,43
 -127 33 -127 33 -104 78 c 2,44,-1
 506 1261 l 1,45,46
 471 1332 471 1332 481 1418 c 1,16,17
713 1157 m 1,47,-1
 456 628 l 1,48,-1
 676 628 l 1,49,-1
 713 1157 l 1,47,-1
EndSplineSet
EndChar

StartChar: AE
Encoding: 198 198 135
Width: 1532
GlyphClass: 2
Flags: W
LayerCount: 2
Fore
SplineSet
501 628 m 1,0,-1
 739 628 l 1,1,-1
 832 1156 l 1,2,-1
 501 628 l 1,0,-1
351 390 m 1,3,-1
 130 38 l 2,4,5
 105 -2 105 -2 58 -2 c 0,6,7
 56 -2 56 -2 54 -2 c 2,8,-1
 -122 4 l 2,9,10
 -145 5 -145 5 -160 16 c 0,11,12
 -192 39 -192 39 -158 90 c 2,13,-1
 690 1364 l 2,14,15
 746 1448 746 1448 808 1448 c 2,16,-1
 1634 1448 l 2,17,18
 1693 1448 1693 1448 1680 1384 c 1,19,-1
 1654 1266 l 2,20,21
 1651 1254 1651 1254 1643 1242 c 0,22,23
 1623 1210 1623 1210 1586 1210 c 2,24,-1
 1104 1210 l 1,25,-1
 1052 904 l 1,26,-1
 1466 904 l 2,27,28
 1521 904 1521 904 1508 840 c 2,29,-1
 1484 722 l 2,30,31
 1482 711 1482 711 1474 698 c 0,32,33
 1453 666 1453 666 1420 666 c 2,34,-1
 1012 666 l 1,35,-1
 939 238 l 1,36,-1
 1338 238 l 2,37,38
 1397 238 1397 238 1384 174 c 1,39,-1
 1358 56 l 2,40,41
 1355 44 1355 44 1347 32 c 0,42,43
 1327 0 1327 0 1290 0 c 2,44,-1
 684 0 l 2,45,46
 665 0 665 0 646 17 c 0,47,48
 633 28 633 28 638 54 c 2,49,-1
 697 390 l 1,50,-1
 351 390 l 1,3,-1
EndSplineSet
EndChar

StartChar: Eth
Encoding: 208 208 145
Width: 924
GlyphClass: 2
Flags: W
LayerCount: 2
Fore
SplineSet
21 826 m 2,0,1
 21 826 21 826 169 826 c 1,2,-1
 262 1191 l 1,3,4
 239 1188 239 1188 218 1184 c 0,5,6
 166 1174 166 1174 162 1174 c 0,7,8
 152 1174 152 1174 143 1178 c 0,9,10
 119 1188 119 1188 119 1218 c 0,11,12
 119 1224 119 1224 120 1230 c 2,13,-1
 140 1388 l 1,14,15
 146 1417 146 1417 186 1428 c 1,16,-1
 192 1429 l 1,17,18
 351 1462 351 1462 526 1462 c 0,19,20
 659 1462 659 1462 752 1416 c 0,21,22
 948 1319 948 1319 948 1034 c 0,23,24
 948 855 948 855 884 610 c 0,25,26
 843 455 843 455 783 334 c 0,27,28
 612 -8 612 -8 320 -8 c 2,29,-1
 306 -8 l 2,30,31
 110 -8 110 -8 36 6 c 0,32,33
 23 9 23 9 13 13 c 0,34,35
 -21 27 -21 27 -21 68 c 0,36,37
 -21 84 -21 84 -16 104 c 2,38,-1
 108 588 l 1,39,-1
 -5 588 l 2,40,41
 -12 588 -12 588 -20 589 c 0,42,43
 -48 593 -48 593 -48 627 c 0,44,45
 -48 641 -48 641 -43 660 c 2,46,-1
 -11 786 l 2,47,48
 -6 805 -6 805 -4 811 c 0,49,50
 2 826 2 826 21 826 c 2,0,1
540 1201 m 1,51,-1
 444 826 l 1,52,-1
 512 826 l 2,53,54
 560 826 560 826 560 783 c 0,55,56
 560 774 560 774 558 762 c 2,57,-1
 532 644 l 2,58,59
 529 632 529 632 521 620 c 0,60,61
 498 588 498 588 464 588 c 2,62,-1
 384 588 l 1,63,-1
 298 252 l 1,64,65
 316 250 316 250 368 250 c 0,66,67
 506 251 506 251 616 682 c 1,68,69
 660 859 660 859 660 1001 c 0,70,71
 660 1012 660 1012 660 1023 c 0,72,73
 656 1176 656 1176 600 1192 c 0,74,75
 579 1198 579 1198 540 1201 c 1,51,-1
EndSplineSet
EndChar

StartChar: multiply
Encoding: 215 215 152
Width: 934
GlyphClass: 2
Flags: W
LayerCount: 2
Fore
SplineSet
623 607 m 1,0,-1
 767 158 l 2,1,2
 774 137 774 137 771 123 c 0,3,4
 766 104 766 104 725 82 c 2,5,-1
 611 18 l 2,6,7
 596 10 596 10 582 6 c 0,8,9
 526 -7 526 -7 511 62 c 1,10,-1
 430 397 l 1,11,-1
 219 50 l 1,12,-1
 212 42 l 2,13,14
 205 34 205 34 203 32 c 128,-1,15
 201 30 201 30 193.5 24.5 c 128,-1,16
 186 19 186 19 181 18.5 c 128,-1,17
 176 18 176 18 168 19.5 c 128,-1,18
 160 21 160 21 151 26 c 2,19,-1
 11 116 l 1,20,21
 -8 127 -8 127 -17 137 c 0,22,23
 -34 157 -34 157 -7 198 c 1,24,-1
 312 653 l 1,25,-1
 181 1072 l 2,26,27
 164 1126 164 1126 180 1148 c 0,28,29
 184 1153 184 1153 217 1178 c 1,30,-1
 337 1238 l 1,31,32
 353 1249 353 1249 370 1246 c 0,33,34
 404 1239 404 1239 419 1186 c 2,35,-1
 520 834 l 1,36,-1
 761 1196 l 2,37,38
 762 1197 762 1197 763 1199 c 0,39,40
 793 1244 793 1244 829 1222 c 2,41,-1
 959 1146 l 2,42,43
 982 1132 982 1132 991 1118 c 0,44,45
 1002 1099 1002 1099 975 1062 c 1,46,-1
 623 607 l 1,0,-1
EndSplineSet
EndChar

StartChar: Oslash
Encoding: 216 216 153
Width: 900
GlyphClass: 2
Flags: W
LayerCount: 2
Fore
SplineSet
364 752 m 1,0,1
 364 752 364 752 360 737 c 1,2,-1
 678 1124 l 1,3,4
 667 1196 667 1196 622 1198 c 1,5,6
 598 1198 598 1198 580 1193 c 0,7,8
 536 1180 536 1180 494 1112 c 0,9,10
 431 1009 431 1009 364 752 c 1,0,1
80 816 m 0,11,12
 148 1079 148 1079 273 1251 c 0,13,14
 429 1464 429 1464 622 1464 c 0,15,16
 631 1464 631 1464 640 1464 c 0,17,18
 743 1458 743 1458 820 1414 c 0,19,20
 853 1394 853 1394 877 1366 c 1,21,-1
 950 1454 l 2,22,23
 952 1456 952 1456 954 1459 c 0,24,25
 985 1493 985 1493 1022 1468 c 2,26,-1
 1108 1410 l 1,27,28
 1160 1378 1160 1378 1132 1342 c 1,29,-1
 952 1124 l 1,30,31
 954 1083 954 1083 954 1058 c 0,32,33
 954 879 954 879 886 610 c 0,34,35
 837 416 837 416 761 275 c 0,36,37
 606 -10 606 -10 374 -10 c 0,38,39
 258 -10 258 -10 186 30 c 0,40,41
 137 58 137 58 106 100 c 1,42,-1
 76 64 l 2,43,44
 33 13 33 13 8 32 c 2,45,-1
 -80 102 l 2,46,47
 -93 113 -93 113 -100 121 c 0,48,49
 -122 148 -122 148 -88 192 c 1,50,-1
 30 336 l 1,51,52
 26 380 26 380 26 440 c 0,53,54
 26 606 26 606 80 816 c 0,11,12
306 342 m 1,55,56
 316 230 316 230 372 228 c 0,57,58
 387 228 387 228 402 232 c 0,59,60
 445 246 445 246 494 328 c 1,61,62
 556 436 556 436 618 682 c 1,63,-1
 631 735 l 1,64,-1
 306 342 l 1,55,56
EndSplineSet
EndChar

StartChar: Thorn
Encoding: 222 222 159
Width: 940
GlyphClass: 2
Flags: W
LayerCount: 2
Fore
SplineSet
327 1404 m 1,0,1
 339 1447 339 1447 387 1448 c 1,2,-1
 557 1448 l 2,3,4
 570 1448 570 1448 580 1442 c 0,5,6
 606 1425 606 1425 597 1386 c 2,7,-1
 578 1310 l 1,8,-1
 645 1310 l 2,9,10
 731 1310 731 1310 798 1284 c 0,11,12
 949 1224 949 1224 949 1050 c 0,13,14
 949 931 949 931 902 792 c 0,15,16
 851 641 851 641 789 586 c 1,17,18
 758 555 758 555 742 542 c 0,19,20
 626 448 626 448 357 445 c 1,21,-1
 255 44 l 1,22,23
 243 1 243 1 195 0 c 1,24,-1
 25 0 l 2,25,26
 12 0 12 0 2 6 c 0,27,28
 -24 23 -24 23 -15 62 c 2,29,-1
 327 1404 l 1,0,1
410 653 m 1,30,-1
 487 658 l 2,31,32
 496 659 496 659 506 660 c 0,33,34
 599 674 599 674 649 766 c 1,35,36
 654 782 654 782 661 805 c 0,37,38
 697 941 697 941 697 1026 c 0,39,40
 697 1037 697 1037 688 1048 c 0,41,42
 668 1072 668 1072 637 1072 c 1,43,44
 610 1073 610 1073 518 1075 c 1,45,-1
 410 653 l 1,30,-1
EndSplineSet
EndChar

StartChar: germandbls
Encoding: 223 223 160
Width: 972
GlyphClass: 2
Flags: W
LayerCount: 2
Fore
SplineSet
146 0 m 1,0,1
 146 0 146 0 -6 0 c 0,2,3
 -16 0 -16 0 -26 3 c 0,4,5
 -58 13 -58 13 -50 46 c 2,6,-1
 230 1100 l 2,7,8
 269 1248 269 1248 356 1361 c 0,9,10
 497 1544 497 1544 700 1544 c 0,11,12
 824 1544 824 1544 911 1461 c 0,13,14
 1004 1373 1004 1373 1008 1241 c 0,15,16
 1014 1075 1014 1075 874 932 c 1,17,18
 864 920 864 920 842 895 c 0,19,20
 827 878 827 878 820 869 c 0,21,22
 756 793 756 793 756 742 c 0,23,24
 756 724 756 724 762 705 c 0,25,26
 773 674 773 674 824 619 c 0,27,28
 848 593 848 593 860 579 c 0,29,30
 940 482 940 482 940 354 c 0,31,32
 940 338 940 338 938 321 c 0,33,34
 925 189 925 189 831 89 c 0,35,36
 716 -32 716 -32 546 -32 c 0,37,38
 513 -32 513 -32 482 -26 c 0,39,40
 299 11 299 11 302 258 c 0,41,42
 302 265 302 265 303 272 c 0,43,44
 310 318 310 318 342 328 c 2,45,-1
 500 378 l 2,46,47
 516 383 516 383 531 382 c 0,48,49
 563 379 563 379 562 350 c 0,50,51
 562 339 562 339 561 326 c 0,52,53
 560 176 560 176 600 176 c 1,54,55
 615 178 615 178 628 195 c 1,56,57
 656 237 656 237 656 328 c 0,58,59
 656 385 656 385 634 425 c 0,60,61
 616 456 616 456 564 498 c 0,62,63
 540 517 540 517 528 528 c 0,64,65
 468 585 468 585 468 678 c 0,66,67
 469 842 469 842 672 1060 c 0,68,69
 711 1102 711 1102 734 1143 c 0,70,71
 762 1195 762 1195 761 1238 c 1,72,73
 761 1326 761 1326 674 1326 c 0,74,75
 628 1326 628 1326 579 1276 c 0,76,77
 517 1214 517 1214 484 1092 c 2,78,-1
 204 44 l 2,79,80
 193 2 193 2 146 0 c 1,0,1
EndSplineSet
EndChar

StartChar: ae
Encoding: 230 230 167
Width: 990
GlyphClass: 2
Flags: W
LayerCount: 2
Fore
SplineSet
611 551 m 1,0,1
 667 578 667 578 712 629 c 1,2,3
 788 719 788 719 788 824 c 0,4,5
 788 842 788 842 786 854 c 0,6,7
 782 878 782 878 762 878 c 0,8,9
 751 878 751 878 732 857 c 0,10,11
 695 817 695 817 680 776 c 1,12,13
 643 683 643 683 611 551 c 1,0,1
563 337 m 1,14,15
 563 337 563 337 560 322 c 0,16,17
 546 256 546 256 558 234 c 0,18,19
 564 224 564 224 594 214 c 1,20,21
 596 215 596 215 600 216 c 0,22,23
 634 229 634 229 728 328 c 0,24,25
 729 329 729 329 731 331 c 0,26,27
 749 344 749 344 768 332 c 2,28,-1
 866 272 l 2,29,30
 870 269 870 269 875 265 c 1,31,32
 893 245 893 245 884 228 c 0,33,34
 880 220 880 220 873 210 c 0,35,36
 825 139 825 139 716 52 c 0,37,38
 592 -46 592 -46 546 -38 c 1,39,40
 410 -2 410 -2 358 63 c 1,41,42
 335 37 335 37 307 18 c 0,43,44
 209 -50 209 -50 110 -8 c 0,45,46
 108 -7 108 -7 104 -6 c 0,47,48
 -30 55 -30 55 -30 198 c 1,49,50
 -26 348 -26 348 113 497 c 1,51,52
 239 624 239 624 407 679 c 1,53,-1
 414 714 l 2,54,55
 427 774 427 774 419 801 c 0,56,57
 412 825 412 825 380 836 c 1,58,59
 378 835 378 835 374 834 c 0,60,61
 340 821 340 821 246 722 c 0,62,63
 245 721 245 721 243 719 c 0,64,65
 225 706 225 706 206 718 c 2,66,-1
 108 778 l 2,67,68
 104 781 104 781 99 785 c 1,69,70
 81 805 81 805 90 822 c 0,71,72
 94 830 94 830 101 840 c 0,73,74
 149 911 149 911 258 998 c 0,75,76
 382 1096 382 1096 428 1088 c 1,77,78
 564 1052 564 1052 616 988 c 1,79,80
 622 994 622 994 629 1001 c 0,81,82
 743 1110 743 1110 864 1058 c 0,83,84
 866 1057 866 1057 870 1056 c 0,85,86
 1004 995 1004 995 1004 852 c 0,87,88
 1004 829 1004 829 1000 805 c 0,89,90
 978 658 978 658 847 520 c 0,91,92
 720 386 720 386 563 337 c 1,14,15
357 464 m 1,93,94
 323 448 323 448 294 426 c 0,95,96
 186 344 186 344 186 226 c 0,97,98
 186 208 186 208 188 196 c 0,99,100
 192 172 192 172 212 172 c 1,101,102
 223 173 223 173 242 189 c 1,103,104
 280 224 280 224 294 260 c 0,105,106
 327 344 327 344 357 464 c 1,93,94
EndSplineSet
EndChar

StartChar: eth
Encoding: 240 240 177
Width: 752
GlyphClass: 2
Flags: W
LayerCount: 2
Fore
SplineSet
298 1342 m 1,0,1
 298 1342 298 1342 454 1374 c 1,2,3
 442 1410 442 1410 418 1472 c 0,4,5
 414 1483 414 1483 415 1493 c 0,6,7
 419 1520 419 1520 454 1520 c 2,8,-1
 640 1520 l 2,9,10
 646 1520 646 1520 652 1519 c 0,11,12
 690 1512 690 1512 698 1470 c 1,13,-1
 708 1426 l 1,14,-1
 796 1444 l 1,15,16
 830 1449 830 1449 848 1420 c 1,17,-1
 898 1326 l 2,18,19
 903 1317 903 1317 903 1306 c 0,20,21
 905 1270 905 1270 862 1262 c 1,22,-1
 744 1237 l 1,23,24
 757 1163 757 1163 764 1092 c 0,25,26
 783 916 783 916 765 739 c 0,27,28
 735 432 735 432 616 245 c 1,29,-1
 606 228 l 2,30,31
 587 196 587 196 566 166 c 0,32,33
 434 -16 434 -16 286 -16 c 0,34,35
 256 -16 256 -16 235 -14 c 0,36,37
 152 -5 152 -5 88 62 c 0,38,39
 75 76 75 76 63 94 c 0,40,41
 0 191 0 191 0 350 c 0,42,43
 0 568 0 568 120 822 c 1,44,45
 146 882 146 882 183 932 c 0,46,47
 305 1098 305 1098 490 1098 c 0,48,49
 508 1098 508 1098 523 1095 c 1,50,-1
 522 1102 l 2,51,52
 517 1130 517 1130 505 1188 c 1,53,-1
 402 1166 l 2,54,55
 354 1156 354 1156 330 1198 c 1,56,-1
 288 1294 l 1,57,58
 266 1331 266 1331 298 1342 c 1,0,1
498 566 m 1,59,60
 513 616 513 616 520 699 c 0,61,62
 533 864 533 864 472 864 c 0,63,64
 452 864 452 864 433 853 c 0,65,66
 386 825 386 825 336 698 c 0,67,68
 335 696 335 696 334 693 c 0,69,70
 246 468 246 468 246 350 c 0,71,72
 246 295 246 295 251 271 c 0,73,74
 260 232 260 232 300 224 c 1,75,76
 318 227 318 227 333 233 c 0,77,78
 370 250 370 250 410 324 c 0,79,80
 418 339 418 339 426 356 c 0,81,82
 476 464 476 464 498 566 c 1,59,60
EndSplineSet
EndChar

StartChar: divide
Encoding: 247 247 184
Width: 1040
GlyphClass: 2
Flags: W
LayerCount: 2
Fore
SplineSet
59 806 m 2,0,1
 59 806 59 806 1041 806 c 1,2,3
 1100 805 1100 805 1087 742 c 2,4,-1
 1061 624 l 2,5,6
 1058 612 1058 612 1050 600 c 0,7,8
 1027 568 1027 568 993 568 c 2,9,-1
 33 568 l 2,10,11
 25 568 25 568 18 569 c 0,12,13
 -22 576 -22 576 -5 640 c 2,14,-1
 27 766 l 2,15,16
 30 781 30 781 34 791 c 0,17,18
 40 806 40 806 59 806 c 2,0,1
461 1102 m 0,19,20
 461 1142 461 1142 484 1176 c 0,21,22
 524 1234 524 1234 601 1234 c 2,23,-1
 627 1234 l 2,24,25
 666 1234 666 1234 703 1204 c 0,26,27
 755 1161 755 1161 755 1102 c 0,28,29
 755 1061 755 1061 730 1027 c 0,30,31
 688 970 688 970 611 970 c 2,32,-1
 587 970 l 2,33,34
 547 970 547 970 512 997 c 0,35,36
 461 1038 461 1038 461 1102 c 0,19,20
259 234 m 0,37,38
 259 274 259 274 282 308 c 0,39,40
 322 366 322 366 399 366 c 2,41,-1
 425 366 l 2,42,43
 464 366 464 366 501 336 c 0,44,45
 553 293 553 293 553 234 c 0,46,47
 553 193 553 193 528 159 c 0,48,49
 486 102 486 102 409 102 c 2,50,-1
 385 102 l 2,51,52
 345 102 345 102 310 129 c 0,53,54
 259 170 259 170 259 234 c 0,37,38
EndSplineSet
EndChar

StartChar: oslash
Encoding: 248 248 185
Width: 752
GlyphClass: 2
Flags: W
LayerCount: 2
Fore
SplineSet
137 822 m 1,0,1
 163 882 163 882 200 932 c 0,2,3
 322 1098 322 1098 507 1098 c 0,4,5
 523 1098 523 1098 538 1097 c 0,6,7
 663 1088 663 1088 725 978 c 1,8,-1
 843 1086 l 2,9,10
 880 1119 880 1119 915 1090 c 1,11,-1
 993 1020 l 1,12,13
 1038 978 1038 978 1007 950 c 2,14,-1
 767 731 l 1,15,-1
 767 726 l 2,16,17
 767 680 767 680 761 630 c 0,18,19
 735 416 735 416 623 228 c 0,20,21
 604 196 604 196 583 166 c 0,22,23
 451 -16 451 -16 303 -16 c 0,24,25
 273 -16 273 -16 252 -14 c 0,26,27
 169 -5 169 -5 105 62 c 0,28,29
 91 77 91 77 75 102 c 1,30,-1
 -19 16 l 2,31,32
 -67 -28 -67 -28 -91 -6 c 1,33,-1
 -167 76 l 2,34,35
 -179 90 -179 90 -185 99 c 0,36,37
 -202 129 -202 129 -163 166 c 2,38,-1
 17 331 l 1,39,-1
 17 350 l 2,40,41
 17 568 17 568 137 822 c 1,0,1
264 300 m 1,42,43
 265 285 265 285 268 273 c 0,44,45
 277 232 277 232 317 224 c 1,46,47
 335 227 335 227 350 233 c 0,48,49
 387 250 387 250 427 324 c 0,50,51
 470 405 470 405 502 516 c 1,52,-1
 264 300 l 1,42,43
537 787 m 1,53,54
 530 862 530 862 489 864 c 0,55,56
 469 864 469 864 450 853 c 0,57,58
 403 825 403 825 353 698 c 0,59,60
 323 622 323 622 308 577 c 1,61,-1
 537 787 l 1,53,54
EndSplineSet
EndChar

StartChar: thorn
Encoding: 254 254 191
Width: 818
GlyphClass: 2
Flags: W
LayerCount: 2
Fore
SplineSet
581 1472 m 1,0,1
 581 1472 581 1472 431 887 c 1,2,-1
 479 944 l 2,3,4
 516 989 516 989 541 1015 c 0,5,6
 599 1074 599 1074 645 1074 c 2,7,-1
 659 1074 l 1,8,9
 693 1072 693 1072 759 1008 c 1,10,11
 845 921 845 921 835 814 c 0,12,13
 835 811 835 811 834 806 c 0,14,15
 809 577 809 577 712 329 c 0,16,17
 624 105 624 105 545 44 c 1,18,19
 477 -7 477 -7 385 -8 c 0,20,21
 296 -8 296 -8 217 50 c 1,22,-1
 113 -356 l 2,23,24
 101 -399 101 -399 53 -400 c 1,25,-1
 -85 -400 l 2,26,27
 -98 -400 -98 -400 -109 -397 c 0,28,29
 -148 -384 -148 -384 -137 -336 c 1,30,-1
 327 1474 l 2,31,32
 339 1517 339 1517 387 1518 c 1,33,-1
 537 1518 l 1,34,35
 590 1517 590 1517 581 1472 c 1,0,1
263 214 m 1,36,37
 267 213 267 213 271 211 c 0,38,39
 342 190 342 190 369 210 c 0,40,41
 404 237 404 237 460 378 c 0,42,43
 534 563 534 563 561 710 c 0,44,45
 567 742 567 742 567 755 c 0,46,47
 566 770 566 770 551 770 c 0,48,49
 547 770 547 770 543 768 c 0,50,51
 506 751 506 751 445 650 c 1,52,53
 339 467 339 467 273 244 c 1,54,-1
 263 214 l 1,36,37
EndSplineSet
EndChar

StartChar: aogonek
Encoding: 261 261 193
Width: 838
GlyphClass: 2
Flags: W
LayerCount: 2
Fore
SplineSet
577 825 m 1,0,1
 515 865 515 865 475 838 c 1,2,3
 439 810 439 810 382 672 c 0,4,5
 308 493 308 493 283 360 c 0,6,7
 280 339 280 339 280 328 c 0,8,9
 281 312 281 312 301 312 c 0,10,11
 330 312 330 312 391 419 c 0,12,13
 484 580 484 580 577 824 c 1,14,-1
 577 825 l 1,0,1
629 1021 m 1,15,16
 629 1021 629 1021 631 1030 c 0,17,18
 633 1037 633 1037 634 1043 c 0,19,20
 646 1084 646 1084 681 1084 c 2,21,-1
 809 1086 l 1,22,23
 881 1085 881 1085 865 1020 c 1,24,-1
 595 56 l 2,25,26
 590 39 590 39 581 24 c 1,27,28
 580 11 580 11 565 4 c 1,29,30
 504 -16 504 -16 459 -45 c 0,31,32
 363 -107 363 -107 363 -186 c 0,33,34
 363 -198 363 -198 367 -209 c 0,35,36
 382 -247 382 -247 435 -244 c 0,37,38
 455 -243 455 -243 503 -228 c 1,39,40
 531 -222 531 -222 543 -252 c 1,41,-1
 563 -322 l 2,42,43
 572 -350 572 -350 537 -366 c 1,44,-1
 526 -370 l 2,45,46
 515 -374 515 -374 507.5 -377 c 128,-1,47
 500 -380 500 -380 483 -385 c 128,-1,48
 466 -390 466 -390 450.5 -393 c 128,-1,49
 435 -396 435 -396 412.5 -398 c 128,-1,50
 390 -400 390 -400 367 -400 c 0,51,52
 272 -400 272 -400 219 -356 c 0,53,54
 216 -354 216 -354 213 -351 c 0,55,56
 163 -305 163 -305 163 -232 c 0,57,58
 163 -195 163 -195 174 -159 c 0,59,60
 213 -33 213 -33 373 51 c 1,61,62
 373 58 373 58 377 72 c 2,63,-1
 406 174 l 1,64,-1
 329 82 l 2,65,66
 253 -9 253 -9 165 -10 c 1,67,68
 76 -9 76 -9 43 58 c 0,69,70
 16 115 16 115 31 254 c 0,71,72
 31 257 31 257 32 262 c 0,73,74
 57 491 57 491 154 739 c 0,75,76
 242 963 242 963 321 1024 c 1,77,78
 389 1075 389 1075 465 1076 c 1,79,80
 551 1076 551 1076 629 1021 c 1,15,16
EndSplineSet
EndChar

StartChar: dotlessi
Encoding: 305 305 196
Width: 528
GlyphClass: 2
Flags: W
LayerCount: 2
Fore
SplineSet
531 1034 m 1,0,1
 531 1034 531 1034 271 44 c 0,2,3
 259 1 259 1 211 0 c 1,4,-1
 49 0 l 1,5,6
 -4 1 -4 1 5 46 c 1,7,-1
 265 1036 l 2,8,9
 277 1079 277 1079 325 1080 c 1,10,-1
 487 1080 l 1,11,12
 540 1079 540 1079 531 1034 c 1,0,1
EndSplineSet
EndChar

StartChar: circumflex
Encoding: 710 710 202
Width: 856
GlyphClass: 2
Flags: W
LayerCount: 2
Fore
SplineSet
475 1293 m 1,0,-1
 354 1172 l 2,1,2
 334 1152 334 1152 312 1150 c 0,3,4
 306 1150 306 1150 298 1150 c 2,5,-1
 184 1150 l 2,6,7
 157 1150 157 1150 157 1170 c 1,8,9
 158 1183 158 1183 172 1196 c 2,10,-1
 438 1440 l 1,11,12
 472 1468 472 1468 489 1468 c 0,13,14
 491 1468 491 1468 494 1468 c 2,15,-1
 530 1466 l 1,16,17
 558 1463 558 1463 576 1433 c 0,18,19
 577 1431 577 1431 578 1430 c 2,20,-1
 714 1184 l 1,21,22
 728 1162 728 1162 710 1153 c 0,23,24
 703 1150 703 1150 694 1150 c 2,25,-1
 570 1150 l 2,26,27
 541 1150 541 1150 533 1163 c 0,28,29
 531 1167 531 1167 528 1172 c 2,30,-1
 475 1293 l 1,0,-1
EndSplineSet
EndChar

StartChar: caron
Encoding: 711 711 203
Width: 844
GlyphClass: 2
Flags: W
LayerCount: 2
Fore
SplineSet
419 1305 m 1,0,-1
 540 1426 l 2,1,2
 560 1446 560 1446 582 1448 c 0,3,4
 588 1448 588 1448 596 1448 c 2,5,-1
 710 1448 l 2,6,7
 737 1448 737 1448 737 1428 c 1,8,9
 736 1415 736 1415 722 1402 c 2,10,-1
 456 1158 l 1,11,12
 422 1130 422 1130 405 1130 c 0,13,14
 402 1130 402 1130 400 1130 c 2,15,-1
 364 1132 l 1,16,17
 336 1135 336 1135 318 1165 c 0,18,19
 317 1167 317 1167 316 1168 c 2,20,-1
 180 1414 l 1,21,22
 166 1436 166 1436 184 1445 c 0,23,24
 191 1448 191 1448 200 1448 c 2,25,-1
 324 1448 l 2,26,27
 353 1448 353 1448 361 1435 c 0,28,29
 363 1431 363 1431 366 1426 c 2,30,-1
 419 1305 l 1,0,-1
EndSplineSet
EndChar

StartChar: breve
Encoding: 728 728 204
Width: 912
GlyphClass: 2
Flags: W
LayerCount: 2
Fore
SplineSet
458 1126 m 0,0,1
 324 1126 324 1126 227 1190 c 0,2,3
 97 1276 97 1276 72 1444 c 1,4,-1
 236 1444 l 1,5,6
 242 1388 242 1388 279 1344 c 0,7,8
 343 1268 343 1268 458 1268 c 0,9,10
 529 1268 529 1268 585 1301 c 0,11,12
 667 1350 667 1350 678 1444 c 1,13,-1
 840 1444 l 1,14,15
 826 1323 826 1323 747 1240 c 0,16,17
 639 1126 639 1126 458 1126 c 0,0,1
EndSplineSet
EndChar

StartChar: dotaccent
Encoding: 729 729 205
Width: 466
GlyphClass: 2
Flags: W
LayerCount: 2
Fore
SplineSet
246 1324 m 0,0,1
 246 1364 246 1364 269 1398 c 0,2,3
 309 1456 309 1456 386 1456 c 2,4,-1
 412 1456 l 2,5,6
 451 1456 451 1456 488 1426 c 0,7,8
 540 1383 540 1383 540 1324 c 0,9,10
 540 1283 540 1283 515 1249 c 0,11,12
 473 1192 473 1192 396 1192 c 2,13,-1
 372 1192 l 2,14,15
 332 1192 332 1192 297 1219 c 0,16,17
 246 1260 246 1260 246 1324 c 0,0,1
EndSplineSet
EndChar

StartChar: ring
Encoding: 730 730 206
Width: 1220
GlyphClass: 2
Flags: W
LayerCount: 2
Fore
SplineSet
468 1424 m 0,0,1
 483 1547 483 1547 582 1637 c 0,2,3
 685 1730 685 1730 818 1730 c 1,4,5
 946 1728 946 1728 1032 1639 c 1,6,7
 1113 1549 1113 1549 1098 1424 c 1,8,9
 1081 1301 1081 1301 982 1212 c 0,10,11
 877 1118 877 1118 744 1118 c 1,12,13
 616 1120 616 1120 532 1209 c 1,14,15
 452 1299 452 1299 468 1424 c 0,0,1
686 1448 m 1,16,17
 670 1401 670 1401 678 1356 c 0,18,19
 690 1292 690 1292 742 1276 c 1,20,21
 775 1267 775 1267 810 1284 c 0,22,23
 867 1312 867 1312 892 1382 c 1,24,25
 908 1430 908 1430 898 1476 c 1,26,27
 883 1538 883 1538 832 1554 c 0,28,29
 799 1564 799 1564 764 1547 c 0,30,31
 708 1518 708 1518 686 1448 c 1,16,17
EndSplineSet
EndChar

StartChar: ogonek
Encoding: 731 731 207
Width: 666
GlyphClass: 2
Flags: W
LayerCount: 2
Fore
SplineSet
366 104 m 1,0,1
 366 104 366 104 420 56 c 0,2,3
 428 49 428 49 433 39 c 0,4,5
 446 13 446 13 420 4 c 0,6,7
 359 -16 359 -16 314 -45 c 0,8,9
 218 -107 218 -107 218 -186 c 0,10,11
 218 -198 218 -198 222 -209 c 0,12,13
 237 -247 237 -247 290 -244 c 0,14,15
 310 -243 310 -243 358 -228 c 1,16,17
 386 -222 386 -222 398 -252 c 1,18,-1
 418 -322 l 2,19,20
 427 -350 427 -350 392 -366 c 1,21,-1
 381 -370 l 2,22,23
 370 -374 370 -374 362.5 -377 c 128,-1,24
 355 -380 355 -380 338 -385 c 128,-1,25
 321 -390 321 -390 305.5 -393 c 128,-1,26
 290 -396 290 -396 267.5 -398 c 128,-1,27
 245 -400 245 -400 222 -400 c 0,28,29
 127 -400 127 -400 74 -356 c 0,30,31
 71 -354 71 -354 68 -351 c 0,32,33
 18 -305 18 -305 18 -232 c 1,34,35
 20 -101 20 -101 146 -2 c 0,36,37
 244 74 244 74 366 104 c 1,0,1
EndSplineSet
EndChar

StartChar: tilde
Encoding: 732 732 208
Width: 1114
GlyphClass: 2
Flags: W
LayerCount: 2
Fore
SplineSet
575 1382 m 0,0,1
 582 1380 582 1380 590 1378 c 0,2,3
 726 1340 726 1340 889 1382 c 0,4,5
 906 1386 906 1386 919 1380 c 1,6,7
 946 1365 946 1365 935 1318 c 2,8,-1
 907 1194 l 2,9,10
 906 1190 906 1190 904 1185 c 0,11,12
 894 1160 894 1160 855 1148 c 0,13,14
 677 1097 677 1097 559 1144 c 0,15,16
 543 1150 543 1150 526 1156 c 0,17,18
 398 1194 398 1194 263 1150 c 0,19,20
 236 1142 236 1142 221 1147 c 0,21,22
 196 1155 196 1155 203 1216 c 2,23,-1
 213 1306 l 1,24,25
 220 1355 220 1355 251 1370 c 1,26,27
 286 1384 286 1384 332 1392 c 0,28,29
 467 1415 467 1415 575 1382 c 0,0,1
EndSplineSet
EndChar

StartChar: hungarumlaut
Encoding: 733 733 209
Width: 932
GlyphClass: 2
Flags: W
LayerCount: 2
Fore
SplineSet
369 1448 m 2,0,1
 379 1448 379 1448 388 1444 c 0,2,3
 412 1431 412 1431 383 1398 c 1,4,-1
 203 1178 l 1,5,6
 175 1151 175 1151 135 1150 c 1,7,-1
 57 1150 l 2,8,9
 49 1150 49 1150 43 1152 c 0,10,11
 22 1160 22 1160 37 1184 c 2,12,-1
 175 1414 l 1,13,14
 197 1447 197 1447 237 1448 c 1,15,-1
 369 1448 l 2,0,1
665 1448 m 2,16,17
 677 1448 677 1448 686 1442 c 0,18,19
 708 1427 708 1427 679 1398 c 1,20,-1
 479 1178 l 1,21,22
 451 1151 451 1151 411 1150 c 1,23,-1
 333 1150 l 2,24,25
 325 1150 325 1150 319 1152 c 0,26,27
 298 1160 298 1160 313 1184 c 1,28,-1
 471 1414 l 2,29,30
 493 1447 493 1447 533 1448 c 1,31,-1
 665 1448 l 2,16,17
EndSplineSet
EndChar

StartChar: tildecomb
Encoding: 771 771 210
Width: 1114
GlyphClass: 2
Flags: W
LayerCount: 2
Fore
SplineSet
616 1370 m 1,0,1
 730 1330 730 1330 774 1330 c 0,2,3
 785 1330 785 1330 795 1331 c 0,4,5
 830 1334 830 1334 896 1364 c 0,6,7
 912 1371 912 1371 925 1363 c 0,8,9
 949 1346 949 1346 938 1302 c 1,10,-1
 910 1206 l 1,11,12
 901 1171 901 1171 864 1146 c 0,13,14
 857 1142 857 1142 851 1138 c 0,15,16
 808 1112 808 1112 742 1112 c 0,17,18
 736 1112 736 1112 729 1113 c 0,19,20
 662 1118 662 1118 602 1142 c 0,21,22
 594 1146 594 1146 578 1153 c 0,23,24
 497 1190 497 1190 460 1190 c 0,25,26
 397 1190 397 1190 346 1160 c 0,27,28
 324 1147 324 1147 309 1146 c 0,29,30
 278 1145 278 1145 286 1212 c 1,31,-1
 292 1276 l 1,32,33
 299 1330 299 1330 326 1350 c 1,34,35
 402 1401 402 1401 488 1402 c 0,36,37
 504 1402 504 1402 523 1398 c 0,38,39
 541 1395 541 1395 616 1370 c 1,0,1
EndSplineSet
EndChar

StartChar: dieresiscomb
Encoding: 776 776 211
Width: 1046
GlyphClass: 2
Flags: W
LayerCount: 2
Fore
SplineSet
246 1324 m 0,0,1
 246 1364 246 1364 267 1398 c 0,2,3
 303 1456 303 1456 370 1456 c 2,4,-1
 392 1456 l 2,5,6
 424 1456 424 1456 456 1428 c 0,7,8
 504 1385 504 1385 504 1324 c 0,9,10
 504 1283 504 1283 483 1249 c 0,11,12
 446 1192 446 1192 378 1192 c 2,13,-1
 356 1192 l 2,14,15
 323 1192 323 1192 293 1218 c 0,16,17
 246 1259 246 1259 246 1324 c 0,0,1
566 1324 m 0,18,19
 566 1363 566 1363 585 1397 c 1,20,21
 620 1456 620 1456 688 1456 c 2,22,-1
 712 1456 l 2,23,24
 744 1456 744 1456 776 1428 c 0,25,26
 824 1385 824 1385 824 1324 c 0,27,28
 824 1283 824 1283 803 1249 c 0,29,30
 766 1192 766 1192 698 1192 c 2,31,-1
 676 1192 l 2,32,33
 642 1192 642 1192 613 1217 c 0,34,35
 566 1257 566 1257 566 1324 c 0,18,19
EndSplineSet
EndChar

StartChar: endash
Encoding: 8211 8211 212
Width: 1350
GlyphClass: 2
Flags: W
LayerCount: 2
Fore
SplineSet
189 762 m 2,0,1
 189 762 189 762 1171 762 c 1,2,3
 1230 761 1230 761 1217 698 c 2,4,-1
 1191 580 l 2,5,6
 1188 568 1188 568 1180 556 c 0,7,8
 1157 524 1157 524 1123 524 c 2,9,-1
 163 524 l 2,10,11
 155 524 155 524 148 525 c 0,12,13
 108 532 108 532 125 596 c 2,14,-1
 157 722 l 2,15,16
 160 737 160 737 164 747 c 0,17,18
 170 762 170 762 189 762 c 2,0,1
EndSplineSet
EndChar

StartChar: emdash
Encoding: 8212 8212 213
Width: 1804
GlyphClass: 2
Flags: W
LayerCount: 2
Fore
SplineSet
189 762 m 2,0,1
 189 762 189 762 1749 762 c 1,2,3
 1808 761 1808 761 1795 698 c 2,4,-1
 1769 580 l 2,5,6
 1766 568 1766 568 1758 556 c 0,7,8
 1735 524 1735 524 1701 524 c 2,9,-1
 163 524 l 2,10,11
 155 524 155 524 148 525 c 0,12,13
 108 532 108 532 125 596 c 2,14,-1
 157 722 l 2,15,16
 160 737 160 737 164 747 c 0,17,18
 170 762 170 762 189 762 c 2,0,1
EndSplineSet
EndChar

StartChar: quoteleft
Encoding: 8216 8216 214
Width: 454
GlyphClass: 2
Flags: W
LayerCount: 2
Fore
SplineSet
94 1062 m 0,0,1
 94 1163 94 1163 141 1283 c 0,2,3
 198 1426 198 1426 292 1544 c 1,4,-1
 310 1566 l 2,5,6
 328 1588 328 1588 355.5 1609 c 128,-1,7
 383 1630 383 1630 402 1630 c 0,8,9
 442 1628 442 1628 446 1588 c 1,10,11
 446 1536 446 1536 426 1455 c 0,12,13
 396 1333 396 1333 392 1308 c 0,14,15
 372 1169 372 1169 372 1096 c 0,16,17
 372 1086 372 1086 368 1079 c 0,18,19
 360 1067 360 1067 322 1058 c 2,20,-1
 142 1020 l 2,21,22
 137 1019 137 1019 131 1019 c 0,23,24
 94 1019 94 1019 94 1062 c 0,0,1
EndSplineSet
EndChar

StartChar: quoteright
Encoding: 8217 8217 215
Width: 412
GlyphClass: 2
Flags: W
LayerCount: 2
Fore
SplineSet
512 1614 m 1,0,1
 512 1513 512 1513 465 1393 c 0,2,3
 408 1250 408 1250 314 1132 c 1,4,-1
 296 1110 l 2,5,6
 278 1088 278 1088 250.5 1067 c 128,-1,7
 223 1046 223 1046 204 1046 c 0,8,9
 164 1048 164 1048 160 1088 c 1,10,11
 160 1140 160 1140 180 1221 c 0,12,13
 210 1343 210 1343 214 1368 c 128,-1,14
 218 1393 218 1393 220 1427 c 0,15,16
 230 1554 230 1554 234 1580 c 1,17,18
 235 1616 235 1616 284 1618 c 1,19,-1
 464 1656 l 1,20,21
 510 1655 510 1655 512 1614 c 1,0,1
EndSplineSet
EndChar

StartChar: quotesinglbase
Encoding: 8218 8218 216
Width: 640
GlyphClass: 2
Flags: W
LayerCount: 2
Fore
SplineSet
282 214 m 1,0,1
 282 113 282 113 235 -7 c 0,2,3
 178 -150 178 -150 84 -268 c 1,4,-1
 66 -290 l 2,5,6
 48 -312 48 -312 20.5 -333 c 128,-1,7
 -7 -354 -7 -354 -26 -354 c 0,8,9
 -66 -352 -66 -352 -70 -312 c 1,10,11
 -70 -260 -70 -260 -50 -179 c 0,12,13
 -20 -57 -20 -57 -16 -32 c 128,-1,14
 -12 -7 -12 -7 -10 27 c 0,15,16
 0 154 0 154 4 180 c 1,17,18
 5 216 5 216 54 218 c 1,19,-1
 234 256 l 1,20,21
 280 255 280 255 282 214 c 1,0,1
EndSplineSet
EndChar

StartChar: quotedblleft
Encoding: 8220 8220 217
Width: 800
GlyphClass: 2
Flags: W
LayerCount: 2
Fore
SplineSet
560 1062 m 0,0,1
 560 1163 560 1163 607 1283 c 0,2,3
 664 1426 664 1426 758 1544 c 1,4,-1
 776 1566 l 2,5,6
 794 1588 794 1588 821.5 1609 c 128,-1,7
 849 1630 849 1630 868 1630 c 0,8,9
 908 1628 908 1628 912 1588 c 1,10,11
 912 1536 912 1536 892 1455 c 0,12,13
 862 1333 862 1333 858 1308 c 0,14,15
 838 1169 838 1169 838 1096 c 0,16,17
 838 1086 838 1086 834 1079 c 0,18,19
 826 1067 826 1067 788 1058 c 2,20,-1
 608 1020 l 2,21,22
 602 1019 602 1019 597 1019 c 0,23,24
 560 1019 560 1019 560 1062 c 0,0,1
160 1062 m 0,25,26
 160 1163 160 1163 207 1283 c 0,27,28
 264 1426 264 1426 358 1544 c 1,29,-1
 376 1566 l 2,30,31
 394 1588 394 1588 421.5 1609 c 128,-1,32
 449 1630 449 1630 468 1630 c 0,33,34
 508 1628 508 1628 512 1588 c 1,35,36
 512 1536 512 1536 492 1455 c 0,37,38
 462 1333 462 1333 458 1308 c 0,39,40
 438 1169 438 1169 438 1096 c 0,41,42
 438 1086 438 1086 434 1079 c 0,43,44
 426 1067 426 1067 388 1058 c 2,45,-1
 208 1020 l 2,46,47
 203 1019 203 1019 197 1019 c 0,48,49
 160 1019 160 1019 160 1062 c 0,25,26
EndSplineSet
EndChar

StartChar: quotedblright
Encoding: 8221 8221 218
Width: 682
GlyphClass: 2
Flags: W
LayerCount: 2
Fore
SplineSet
908 1614 m 1,0,1
 908 1513 908 1513 861 1393 c 0,2,3
 804 1250 804 1250 710 1132 c 1,4,-1
 692 1110 l 2,5,6
 674 1088 674 1088 646.5 1067 c 128,-1,7
 619 1046 619 1046 600 1046 c 0,8,9
 560 1048 560 1048 556 1088 c 1,10,11
 556 1140 556 1140 576 1221 c 0,12,13
 606 1343 606 1343 610 1368 c 128,-1,14
 614 1393 614 1393 616 1427 c 0,15,16
 626 1554 626 1554 630 1580 c 1,17,18
 631 1616 631 1616 680 1618 c 1,19,-1
 860 1656 l 1,20,21
 906 1655 906 1655 908 1614 c 1,0,1
508 1614 m 1,22,23
 508 1513 508 1513 461 1393 c 0,24,25
 404 1250 404 1250 310 1132 c 1,26,-1
 292 1110 l 2,27,28
 274 1088 274 1088 246.5 1067 c 128,-1,29
 219 1046 219 1046 200 1046 c 0,30,31
 160 1048 160 1048 156 1088 c 1,32,33
 156 1140 156 1140 176 1221 c 0,34,35
 206 1343 206 1343 210 1368 c 128,-1,36
 214 1393 214 1393 216 1427 c 0,37,38
 226 1554 226 1554 230 1580 c 1,39,40
 231 1616 231 1616 280 1618 c 1,41,-1
 460 1656 l 1,42,43
 506 1655 506 1655 508 1614 c 1,22,23
EndSplineSet
EndChar

StartChar: quotedblbase
Encoding: 8222 8222 219
Width: 800
GlyphClass: 2
Flags: W
LayerCount: 2
Fore
SplineSet
582 214 m 1,0,1
 582 113 582 113 535 -7 c 0,2,3
 478 -150 478 -150 384 -268 c 1,4,-1
 366 -290 l 2,5,6
 348 -312 348 -312 320.5 -333 c 128,-1,7
 293 -354 293 -354 274 -354 c 0,8,9
 234 -352 234 -352 230 -312 c 1,10,11
 230 -260 230 -260 250 -179 c 0,12,13
 280 -57 280 -57 284 -32 c 128,-1,14
 288 -7 288 -7 290 27 c 0,15,16
 300 154 300 154 304 180 c 1,17,18
 305 216 305 216 354 218 c 1,19,-1
 534 256 l 1,20,21
 580 255 580 255 582 214 c 1,0,1
282 214 m 1,22,23
 282 113 282 113 235 -7 c 0,24,25
 178 -150 178 -150 84 -268 c 1,26,-1
 66 -290 l 2,27,28
 48 -312 48 -312 20.5 -333 c 128,-1,29
 -7 -354 -7 -354 -26 -354 c 0,30,31
 -66 -352 -66 -352 -70 -312 c 1,32,33
 -70 -260 -70 -260 -50 -179 c 0,34,35
 -20 -57 -20 -57 -16 -32 c 128,-1,36
 -12 -7 -12 -7 -10 27 c 0,37,38
 0 154 0 154 4 180 c 1,39,40
 5 216 5 216 54 218 c 1,41,-1
 234 256 l 1,42,43
 280 255 280 255 282 214 c 1,22,23
EndSplineSet
EndChar

StartChar: bullet
Encoding: 8226 8226 220
Width: 1076
GlyphClass: 2
Flags: W
LayerCount: 2
Fore
SplineSet
336 536 m 0,0,1
 336 659 336 659 423 748 c 0,2,3
 512 838 512 838 640 838 c 0,4,5
 764 838 764 838 853 752 c 0,6,7
 944 663 944 663 944 536 c 0,8,9
 944 411 944 411 857 322 c 0,10,11
 768 232 768 232 640 232 c 0,12,13
 516 232 516 232 427 318 c 0,14,15
 336 407 336 407 336 536 c 0,0,1
EndSplineSet
EndChar

StartChar: ellipsis
Encoding: 8230 8230 221
Width: 1398
GlyphClass: 2
Flags: W
LayerCount: 2
Fore
SplineSet
992 96 m 0,0,1
 992 136 992 136 1015 170 c 0,2,3
 1055 228 1055 228 1132 228 c 2,4,-1
 1158 228 l 2,5,6
 1197 228 1197 228 1234 198 c 0,7,8
 1286 155 1286 155 1286 96 c 0,9,10
 1286 55 1286 55 1261 21 c 0,11,12
 1219 -36 1219 -36 1142 -36 c 2,13,-1
 1118 -36 l 2,14,15
 1078 -36 1078 -36 1043 -9 c 0,16,17
 992 32 992 32 992 96 c 0,0,1
526 96 m 0,18,19
 526 136 526 136 549 170 c 0,20,21
 589 228 589 228 666 228 c 2,22,-1
 692 228 l 2,23,24
 731 228 731 228 768 198 c 0,25,26
 820 155 820 155 820 96 c 0,27,28
 820 55 820 55 795 21 c 0,29,30
 753 -36 753 -36 676 -36 c 2,31,-1
 652 -36 l 2,32,33
 612 -36 612 -36 577 -9 c 0,34,35
 526 32 526 32 526 96 c 0,18,19
60 96 m 0,36,37
 60 136 60 136 83 170 c 0,38,39
 123 228 123 228 200 228 c 2,40,-1
 226 228 l 2,41,42
 265 228 265 228 302 198 c 0,43,44
 354 155 354 155 354 96 c 0,45,46
 354 54 354 54 329 21 c 0,47,48
 287 -36 287 -36 210 -36 c 2,49,-1
 186 -36 l 2,50,51
 146 -36 146 -36 111 -9 c 0,52,53
 60 32 60 32 60 96 c 0,36,37
EndSplineSet
EndChar

StartChar: guilsinglleft
Encoding: 8249 8249 222
Width: 572
GlyphClass: 2
Flags: W
LayerCount: 2
Fore
SplineSet
407 536 m 1,0,-1
 513 210 l 2,1,2
 525 176 525 176 497 165 c 0,3,4
 488 162 488 162 479 162 c 2,5,-1
 383 162 l 2,6,7
 340 162 340 162 320 197 c 0,8,9
 317 203 317 203 315 208 c 2,10,-1
 203 522 l 2,11,12
 188 566 188 566 217 605 c 0,13,14
 219 607 219 607 219 608 c 2,15,-1
 475 902 l 1,16,17
 510 939 510 939 557 940 c 1,18,-1
 653 940 l 2,19,20
 684 940 684 940 686 918 c 0,21,22
 687 904 687 904 675 888 c 2,23,-1
 407 536 l 1,0,-1
EndSplineSet
EndChar

StartChar: guilsinglright
Encoding: 8250 8250 223
Width: 572
GlyphClass: 2
Flags: W
LayerCount: 2
Fore
SplineSet
327 566 m 1,0,-1
 221 892 l 2,1,2
 209 926 209 926 237 937 c 0,3,4
 246 940 246 940 255 940 c 2,5,-1
 351 940 l 2,6,7
 394 940 394 940 414 905 c 0,8,9
 417 899 417 899 419 894 c 2,10,-1
 531 580 l 2,11,12
 546 536 546 536 517 497 c 0,13,14
 515 495 515 495 515 494 c 2,15,-1
 259 200 l 1,16,17
 224 163 224 163 177 162 c 1,18,-1
 81 162 l 2,19,20
 50 162 50 162 48 184 c 0,21,22
 47 198 47 198 59 214 c 2,23,-1
 327 566 l 1,0,-1
EndSplineSet
EndChar

StartChar: fraction
Encoding: 8260 8260 224
Width: 400
GlyphClass: 2
Flags: W
LayerCount: 2
Fore
SplineSet
136 -54 m 2,0,1
 136 -54 136 -54 -56 -52 c 0,2,3
 -77 -51 -77 -51 -87 -30 c 1,4,5
 -99 -1 -99 -1 -78 20 c 2,6,-1
 1378 1482 l 2,7,8
 1423 1527 1423 1527 1474 1528 c 1,9,-1
 1668 1528 l 1,10,11
 1689 1527 1689 1527 1698 1506 c 0,12,13
 1709 1477 1709 1477 1688 1456 c 2,14,-1
 220 -18 l 2,15,16
 209 -29 209 -29 199 -37 c 0,17,18
 176 -54 176 -54 136 -54 c 2,0,1
EndSplineSet
EndChar

StartChar: foursuperior
Encoding: 8308 8308 225
Width: 738
GlyphClass: 2
Flags: W
LayerCount: 2
Fore
SplineSet
722 832 m 2,0,1
 722 832 722 832 656 832 c 1,2,-1
 608 668 l 1,3,4
 598 641 598 641 562 640 c 1,5,-1
 412 640 l 2,6,7
 404 640 404 640 397 643 c 0,8,9
 374 653 374 653 382 680 c 2,10,-1
 426 832 l 1,11,-1
 158 832 l 1,12,13
 92 833 92 833 72 872 c 1,14,15
 52 914 52 914 92 964 c 2,16,-1
 506 1496 l 2,17,18
 509 1500 509 1500 513 1503 c 0,19,20
 533 1524 533 1524 560 1524 c 2,21,-1
 722 1524 l 2,22,23
 735 1524 735 1524 746 1513 c 0,24,25
 764 1493 764 1493 746 1470 c 2,26,-1
 354 988 l 1,27,-1
 472 988 l 1,28,-1
 514 1132 l 1,29,30
 524 1159 524 1159 560 1160 c 1,31,-1
 710 1160 l 2,32,33
 719 1160 719 1160 727 1156 c 0,34,35
 747 1145 747 1145 740 1120 c 2,36,-1
 701 988 l 1,37,-1
 772 988 l 2,38,39
 774 988 774 988 777 988 c 0,40,41
 818 988 818 988 806 950 c 1,42,-1
 774 868 l 2,43,44
 773 865 773 865 771 861 c 0,45,46
 757 832 757 832 722 832 c 2,0,1
EndSplineSet
EndChar

StartChar: twoinferior
Encoding: 8322 8322 226
Width: 680
GlyphClass: 2
Flags: W
LayerCount: 2
Fore
SplineSet
365 178 m 1,0,-1
 580 178 l 1,1,2
 621 176 621 176 614 136 c 1,3,-1
 592 36 l 2,4,5
 590 31 590 31 587 25 c 0,6,7
 570 0 570 0 540 0 c 2,8,-1
 96 0 l 1,9,10
 62 1 62 1 43 26 c 0,11,12
 15 65 15 65 60 114 c 1,13,-1
 452 526 l 2,14,15
 459 534 459 534 467 543 c 0,16,17
 527 615 527 615 534 679 c 0,18,19
 541 742 541 742 480 742 c 0,20,21
 465 742 465 742 450 730 c 0,22,23
 408 698 408 698 408 628 c 0,24,25
 408 627 408 627 407 624 c 0,26,27
 399 598 399 598 368 594 c 2,28,-1
 212 576 l 2,29,30
 206 575 206 575 200 576 c 0,31,32
 178 578 178 578 178 610 c 0,33,34
 179 722 179 722 269 804 c 0,35,36
 368 894 368 894 516 894 c 0,37,38
 603 894 603 894 663 855 c 0,39,40
 749 800 749 800 749 693 c 0,41,42
 750 565 750 565 626 438 c 1,43,-1
 365 178 l 1,0,-1
EndSplineSet
EndChar

StartChar: fourinferior
Encoding: 8324 8324 227
Width: 738
GlyphClass: 2
Flags: W
LayerCount: 2
Fore
SplineSet
640 192 m 2,0,1
 640 192 640 192 574 192 c 1,2,-1
 526 28 l 1,3,4
 516 1 516 1 480 0 c 1,5,-1
 330 0 l 2,6,7
 322 0 322 0 315 3 c 0,8,9
 292 13 292 13 300 40 c 2,10,-1
 344 192 l 1,11,-1
 76 192 l 1,12,13
 10 193 10 193 -10 232 c 1,14,15
 -30 274 -30 274 10 324 c 2,16,-1
 424 856 l 2,17,18
 427 860 427 860 431 863 c 0,19,20
 451 884 451 884 478 884 c 2,21,-1
 640 884 l 2,22,23
 654 884 654 884 664 873 c 0,24,25
 682 853 682 853 664 830 c 2,26,-1
 272 348 l 1,27,-1
 390 348 l 1,28,-1
 432 492 l 1,29,30
 442 519 442 519 478 520 c 1,31,-1
 628 520 l 2,32,33
 637 520 637 520 645 516 c 0,34,35
 665 505 665 505 658 480 c 2,36,-1
 619 348 l 1,37,-1
 690 348 l 2,38,39
 692 348 692 348 695 348 c 0,40,41
 736 348 736 348 724 310 c 1,42,-1
 692 228 l 2,43,44
 691 225 691 225 689 221 c 0,45,46
 675 192 675 192 640 192 c 2,0,1
EndSplineSet
EndChar

StartChar: Euro
Encoding: 8364 8364 228
Width: 900
GlyphClass: 2
Flags: W
LayerCount: 2
Fore
SplineSet
-86 642 m 2,0,1
 -86 642 -86 642 42 642 c 1,2,3
 50 697 50 697 56 726 c 1,4,-1
 -56 726 l 2,5,6
 -63 726 -63 726 -71 727 c 0,7,8
 -112 735 -112 735 -94 798 c 2,9,-1
 -76 862 l 1,10,11
 -76 862 -76 862 -69 887 c 1,12,13
 -63 902 -63 902 -44 902 c 2,14,-1
 100 902 l 1,15,16
 184 1174 184 1174 331 1326 c 0,17,18
 464 1463 464 1463 615 1463 c 0,19,20
 789 1463 789 1463 866 1355 c 0,21,22
 920 1279 920 1279 920 1092 c 0,23,24
 920 1044 920 1044 880 1028 c 1,25,-1
 688 968 l 2,26,27
 682 966 682 966 676 966 c 0,28,29
 651 964 651 964 654 1000 c 1,30,31
 658 1097 658 1097 655 1113 c 0,32,33
 645 1174 645 1174 595 1174 c 0,34,35
 498 1174 498 1174 404 902 c 1,36,-1
 808 902 l 2,37,38
 868 902 868 902 854 838 c 2,39,-1
 842 782 l 2,40,41
 839 769 839 769 831 758 c 0,42,43
 809 726 809 726 774 726 c 2,44,-1
 353 726 l 1,45,46
 342 684 342 684 335 642 c 1,47,-1
 736 642 l 2,48,49
 796 642 796 642 782 578 c 2,50,-1
 770 522 l 2,51,52
 767 509 767 509 759 498 c 0,53,54
 737 466 737 466 702 466 c 2,55,-1
 314 466 l 1,56,57
 311 406 311 406 315 357 c 0,58,59
 325 230 325 230 372 230 c 0,60,61
 422 230 422 230 447 244 c 0,62,63
 466 254 466 254 502 300 c 0,64,65
 532 338 532 338 554 364 c 1,66,67
 570 387 570 387 579 394 c 0,68,69
 592 404 592 404 636 398 c 2,70,-1
 774 378 l 2,71,72
 783 377 783 377 791 372 c 0,73,74
 806 361 806 361 790 312 c 1,75,76
 759 198 759 198 618 62 c 0,77,78
 531 -22 531 -22 350 -22 c 0,79,80
 278 -22 278 -22 181 51 c 0,81,82
 28 168 28 168 29 466 c 1,83,-1
 -98 466 l 2,84,85
 -105 466 -105 466 -113 467 c 0,86,87
 -154 475 -154 475 -136 538 c 2,88,-1
 -118 602 l 1,89,90
 -118 602 -118 602 -111 627 c 1,91,92
 -105 642 -105 642 -86 642 c 2,0,1
EndSplineSet
EndChar

StartChar: trademark
Encoding: 8482 8482 229
Width: 918
GlyphClass: 2
Flags: W
LayerCount: 2
Fore
SplineSet
668 1488 m 1,0,1
 677 1518 677 1518 710 1520 c 1,2,-1
 818 1520 l 1,3,-1
 832 1520 l 1,4,-1
 914 1520 l 1,5,6
 936 1517 936 1517 948 1486 c 1,7,8
 951 1456 951 1456 953 1431 c 0,9,10
 964 1286 964 1286 951 1185 c 1,11,-1
 1166 1490 l 2,12,13
 1167 1491 1167 1491 1168 1493 c 0,14,15
 1185 1518 1185 1518 1208 1518 c 2,16,-1
 1246 1518 l 1,17,-1
 1286 1518 l 1,18,-1
 1368 1518 l 2,19,20
 1376 1518 1376 1518 1383 1514 c 0,21,22
 1403 1502 1403 1502 1396 1474 c 2,23,-1
 1268 1002 l 1,24,25
 1262 972 1262 972 1226 970 c 1,26,-1
 1106 970 l 2,27,28
 1098 970 1098 970 1091 974 c 0,29,30
 1071 986 1071 986 1078 1014 c 2,31,-1
 1126 1193 l 2,32,33
 1124 1189 1124 1189 1120 1185 c 0,34,35
 1045 1078 1045 1078 1018 1032 c 0,36,37
 1008 1016 1008 1016 998 1003 c 0,38,39
 973 974 973 974 934 974 c 2,40,-1
 838 976 l 2,41,42
 833 976 833 976 828 977 c 0,43,44
 790 985 790 985 792 1034 c 1,45,46
 801 1166 801 1166 800 1246 c 1,47,-1
 736 1002 l 2,48,49
 727 971 727 971 692 970 c 1,50,-1
 572 970 l 2,51,52
 564 970 564 970 557 974 c 0,53,54
 537 986 537 986 544 1014 c 2,55,-1
 668 1488 l 1,0,1
106 1520 m 2,56,57
 106 1520 106 1520 296 1520 c 2,58,-1
 418 1520 l 1,59,-1
 590 1520 l 1,60,61
 632 1519 632 1519 622 1474 c 2,62,-1
 604 1388 l 2,63,64
 602 1381 602 1381 598 1373 c 0,65,66
 582 1348 582 1348 554 1348 c 2,67,-1
 416 1348 l 1,68,-1
 330 1000 l 1,69,70
 321 969 321 969 286 968 c 1,71,-1
 162 968 l 2,72,73
 154 968 154 968 147 972 c 0,74,75
 127 984 127 984 134 1012 c 2,76,-1
 217 1348 l 1,77,-1
 88 1348 l 2,78,79
 82 1348 82 1348 76 1349 c 0,80,81
 48 1354 48 1354 60 1400 c 2,82,-1
 84 1492 l 2,83,84
 86 1501 86 1501 88 1507 c 0,85,86
 93 1520 93 1520 106 1520 c 2,56,57
EndSplineSet
EndChar

StartChar: minus
Encoding: 8722 8722 230
Width: 982
GlyphClass: 2
Flags: W
LayerCount: 2
Fore
SplineSet
857 524 m 2,0,1
 857 524 857 524 127 524 c 0,2,3
 119 524 119 524 112 525 c 0,4,5
 72 532 72 532 89 596 c 1,6,-1
 115 704 l 2,7,8
 118 717 118 717 123 728 c 0,9,10
 138 762 138 762 181 762 c 2,11,-1
 905 762 l 1,12,13
 964 761 964 761 951 698 c 2,14,-1
 925 580 l 2,15,16
 922 568 922 568 914 556 c 0,17,18
 892 524 892 524 857 524 c 2,0,1
EndSplineSet
EndChar

StartChar: m.alt1
Encoding: 65540 -1 232
Width: 1174
GlyphClass: 2
Flags: W
LayerCount: 2
Fore
SplineSet
400 785 m 1,0,-1
 546 990 l 2,1,2
 555 1002 555 1002 564 1014 c 0,3,4
 622 1082 622 1082 696 1082 c 2,5,-1
 754 1082 l 2,6,7
 771 1082 771 1082 787 1078 c 0,8,9
 865 1057 865 1057 838 954 c 2,10,-1
 826 909 l 1,11,-1
 878 982 l 2,12,13
 897 1008 897 1008 915 1027 c 0,14,15
 969 1082 969 1082 1040 1082 c 2,16,-1
 1074 1082 l 2,17,18
 1085 1082 1085 1082 1095 1080 c 0,19,20
 1185 1065 1185 1065 1152 940 c 2,21,-1
 912 28 l 1,22,23
 902 -1 902 -1 862 -2 c 1,24,-1
 700 0 l 2,25,26
 697 0 697 0 693 2 c 0,27,28
 672 11 672 11 674 32 c 0,29,30
 676 55 676 55 704 147 c 0,31,32
 774 375 774 375 782 406 c 0,33,34
 784 412 784 412 787 424 c 0,35,36
 790 435 790 435 791 440 c 0,37,38
 798 466 798 466 784 466 c 0,39,40
 770 465 770 465 754 432 c 0,41,42
 729 382 729 382 675 255 c 0,43,44
 639 170 639 170 622 133 c 1,45,-1
 594 28 l 1,46,47
 584 -1 584 -1 544 -2 c 1,48,-1
 382 0 l 2,49,50
 379 0 379 0 375 2 c 0,51,52
 354 11 354 11 356 32 c 0,53,54
 358 56 358 56 392 173 c 0,55,56
 476 465 476 465 480 482 c 0,57,58
 482 488 482 488 485 500 c 0,59,60
 488 511 488 511 489 516 c 0,61,62
 496 542 496 542 482 542 c 1,63,64
 474 541 474 541 458 520 c 0,65,66
 453 512 453 512 450 508 c 0,67,68
 402 437 402 437 315 266 c 0,69,70
 214 66 214 66 196 38 c 1,71,72
 167 1 167 1 134 0 c 1,73,-1
 12 0 l 2,74,75
 4 0 4 0 -4 5 c 0,76,77
 -28 19 -28 19 -20 52 c 2,78,-1
 240 1026 l 1,79,80
 253 1080 253 1080 300 1082 c 1,81,-1
 428 1082 l 2,82,83
 448 1082 448 1082 461 1078 c 0,84,85
 491 1068 491 1068 478 1020 c 1,86,-1
 400 785 l 1,0,-1
EndSplineSet
EndChar

StartChar: r.alt1
Encoding: 65541 -1 233
Width: 914
GlyphClass: 2
Flags: W
LayerCount: 2
Fore
SplineSet
615 846 m 1,0,1
 615 846 615 846 432 846 c 1,2,-1
 370 624 l 2,3,4
 358 581 358 581 310 580 c 1,5,-1
 180 580 l 1,6,7
 127 581 127 581 136 626 c 1,8,-1
 195 846 l 1,9,-1
 192 846 l 1,10,11
 86 847 86 847 116 962 c 1,12,-1
 156 1090 l 2,13,14
 169 1130 169 1130 222 1132 c 1,15,-1
 454 1132 l 1,16,17
 507 1131 507 1131 498 1086 c 1,18,-1
 485 1038 l 1,19,-1
 848 1038 l 2,20,21
 868 1038 868 1038 885 1029 c 0,22,23
 930 1004 930 1004 904 942 c 0,24,25
 775 633 775 633 730 440 c 0,26,27
 726 421 726 421 722 406 c 0,28,29
 694 282 694 282 710 243 c 0,30,31
 727 199 727 199 812 196 c 0,32,33
 842 195 842 195 876 198 c 0,34,35
 955 204 955 204 962 204 c 0,36,37
 1008 200 1008 200 992 134 c 2,38,-1
 972 52 l 2,39,40
 969 40 969 40 965 32 c 0,41,42
 949 0 949 0 880 0 c 2,43,-1
 650 0 l 2,44,45
 598 0 598 0 552 22 c 0,46,47
 439 78 439 78 448 236 c 0,48,49
 450 270 450 270 465 338 c 0,50,51
 513 555 513 555 615 846 c 1,0,1
EndSplineSet
EndChar

StartChar: r.alt2
Encoding: 65542 -1 234
Width: 1010
GlyphClass: 2
Flags: W
LayerCount: 2
Fore
SplineSet
576 846 m 1,0,1
 576 846 576 846 432 846 c 1,2,-1
 370 624 l 2,3,4
 358 581 358 581 310 580 c 1,5,-1
 160 580 l 1,6,7
 107 581 107 581 116 626 c 1,8,-1
 175 846 l 1,9,-1
 132 846 l 1,10,11
 26 847 26 847 56 962 c 1,12,-1
 96 1090 l 2,13,14
 98 1096 98 1096 101 1102 c 0,15,16
 118 1132 118 1132 140 1132 c 2,17,-1
 454 1132 l 1,18,19
 507 1131 507 1131 498 1086 c 1,20,-1
 485 1038 l 1,21,-1
 808 1038 l 2,22,23
 828 1038 828 1038 845 1029 c 0,24,25
 890 1004 890 1004 864 942 c 0,26,27
 862 938 862 938 860 932 c 0,28,29
 742 644 742 644 706 504 c 0,30,31
 682 414 682 414 688 370 c 0,32,33
 696 314 696 314 752 352 c 0,34,35
 775 368 775 368 811 397 c 0,36,37
 901 469 901 469 914 476 c 0,38,39
 928 484 928 484 940 486 c 0,40,41
 974 489 974 489 970 432 c 2,42,-1
 964 326 l 2,43,44
 963 314 963 314 961 303 c 0,45,46
 950 253 950 253 888 208 c 2,47,-1
 704 72 l 1,48,49
 633 21 633 21 615 11 c 0,50,51
 589 -2 589 -2 540 -2 c 0,52,53
 522 -2 522 -2 505 2 c 0,54,55
 393 31 393 31 408 236 c 0,56,57
 410 270 410 270 426 337 c 0,58,59
 475 556 475 556 576 846 c 1,0,1
EndSplineSet
EndChar

StartChar: r.alt3
Encoding: 65543 -1 235
Width: 940
GlyphClass: 2
Flags: W
LayerCount: 2
Fore
SplineSet
648 846 m 1,0,1
 648 846 648 846 475 846 c 1,2,-1
 259 44 l 2,3,4
 247 1 247 1 199 0 c 1,5,-1
 69 0 l 1,6,7
 16 1 16 1 25 46 c 1,8,-1
 236 846 l 1,9,-1
 213 846 l 2,10,11
 198 846 198 846 184 851 c 0,12,13
 114 877 114 877 151 1006 c 1,14,-1
 163 1044 l 2,15,16
 190 1131 190 1131 269 1132 c 1,17,-1
 495 1132 l 1,18,19
 548 1131 548 1131 539 1086 c 1,20,-1
 526 1038 l 1,21,-1
 889 1038 l 2,22,23
 909 1038 909 1038 926 1029 c 0,24,25
 971 1004 971 1004 945 942 c 0,26,27
 942 934 942 934 921 892 c 0,28,29
 729 508 729 508 729 340 c 0,30,31
 729 283 729 283 742 251 c 0,32,33
 766 196 766 196 853 196 c 0,34,35
 880 196 880 196 907 198 c 0,36,37
 974 204 974 204 983 204 c 0,38,39
 1029 200 1029 200 1013 134 c 2,40,-1
 993 52 l 2,41,42
 990 40 990 40 986 32 c 0,43,44
 970 0 970 0 901 0 c 2,45,-1
 725 0 l 2,46,47
 643 0 643 0 577 45 c 0,48,49
 473 116 473 116 473 254 c 0,50,51
 473 356 473 356 515 507 c 0,52,53
 570 705 570 705 648 846 c 1,0,1
EndSplineSet
EndChar

StartChar: s.alt1
Encoding: 65544 -1 236
Width: 646
GlyphClass: 2
Flags: W
LayerCount: 2
Fore
SplineSet
430 1096 m 0,0,1
 474 1096 474 1096 518 1082 c 0,2,3
 613 1051 613 1051 668 974 c 0,4,5
 670 972 670 972 672 968 c 0,6,7
 689 938 689 938 670 904 c 2,8,-1
 616 808 l 2,9,10
 612 802 612 802 605 797 c 0,11,12
 576 779 576 779 552 810 c 0,13,14
 547 817 547 817 539 824 c 0,15,16
 480 881 480 881 398 890 c 1,17,18
 381 881 381 881 359 840 c 0,19,20
 320 765 320 765 318 704 c 1,21,22
 315 661 315 661 340 662 c 1,23,24
 384 668 384 668 420 668 c 0,25,26
 608 663 608 663 596 448 c 0,27,28
 595 417 595 417 587 380 c 0,29,30
 558 241 558 241 471 123 c 0,31,32
 363 -24 363 -24 238 -24 c 0,33,34
 185 -24 185 -24 128 -2 c 0,35,36
 41 32 41 32 -12 92 c 0,37,38
 -18 99 -18 99 -24 107 c 0,39,40
 -50 149 -50 149 -28 194 c 2,41,-1
 18 284 l 2,42,43
 26 299 26 299 40 308 c 0,44,45
 74 328 74 328 104 292 c 0,46,47
 112 281 112 281 132 263 c 0,48,49
 200 204 200 204 250 196 c 1,50,51
 281 221 281 221 308 272 c 0,52,53
 355 362 355 362 360 456 c 1,54,55
 359 471 359 471 334 482 c 1,56,57
 287 500 287 500 224 490 c 0,58,59
 161 479 161 479 127 503 c 1,60,61
 80 538 80 538 86 670 c 0,62,63
 88 700 88 700 94 732 c 0,64,65
 122 874 122 874 218 983 c 1,66,67
 319 1096 319 1096 430 1096 c 0,0,1
EndSplineSet
EndChar

StartChar: y.alt1
Encoding: 65545 -1 237
Width: 754
GlyphClass: 2
Flags: W
LayerCount: 2
Fore
SplineSet
663 1080 m 1,0,1
 663 1080 663 1080 807 1080 c 0,2,3
 819 1080 819 1080 831 1077 c 0,4,5
 890 1062 890 1062 859 990 c 0,6,7
 765 771 765 771 716 661 c 0,8,9
 499 180 499 180 307 -62 c 0,10,11
 218 -173 218 -173 83 -268 c 0,12,13
 -70 -375 -70 -375 -179 -394 c 0,14,15
 -244 -405 -244 -405 -255 -348 c 1,16,-1
 -273 -242 l 2,17,18
 -275 -235 -275 -235 -275 -227 c 0,19,20
 -276 -185 -276 -185 -237 -176 c 0,21,22
 -194 -166 -194 -166 -138 -140 c 0,23,24
 22 -67 22 -67 123 46 c 1,25,26
 107 70 107 70 111 124 c 1,27,28
 143 442 143 442 93 1014 c 0,29,30
 93 1015 93 1015 93 1016 c 0,31,32
 87 1080 87 1080 143 1080 c 2,33,-1
 297 1080 l 2,34,35
 303 1080 303 1080 310 1079 c 0,36,37
 340 1074 340 1074 345 1034 c 1,38,39
 372 741 372 741 354 444 c 1,40,41
 466 681 466 681 591 1036 c 0,42,43
 607 1079 607 1079 663 1080 c 1,0,1
EndSplineSet
EndChar

StartChar: y.alt2
Encoding: 65546 -1 238
Width: 832
GlyphClass: 2
Flags: W
LayerCount: 2
Fore
SplineSet
443 241 m 1,0,-1
 368 122 l 2,1,2
 323 51 323 51 286 32 c 0,3,4
 265 22 265 22 210 22 c 2,5,-1
 198 22 l 1,6,7
 129 23 129 23 80 82 c 0,8,9
 72 92 72 92 63 108 c 0,10,11
 18 193 18 193 42 294 c 0,12,13
 51 330 51 330 80 438 c 0,14,15
 220 956 220 956 254 1052 c 0,16,17
 264 1079 264 1079 304 1080 c 1,18,-1
 460 1080 l 1,19,20
 499 1079 499 1079 482 1022 c 0,21,22
 480 1016 480 1016 478 1008 c 0,23,24
 346 574 346 574 328 504 c 0,25,26
 310 431 310 431 330 426 c 128,-1,27
 350 421 350 421 396 506 c 0,28,29
 602 889 602 889 668 1034 c 1,30,31
 690 1078 690 1078 734 1080 c 1,32,-1
 826 1080 l 1,33,-1
 850 1080 l 1,34,35
 900 1078 900 1078 892 1026 c 1,36,37
 825 756 825 756 619 48 c 0,38,39
 574 -106 574 -106 568 -130 c 0,40,41
 526 -283 526 -283 430 -336 c 0,42,43
 367 -370 367 -370 334 -378 c 0,44,45
 280 -390 280 -390 206 -346 c 1,46,-1
 2 -230 l 2,47,48
 -11 -223 -11 -223 -20 -213 c 1,49,50
 -38 -187 -38 -187 -14 -158 c 1,51,-1
 50 -72 l 2,52,53
 52 -70 52 -70 54 -68 c 0,54,55
 83 -38 83 -38 116 -56 c 2,56,-1
 290 -150 l 2,57,58
 323 -167 323 -167 344 -104 c 1,59,-1
 443 241 l 1,0,-1
EndSplineSet
EndChar

StartChar: z.alt1
Encoding: 65547 -1 239
Width: 758
GlyphClass: 2
Flags: W
LayerCount: 2
Fore
SplineSet
489 880 m 1,0,-1
 176 880 l 2,1,2
 172 880 172 880 167 881 c 0,3,4
 126 886 126 886 140 930 c 1,5,-1
 170 1040 l 2,6,7
 175 1056 175 1056 180 1066 c 1,8,9
 189 1080 189 1080 220 1080 c 2,10,-1
 758 1080 l 1,11,12
 800 1079 800 1079 825 1046 c 1,13,14
 861 994 861 994 806 920 c 2,15,16
 806 920 806 920 264 202 c 1,17,-1
 566 202 l 2,18,19
 573 202 573 202 579 201 c 0,20,21
 629 193 629 193 612 138 c 2,22,-1
 584 46 l 1,23,24
 568 1 568 1 520 0 c 1,25,-1
 -24 0 l 1,26,27
 -79 1 -79 1 -94 41 c 1,28,29
 -108 82 -108 82 -74 126 c 2,30,-1
 489 880 l 1,0,-1
EndSplineSet
EndChar
